G04 #@! TF.GenerationSoftware,KiCad,Pcbnew,(6.0.9-0)*
G04 #@! TF.CreationDate,2022-11-06T22:18:11+09:00*
G04 #@! TF.ProjectId,MEZZ8,4d455a5a-382e-46b6-9963-61645f706362,A*
G04 #@! TF.SameCoordinates,PX5f5e100PY8f0d180*
G04 #@! TF.FileFunction,Legend,Top*
G04 #@! TF.FilePolarity,Positive*
%FSLAX46Y46*%
G04 Gerber Fmt 4.6, Leading zero omitted, Abs format (unit mm)*
G04 Created by KiCad (PCBNEW (6.0.9-0)) date 2022-11-06 22:18:11*
%MOMM*%
%LPD*%
G01*
G04 APERTURE LIST*
%ADD10C,0.150000*%
%ADD11C,0.120000*%
G04 APERTURE END LIST*
D10*
X13335000Y59055000D02*
X12065000Y59690000D01*
X12065000Y58420000D02*
X13335000Y59055000D01*
X12065000Y59690000D02*
X12065000Y58420000D01*
X39375000Y36195000D02*
X40645000Y36830000D01*
X40645000Y36830000D02*
X40645000Y35560000D01*
X40645000Y35560000D02*
X39375000Y36195000D01*
X40645000Y36195000D02*
X41280000Y36195000D01*
X41280000Y36195000D02*
X41280000Y33655000D01*
X8260000Y50805000D02*
X9530000Y51440000D01*
X8260000Y52075000D02*
X8260000Y50805000D01*
X40645000Y33020000D02*
X39375000Y33655000D01*
X40645000Y34290000D02*
X40645000Y33020000D01*
X39375000Y33655000D02*
X40645000Y34290000D01*
X9530000Y51440000D02*
X8260000Y52075000D01*
X41280000Y33655000D02*
X40645000Y33655000D01*
X39330714Y38282620D02*
X39330714Y39282620D01*
X39711666Y39282620D01*
X39806904Y39235000D01*
X39854523Y39187381D01*
X39902142Y39092143D01*
X39902142Y38949286D01*
X39854523Y38854048D01*
X39806904Y38806429D01*
X39711666Y38758810D01*
X39330714Y38758810D01*
X40283095Y39187381D02*
X40330714Y39235000D01*
X40425952Y39282620D01*
X40664047Y39282620D01*
X40759285Y39235000D01*
X40806904Y39187381D01*
X40854523Y39092143D01*
X40854523Y38996905D01*
X40806904Y38854048D01*
X40235476Y38282620D01*
X40854523Y38282620D01*
X41711666Y38949286D02*
X41711666Y38282620D01*
X41473571Y39330239D02*
X41235476Y38615953D01*
X41854523Y38615953D01*
X18237380Y55242977D02*
X17237380Y55242977D01*
X18237380Y55814405D01*
X17237380Y55814405D01*
X18142142Y56862024D02*
X18189761Y56814405D01*
X18237380Y56671548D01*
X18237380Y56576310D01*
X18189761Y56433453D01*
X18094523Y56338215D01*
X17999285Y56290596D01*
X17808809Y56242977D01*
X17665952Y56242977D01*
X17475476Y56290596D01*
X17380238Y56338215D01*
X17285000Y56433453D01*
X17237380Y56576310D01*
X17237380Y56671548D01*
X17285000Y56814405D01*
X17332619Y56862024D01*
X33528095Y3627381D02*
X33575714Y3675000D01*
X33670952Y3722620D01*
X33909047Y3722620D01*
X34004285Y3675000D01*
X34051904Y3627381D01*
X34099523Y3532143D01*
X34099523Y3436905D01*
X34051904Y3294048D01*
X33480476Y2722620D01*
X34099523Y2722620D01*
X35051904Y2722620D02*
X34480476Y2722620D01*
X34766190Y2722620D02*
X34766190Y3722620D01*
X34670952Y3579762D01*
X34575714Y3484524D01*
X34480476Y3436905D01*
X39311666Y49442620D02*
X39645000Y48442620D01*
X39978333Y49442620D01*
X40883095Y48537858D02*
X40835476Y48490239D01*
X40692619Y48442620D01*
X40597380Y48442620D01*
X40454523Y48490239D01*
X40359285Y48585477D01*
X40311666Y48680715D01*
X40264047Y48871191D01*
X40264047Y49014048D01*
X40311666Y49204524D01*
X40359285Y49299762D01*
X40454523Y49395000D01*
X40597380Y49442620D01*
X40692619Y49442620D01*
X40835476Y49395000D01*
X40883095Y49347381D01*
X41883095Y48537858D02*
X41835476Y48490239D01*
X41692619Y48442620D01*
X41597380Y48442620D01*
X41454523Y48490239D01*
X41359285Y48585477D01*
X41311666Y48680715D01*
X41264047Y48871191D01*
X41264047Y49014048D01*
X41311666Y49204524D01*
X41359285Y49299762D01*
X41454523Y49395000D01*
X41597380Y49442620D01*
X41692619Y49442620D01*
X41835476Y49395000D01*
X41883095Y49347381D01*
X39330714Y45902620D02*
X39330714Y46902620D01*
X39711666Y46902620D01*
X39806904Y46855000D01*
X39854523Y46807381D01*
X39902142Y46712143D01*
X39902142Y46569286D01*
X39854523Y46474048D01*
X39806904Y46426429D01*
X39711666Y46378810D01*
X39330714Y46378810D01*
X40283095Y46807381D02*
X40330714Y46855000D01*
X40425952Y46902620D01*
X40664047Y46902620D01*
X40759285Y46855000D01*
X40806904Y46807381D01*
X40854523Y46712143D01*
X40854523Y46616905D01*
X40806904Y46474048D01*
X40235476Y45902620D01*
X40854523Y45902620D01*
X41187857Y46902620D02*
X41854523Y46902620D01*
X41425952Y45902620D01*
X39883095Y18915000D02*
X39787857Y18962620D01*
X39645000Y18962620D01*
X39502142Y18915000D01*
X39406904Y18819762D01*
X39359285Y18724524D01*
X39311666Y18534048D01*
X39311666Y18391191D01*
X39359285Y18200715D01*
X39406904Y18105477D01*
X39502142Y18010239D01*
X39645000Y17962620D01*
X39740238Y17962620D01*
X39883095Y18010239D01*
X39930714Y18057858D01*
X39930714Y18391191D01*
X39740238Y18391191D01*
X40359285Y17962620D02*
X40359285Y18962620D01*
X40930714Y17962620D01*
X40930714Y18962620D01*
X41406904Y17962620D02*
X41406904Y18962620D01*
X41645000Y18962620D01*
X41787857Y18915000D01*
X41883095Y18819762D01*
X41930714Y18724524D01*
X41978333Y18534048D01*
X41978333Y18391191D01*
X41930714Y18200715D01*
X41883095Y18105477D01*
X41787857Y18010239D01*
X41645000Y17962620D01*
X41406904Y17962620D01*
X24852380Y54433453D02*
X24852380Y55004881D01*
X25852380Y54719167D02*
X24852380Y54719167D01*
X24852380Y55242977D02*
X25852380Y55909643D01*
X24852380Y55909643D02*
X25852380Y55242977D01*
X25852380Y56290596D02*
X24852380Y56290596D01*
X24852380Y56528691D01*
X24900000Y56671548D01*
X24995238Y56766786D01*
X25090476Y56814405D01*
X25280952Y56862024D01*
X25423809Y56862024D01*
X25614285Y56814405D01*
X25709523Y56766786D01*
X25804761Y56671548D01*
X25852380Y56528691D01*
X25852380Y56290596D01*
X20777380Y55242977D02*
X19777380Y55242977D01*
X20777380Y55814405D01*
X19777380Y55814405D01*
X20682142Y56862024D02*
X20729761Y56814405D01*
X20777380Y56671548D01*
X20777380Y56576310D01*
X20729761Y56433453D01*
X20634523Y56338215D01*
X20539285Y56290596D01*
X20348809Y56242977D01*
X20205952Y56242977D01*
X20015476Y56290596D01*
X19920238Y56338215D01*
X19825000Y56433453D01*
X19777380Y56576310D01*
X19777380Y56671548D01*
X19825000Y56814405D01*
X19872619Y56862024D01*
X8128095Y3627381D02*
X8175714Y3675000D01*
X8270952Y3722620D01*
X8509047Y3722620D01*
X8604285Y3675000D01*
X8651904Y3627381D01*
X8699523Y3532143D01*
X8699523Y3436905D01*
X8651904Y3294048D01*
X8080476Y2722620D01*
X8699523Y2722620D01*
X9318571Y3722620D02*
X9413809Y3722620D01*
X9509047Y3675000D01*
X9556666Y3627381D01*
X9604285Y3532143D01*
X9651904Y3341667D01*
X9651904Y3103572D01*
X9604285Y2913096D01*
X9556666Y2817858D01*
X9509047Y2770239D01*
X9413809Y2722620D01*
X9318571Y2722620D01*
X9223333Y2770239D01*
X9175714Y2817858D01*
X9128095Y2913096D01*
X9080476Y3103572D01*
X9080476Y3341667D01*
X9128095Y3532143D01*
X9175714Y3627381D01*
X9223333Y3675000D01*
X9318571Y3722620D01*
X14745000Y54776786D02*
X14697380Y54681548D01*
X14697380Y54538691D01*
X14745000Y54395834D01*
X14840238Y54300596D01*
X14935476Y54252977D01*
X15125952Y54205358D01*
X15268809Y54205358D01*
X15459285Y54252977D01*
X15554523Y54300596D01*
X15649761Y54395834D01*
X15697380Y54538691D01*
X15697380Y54633929D01*
X15649761Y54776786D01*
X15602142Y54824405D01*
X15268809Y54824405D01*
X15268809Y54633929D01*
X15697380Y55252977D02*
X14697380Y55252977D01*
X15697380Y55824405D01*
X14697380Y55824405D01*
X15697380Y56300596D02*
X14697380Y56300596D01*
X14697380Y56538691D01*
X14745000Y56681548D01*
X14840238Y56776786D01*
X14935476Y56824405D01*
X15125952Y56872024D01*
X15268809Y56872024D01*
X15459285Y56824405D01*
X15554523Y56776786D01*
X15649761Y56681548D01*
X15697380Y56538691D01*
X15697380Y56300596D01*
X28392380Y55237977D02*
X27392380Y55237977D01*
X28392380Y55809405D01*
X27392380Y55809405D01*
X28297142Y56857024D02*
X28344761Y56809405D01*
X28392380Y56666548D01*
X28392380Y56571310D01*
X28344761Y56428453D01*
X28249523Y56333215D01*
X28154285Y56285596D01*
X27963809Y56237977D01*
X27820952Y56237977D01*
X27630476Y56285596D01*
X27535238Y56333215D01*
X27440000Y56428453D01*
X27392380Y56571310D01*
X27392380Y56666548D01*
X27440000Y56809405D01*
X27487619Y56857024D01*
X39311666Y51982620D02*
X39645000Y50982620D01*
X39978333Y51982620D01*
X40883095Y51077858D02*
X40835476Y51030239D01*
X40692619Y50982620D01*
X40597380Y50982620D01*
X40454523Y51030239D01*
X40359285Y51125477D01*
X40311666Y51220715D01*
X40264047Y51411191D01*
X40264047Y51554048D01*
X40311666Y51744524D01*
X40359285Y51839762D01*
X40454523Y51935000D01*
X40597380Y51982620D01*
X40692619Y51982620D01*
X40835476Y51935000D01*
X40883095Y51887381D01*
X41883095Y51077858D02*
X41835476Y51030239D01*
X41692619Y50982620D01*
X41597380Y50982620D01*
X41454523Y51030239D01*
X41359285Y51125477D01*
X41311666Y51220715D01*
X41264047Y51411191D01*
X41264047Y51554048D01*
X41311666Y51744524D01*
X41359285Y51839762D01*
X41454523Y51935000D01*
X41597380Y51982620D01*
X41692619Y51982620D01*
X41835476Y51935000D01*
X41883095Y51887381D01*
X34009285Y51654286D02*
X34009285Y50987620D01*
X33771190Y52035239D02*
X33533095Y51320953D01*
X34152142Y51320953D01*
X34723571Y51987620D02*
X34818809Y51987620D01*
X34914047Y51940000D01*
X34961666Y51892381D01*
X35009285Y51797143D01*
X35056904Y51606667D01*
X35056904Y51368572D01*
X35009285Y51178096D01*
X34961666Y51082858D01*
X34914047Y51035239D01*
X34818809Y50987620D01*
X34723571Y50987620D01*
X34628333Y51035239D01*
X34580714Y51082858D01*
X34533095Y51178096D01*
X34485476Y51368572D01*
X34485476Y51606667D01*
X34533095Y51797143D01*
X34580714Y51892381D01*
X34628333Y51940000D01*
X34723571Y51987620D01*
X39330714Y43362620D02*
X39330714Y44362620D01*
X39711666Y44362620D01*
X39806904Y44315000D01*
X39854523Y44267381D01*
X39902142Y44172143D01*
X39902142Y44029286D01*
X39854523Y43934048D01*
X39806904Y43886429D01*
X39711666Y43838810D01*
X39330714Y43838810D01*
X40283095Y44267381D02*
X40330714Y44315000D01*
X40425952Y44362620D01*
X40664047Y44362620D01*
X40759285Y44315000D01*
X40806904Y44267381D01*
X40854523Y44172143D01*
X40854523Y44076905D01*
X40806904Y43934048D01*
X40235476Y43362620D01*
X40854523Y43362620D01*
X41711666Y44362620D02*
X41521190Y44362620D01*
X41425952Y44315000D01*
X41378333Y44267381D01*
X41283095Y44124524D01*
X41235476Y43934048D01*
X41235476Y43553096D01*
X41283095Y43457858D01*
X41330714Y43410239D01*
X41425952Y43362620D01*
X41616428Y43362620D01*
X41711666Y43410239D01*
X41759285Y43457858D01*
X41806904Y43553096D01*
X41806904Y43791191D01*
X41759285Y43886429D01*
X41711666Y43934048D01*
X41616428Y43981667D01*
X41425952Y43981667D01*
X41330714Y43934048D01*
X41283095Y43886429D01*
X41235476Y43791191D01*
X695714Y35747620D02*
X695714Y36747620D01*
X1076666Y36747620D01*
X1171904Y36700000D01*
X1219523Y36652381D01*
X1267142Y36557143D01*
X1267142Y36414286D01*
X1219523Y36319048D01*
X1171904Y36271429D01*
X1076666Y36223810D01*
X695714Y36223810D01*
X1600476Y36747620D02*
X2219523Y36747620D01*
X1886190Y36366667D01*
X2029047Y36366667D01*
X2124285Y36319048D01*
X2171904Y36271429D01*
X2219523Y36176191D01*
X2219523Y35938096D01*
X2171904Y35842858D01*
X2124285Y35795239D01*
X2029047Y35747620D01*
X1743333Y35747620D01*
X1648095Y35795239D01*
X1600476Y35842858D01*
X3171904Y35747620D02*
X2600476Y35747620D01*
X2886190Y35747620D02*
X2886190Y36747620D01*
X2790952Y36604762D01*
X2695714Y36509524D01*
X2600476Y36461905D01*
X39430714Y30662620D02*
X39430714Y31662620D01*
X39811666Y31662620D01*
X39906904Y31615000D01*
X39954523Y31567381D01*
X40002142Y31472143D01*
X40002142Y31329286D01*
X39954523Y31234048D01*
X39906904Y31186429D01*
X39811666Y31138810D01*
X39430714Y31138810D01*
X40383095Y31567381D02*
X40430714Y31615000D01*
X40525952Y31662620D01*
X40764047Y31662620D01*
X40859285Y31615000D01*
X40906904Y31567381D01*
X40954523Y31472143D01*
X40954523Y31376905D01*
X40906904Y31234048D01*
X40335476Y30662620D01*
X40954523Y30662620D01*
X41287857Y31662620D02*
X41906904Y31662620D01*
X41573571Y31281667D01*
X41716428Y31281667D01*
X41811666Y31234048D01*
X41859285Y31186429D01*
X41906904Y31091191D01*
X41906904Y30853096D01*
X41859285Y30757858D01*
X41811666Y30710239D01*
X41716428Y30662620D01*
X41430714Y30662620D01*
X41335476Y30710239D01*
X41287857Y30757858D01*
X695714Y40827620D02*
X695714Y41827620D01*
X1076666Y41827620D01*
X1171904Y41780000D01*
X1219523Y41732381D01*
X1267142Y41637143D01*
X1267142Y41494286D01*
X1219523Y41399048D01*
X1171904Y41351429D01*
X1076666Y41303810D01*
X695714Y41303810D01*
X1600476Y41827620D02*
X2219523Y41827620D01*
X1886190Y41446667D01*
X2029047Y41446667D01*
X2124285Y41399048D01*
X2171904Y41351429D01*
X2219523Y41256191D01*
X2219523Y41018096D01*
X2171904Y40922858D01*
X2124285Y40875239D01*
X2029047Y40827620D01*
X1743333Y40827620D01*
X1648095Y40875239D01*
X1600476Y40922858D01*
X2552857Y41827620D02*
X3171904Y41827620D01*
X2838571Y41446667D01*
X2981428Y41446667D01*
X3076666Y41399048D01*
X3124285Y41351429D01*
X3171904Y41256191D01*
X3171904Y41018096D01*
X3124285Y40922858D01*
X3076666Y40875239D01*
X2981428Y40827620D01*
X2695714Y40827620D01*
X2600476Y40875239D01*
X2552857Y40922858D01*
X576666Y51982620D02*
X910000Y50982620D01*
X1243333Y51982620D01*
X2148095Y51077858D02*
X2100476Y51030239D01*
X1957619Y50982620D01*
X1862380Y50982620D01*
X1719523Y51030239D01*
X1624285Y51125477D01*
X1576666Y51220715D01*
X1529047Y51411191D01*
X1529047Y51554048D01*
X1576666Y51744524D01*
X1624285Y51839762D01*
X1719523Y51935000D01*
X1862380Y51982620D01*
X1957619Y51982620D01*
X2100476Y51935000D01*
X2148095Y51887381D01*
X3148095Y51077858D02*
X3100476Y51030239D01*
X2957619Y50982620D01*
X2862380Y50982620D01*
X2719523Y51030239D01*
X2624285Y51125477D01*
X2576666Y51220715D01*
X2529047Y51411191D01*
X2529047Y51554048D01*
X2576666Y51744524D01*
X2624285Y51839762D01*
X2719523Y51935000D01*
X2862380Y51982620D01*
X2957619Y51982620D01*
X3100476Y51935000D01*
X3148095Y51887381D01*
X695714Y43367620D02*
X695714Y44367620D01*
X1076666Y44367620D01*
X1171904Y44320000D01*
X1219523Y44272381D01*
X1267142Y44177143D01*
X1267142Y44034286D01*
X1219523Y43939048D01*
X1171904Y43891429D01*
X1076666Y43843810D01*
X695714Y43843810D01*
X1600476Y44367620D02*
X2219523Y44367620D01*
X1886190Y43986667D01*
X2029047Y43986667D01*
X2124285Y43939048D01*
X2171904Y43891429D01*
X2219523Y43796191D01*
X2219523Y43558096D01*
X2171904Y43462858D01*
X2124285Y43415239D01*
X2029047Y43367620D01*
X1743333Y43367620D01*
X1648095Y43415239D01*
X1600476Y43462858D01*
X3076666Y44034286D02*
X3076666Y43367620D01*
X2838571Y44415239D02*
X2600476Y43700953D01*
X3219523Y43700953D01*
X19851904Y43897620D02*
X20518571Y43897620D01*
X19851904Y42897620D01*
X20518571Y42897620D01*
X20899523Y42897620D02*
X20899523Y43564286D01*
X20899523Y43897620D02*
X20851904Y43850000D01*
X20899523Y43802381D01*
X20947142Y43850000D01*
X20899523Y43897620D01*
X20899523Y43802381D01*
X21518571Y42897620D02*
X21423333Y42945239D01*
X21375714Y43040477D01*
X21375714Y43897620D01*
X22042380Y42897620D02*
X21947142Y42945239D01*
X21899523Y42992858D01*
X21851904Y43088096D01*
X21851904Y43373810D01*
X21899523Y43469048D01*
X21947142Y43516667D01*
X22042380Y43564286D01*
X22185238Y43564286D01*
X22280476Y43516667D01*
X22328095Y43469048D01*
X22375714Y43373810D01*
X22375714Y43088096D01*
X22328095Y42992858D01*
X22280476Y42945239D01*
X22185238Y42897620D01*
X22042380Y42897620D01*
X23232857Y43564286D02*
X23232857Y42754762D01*
X23185238Y42659524D01*
X23137619Y42611905D01*
X23042380Y42564286D01*
X22899523Y42564286D01*
X22804285Y42611905D01*
X23232857Y42945239D02*
X23137619Y42897620D01*
X22947142Y42897620D01*
X22851904Y42945239D01*
X22804285Y42992858D01*
X22756666Y43088096D01*
X22756666Y43373810D01*
X22804285Y43469048D01*
X22851904Y43516667D01*
X22947142Y43564286D01*
X23137619Y43564286D01*
X23232857Y43516667D01*
X20780476Y42287620D02*
X21447142Y42287620D01*
X20780476Y41287620D01*
X21447142Y41287620D01*
X21970952Y41859048D02*
X21875714Y41906667D01*
X21828095Y41954286D01*
X21780476Y42049524D01*
X21780476Y42097143D01*
X21828095Y42192381D01*
X21875714Y42240000D01*
X21970952Y42287620D01*
X22161428Y42287620D01*
X22256666Y42240000D01*
X22304285Y42192381D01*
X22351904Y42097143D01*
X22351904Y42049524D01*
X22304285Y41954286D01*
X22256666Y41906667D01*
X22161428Y41859048D01*
X21970952Y41859048D01*
X21875714Y41811429D01*
X21828095Y41763810D01*
X21780476Y41668572D01*
X21780476Y41478096D01*
X21828095Y41382858D01*
X21875714Y41335239D01*
X21970952Y41287620D01*
X22161428Y41287620D01*
X22256666Y41335239D01*
X22304285Y41382858D01*
X22351904Y41478096D01*
X22351904Y41668572D01*
X22304285Y41763810D01*
X22256666Y41811429D01*
X22161428Y41859048D01*
X39883095Y21455000D02*
X39787857Y21502620D01*
X39645000Y21502620D01*
X39502142Y21455000D01*
X39406904Y21359762D01*
X39359285Y21264524D01*
X39311666Y21074048D01*
X39311666Y20931191D01*
X39359285Y20740715D01*
X39406904Y20645477D01*
X39502142Y20550239D01*
X39645000Y20502620D01*
X39740238Y20502620D01*
X39883095Y20550239D01*
X39930714Y20597858D01*
X39930714Y20931191D01*
X39740238Y20931191D01*
X40359285Y20502620D02*
X40359285Y21502620D01*
X40930714Y20502620D01*
X40930714Y21502620D01*
X41406904Y20502620D02*
X41406904Y21502620D01*
X41645000Y21502620D01*
X41787857Y21455000D01*
X41883095Y21359762D01*
X41930714Y21264524D01*
X41978333Y21074048D01*
X41978333Y20931191D01*
X41930714Y20740715D01*
X41883095Y20645477D01*
X41787857Y20550239D01*
X41645000Y20502620D01*
X41406904Y20502620D01*
X39430714Y28122620D02*
X39430714Y29122620D01*
X39811666Y29122620D01*
X39906904Y29075000D01*
X39954523Y29027381D01*
X40002142Y28932143D01*
X40002142Y28789286D01*
X39954523Y28694048D01*
X39906904Y28646429D01*
X39811666Y28598810D01*
X39430714Y28598810D01*
X40383095Y29027381D02*
X40430714Y29075000D01*
X40525952Y29122620D01*
X40764047Y29122620D01*
X40859285Y29075000D01*
X40906904Y29027381D01*
X40954523Y28932143D01*
X40954523Y28836905D01*
X40906904Y28694048D01*
X40335476Y28122620D01*
X40954523Y28122620D01*
X41335476Y29027381D02*
X41383095Y29075000D01*
X41478333Y29122620D01*
X41716428Y29122620D01*
X41811666Y29075000D01*
X41859285Y29027381D01*
X41906904Y28932143D01*
X41906904Y28836905D01*
X41859285Y28694048D01*
X41287857Y28122620D01*
X41906904Y28122620D01*
X695714Y48447620D02*
X695714Y49447620D01*
X1076666Y49447620D01*
X1171904Y49400000D01*
X1219523Y49352381D01*
X1267142Y49257143D01*
X1267142Y49114286D01*
X1219523Y49019048D01*
X1171904Y48971429D01*
X1076666Y48923810D01*
X695714Y48923810D01*
X1600476Y49447620D02*
X2219523Y49447620D01*
X1886190Y49066667D01*
X2029047Y49066667D01*
X2124285Y49019048D01*
X2171904Y48971429D01*
X2219523Y48876191D01*
X2219523Y48638096D01*
X2171904Y48542858D01*
X2124285Y48495239D01*
X2029047Y48447620D01*
X1743333Y48447620D01*
X1648095Y48495239D01*
X1600476Y48542858D01*
X3076666Y49447620D02*
X2886190Y49447620D01*
X2790952Y49400000D01*
X2743333Y49352381D01*
X2648095Y49209524D01*
X2600476Y49019048D01*
X2600476Y48638096D01*
X2648095Y48542858D01*
X2695714Y48495239D01*
X2790952Y48447620D01*
X2981428Y48447620D01*
X3076666Y48495239D01*
X3124285Y48542858D01*
X3171904Y48638096D01*
X3171904Y48876191D01*
X3124285Y48971429D01*
X3076666Y49019048D01*
X2981428Y49066667D01*
X2790952Y49066667D01*
X2695714Y49019048D01*
X2648095Y48971429D01*
X2600476Y48876191D01*
X695714Y45907620D02*
X695714Y46907620D01*
X1076666Y46907620D01*
X1171904Y46860000D01*
X1219523Y46812381D01*
X1267142Y46717143D01*
X1267142Y46574286D01*
X1219523Y46479048D01*
X1171904Y46431429D01*
X1076666Y46383810D01*
X695714Y46383810D01*
X1600476Y46907620D02*
X2219523Y46907620D01*
X1886190Y46526667D01*
X2029047Y46526667D01*
X2124285Y46479048D01*
X2171904Y46431429D01*
X2219523Y46336191D01*
X2219523Y46098096D01*
X2171904Y46002858D01*
X2124285Y45955239D01*
X2029047Y45907620D01*
X1743333Y45907620D01*
X1648095Y45955239D01*
X1600476Y46002858D01*
X3124285Y46907620D02*
X2648095Y46907620D01*
X2600476Y46431429D01*
X2648095Y46479048D01*
X2743333Y46526667D01*
X2981428Y46526667D01*
X3076666Y46479048D01*
X3124285Y46431429D01*
X3171904Y46336191D01*
X3171904Y46098096D01*
X3124285Y46002858D01*
X3076666Y45955239D01*
X2981428Y45907620D01*
X2743333Y45907620D01*
X2648095Y45955239D01*
X2600476Y46002858D01*
X39330714Y40822620D02*
X39330714Y41822620D01*
X39711666Y41822620D01*
X39806904Y41775000D01*
X39854523Y41727381D01*
X39902142Y41632143D01*
X39902142Y41489286D01*
X39854523Y41394048D01*
X39806904Y41346429D01*
X39711666Y41298810D01*
X39330714Y41298810D01*
X40283095Y41727381D02*
X40330714Y41775000D01*
X40425952Y41822620D01*
X40664047Y41822620D01*
X40759285Y41775000D01*
X40806904Y41727381D01*
X40854523Y41632143D01*
X40854523Y41536905D01*
X40806904Y41394048D01*
X40235476Y40822620D01*
X40854523Y40822620D01*
X41759285Y41822620D02*
X41283095Y41822620D01*
X41235476Y41346429D01*
X41283095Y41394048D01*
X41378333Y41441667D01*
X41616428Y41441667D01*
X41711666Y41394048D01*
X41759285Y41346429D01*
X41806904Y41251191D01*
X41806904Y41013096D01*
X41759285Y40917858D01*
X41711666Y40870239D01*
X41616428Y40822620D01*
X41378333Y40822620D01*
X41283095Y40870239D01*
X41235476Y40917858D01*
X1148095Y34155000D02*
X1052857Y34202620D01*
X910000Y34202620D01*
X767142Y34155000D01*
X671904Y34059762D01*
X624285Y33964524D01*
X576666Y33774048D01*
X576666Y33631191D01*
X624285Y33440715D01*
X671904Y33345477D01*
X767142Y33250239D01*
X910000Y33202620D01*
X1005238Y33202620D01*
X1148095Y33250239D01*
X1195714Y33297858D01*
X1195714Y33631191D01*
X1005238Y33631191D01*
X1624285Y33202620D02*
X1624285Y34202620D01*
X2195714Y33202620D01*
X2195714Y34202620D01*
X2671904Y33202620D02*
X2671904Y34202620D01*
X2910000Y34202620D01*
X3052857Y34155000D01*
X3148095Y34059762D01*
X3195714Y33964524D01*
X3243333Y33774048D01*
X3243333Y33631191D01*
X3195714Y33440715D01*
X3148095Y33345477D01*
X3052857Y33250239D01*
X2910000Y33202620D01*
X2671904Y33202620D01*
X695714Y38287620D02*
X695714Y39287620D01*
X1076666Y39287620D01*
X1171904Y39240000D01*
X1219523Y39192381D01*
X1267142Y39097143D01*
X1267142Y38954286D01*
X1219523Y38859048D01*
X1171904Y38811429D01*
X1076666Y38763810D01*
X695714Y38763810D01*
X1600476Y39287620D02*
X2219523Y39287620D01*
X1886190Y38906667D01*
X2029047Y38906667D01*
X2124285Y38859048D01*
X2171904Y38811429D01*
X2219523Y38716191D01*
X2219523Y38478096D01*
X2171904Y38382858D01*
X2124285Y38335239D01*
X2029047Y38287620D01*
X1743333Y38287620D01*
X1648095Y38335239D01*
X1600476Y38382858D01*
X2600476Y39192381D02*
X2648095Y39240000D01*
X2743333Y39287620D01*
X2981428Y39287620D01*
X3076666Y39240000D01*
X3124285Y39192381D01*
X3171904Y39097143D01*
X3171904Y39001905D01*
X3124285Y38859048D01*
X2552857Y38287620D01*
X3171904Y38287620D01*
X39430714Y23042620D02*
X39430714Y24042620D01*
X39811666Y24042620D01*
X39906904Y23995000D01*
X39954523Y23947381D01*
X40002142Y23852143D01*
X40002142Y23709286D01*
X39954523Y23614048D01*
X39906904Y23566429D01*
X39811666Y23518810D01*
X39430714Y23518810D01*
X40383095Y23947381D02*
X40430714Y23995000D01*
X40525952Y24042620D01*
X40764047Y24042620D01*
X40859285Y23995000D01*
X40906904Y23947381D01*
X40954523Y23852143D01*
X40954523Y23756905D01*
X40906904Y23614048D01*
X40335476Y23042620D01*
X40954523Y23042620D01*
X41573571Y24042620D02*
X41668809Y24042620D01*
X41764047Y23995000D01*
X41811666Y23947381D01*
X41859285Y23852143D01*
X41906904Y23661667D01*
X41906904Y23423572D01*
X41859285Y23233096D01*
X41811666Y23137858D01*
X41764047Y23090239D01*
X41668809Y23042620D01*
X41573571Y23042620D01*
X41478333Y23090239D01*
X41430714Y23137858D01*
X41383095Y23233096D01*
X41335476Y23423572D01*
X41335476Y23661667D01*
X41383095Y23852143D01*
X41430714Y23947381D01*
X41478333Y23995000D01*
X41573571Y24042620D01*
X39430714Y25582620D02*
X39430714Y26582620D01*
X39811666Y26582620D01*
X39906904Y26535000D01*
X39954523Y26487381D01*
X40002142Y26392143D01*
X40002142Y26249286D01*
X39954523Y26154048D01*
X39906904Y26106429D01*
X39811666Y26058810D01*
X39430714Y26058810D01*
X40383095Y26487381D02*
X40430714Y26535000D01*
X40525952Y26582620D01*
X40764047Y26582620D01*
X40859285Y26535000D01*
X40906904Y26487381D01*
X40954523Y26392143D01*
X40954523Y26296905D01*
X40906904Y26154048D01*
X40335476Y25582620D01*
X40954523Y25582620D01*
X41906904Y25582620D02*
X41335476Y25582620D01*
X41621190Y25582620D02*
X41621190Y26582620D01*
X41525952Y26439762D01*
X41430714Y26344524D01*
X41335476Y26296905D01*
X23312380Y54909643D02*
X22836190Y54576310D01*
X23312380Y54338215D02*
X22312380Y54338215D01*
X22312380Y54719167D01*
X22360000Y54814405D01*
X22407619Y54862024D01*
X22502857Y54909643D01*
X22645714Y54909643D01*
X22740952Y54862024D01*
X22788571Y54814405D01*
X22836190Y54719167D01*
X22836190Y54338215D01*
X22312380Y55242977D02*
X23312380Y55909643D01*
X22312380Y55909643D02*
X23312380Y55242977D01*
X23312380Y56290596D02*
X22312380Y56290596D01*
X22312380Y56528691D01*
X22360000Y56671548D01*
X22455238Y56766786D01*
X22550476Y56814405D01*
X22740952Y56862024D01*
X22883809Y56862024D01*
X23074285Y56814405D01*
X23169523Y56766786D01*
X23264761Y56671548D01*
X23312380Y56528691D01*
X23312380Y56290596D01*
X35393333Y57162620D02*
X35060000Y57638810D01*
X34821904Y57162620D02*
X34821904Y58162620D01*
X35202857Y58162620D01*
X35298095Y58115000D01*
X35345714Y58067381D01*
X35393333Y57972143D01*
X35393333Y57829286D01*
X35345714Y57734048D01*
X35298095Y57686429D01*
X35202857Y57638810D01*
X34821904Y57638810D01*
X36345714Y57162620D02*
X35774285Y57162620D01*
X36060000Y57162620D02*
X36060000Y58162620D01*
X35964761Y58019762D01*
X35869523Y57924524D01*
X35774285Y57876905D01*
X35684285Y15192620D02*
X35684285Y16192620D01*
X36065238Y16192620D01*
X36160476Y16145000D01*
X36208095Y16097381D01*
X36255714Y16002143D01*
X36255714Y15859286D01*
X36208095Y15764048D01*
X36160476Y15716429D01*
X36065238Y15668810D01*
X35684285Y15668810D01*
X36827142Y15192620D02*
X36731904Y15240239D01*
X36684285Y15287858D01*
X36636666Y15383096D01*
X36636666Y15668810D01*
X36684285Y15764048D01*
X36731904Y15811667D01*
X36827142Y15859286D01*
X36970000Y15859286D01*
X37065238Y15811667D01*
X37112857Y15764048D01*
X37160476Y15668810D01*
X37160476Y15383096D01*
X37112857Y15287858D01*
X37065238Y15240239D01*
X36970000Y15192620D01*
X36827142Y15192620D01*
X37589047Y15192620D02*
X37589047Y15859286D01*
X37589047Y15668810D02*
X37636666Y15764048D01*
X37684285Y15811667D01*
X37779523Y15859286D01*
X37874761Y15859286D01*
X38065238Y15859286D02*
X38446190Y15859286D01*
X38208095Y16192620D02*
X38208095Y15335477D01*
X38255714Y15240239D01*
X38350952Y15192620D01*
X38446190Y15192620D01*
X38731904Y16097381D02*
X38779523Y16145000D01*
X38874761Y16192620D01*
X39112857Y16192620D01*
X39208095Y16145000D01*
X39255714Y16097381D01*
X39303333Y16002143D01*
X39303333Y15906905D01*
X39255714Y15764048D01*
X38684285Y15192620D01*
X39303333Y15192620D01*
X8310714Y58697858D02*
X8263095Y58650239D01*
X8120238Y58602620D01*
X8025000Y58602620D01*
X7882142Y58650239D01*
X7786904Y58745477D01*
X7739285Y58840715D01*
X7691666Y59031191D01*
X7691666Y59174048D01*
X7739285Y59364524D01*
X7786904Y59459762D01*
X7882142Y59555000D01*
X8025000Y59602620D01*
X8120238Y59602620D01*
X8263095Y59555000D01*
X8310714Y59507381D01*
X8929761Y59602620D02*
X9120238Y59602620D01*
X9215476Y59555000D01*
X9310714Y59459762D01*
X9358333Y59269286D01*
X9358333Y58935953D01*
X9310714Y58745477D01*
X9215476Y58650239D01*
X9120238Y58602620D01*
X8929761Y58602620D01*
X8834523Y58650239D01*
X8739285Y58745477D01*
X8691666Y58935953D01*
X8691666Y59269286D01*
X8739285Y59459762D01*
X8834523Y59555000D01*
X8929761Y59602620D01*
X9786904Y58602620D02*
X9786904Y59602620D01*
X10358333Y58602620D01*
X10358333Y59602620D01*
X11263095Y59269286D02*
X11263095Y58602620D01*
X11025000Y59650239D02*
X10786904Y58935953D01*
X11405952Y58935953D01*
X7453333Y54887858D02*
X7405714Y54840239D01*
X7262857Y54792620D01*
X7167619Y54792620D01*
X7024761Y54840239D01*
X6929523Y54935477D01*
X6881904Y55030715D01*
X6834285Y55221191D01*
X6834285Y55364048D01*
X6881904Y55554524D01*
X6929523Y55649762D01*
X7024761Y55745000D01*
X7167619Y55792620D01*
X7262857Y55792620D01*
X7405714Y55745000D01*
X7453333Y55697381D01*
X8405714Y54792620D02*
X7834285Y54792620D01*
X8120000Y54792620D02*
X8120000Y55792620D01*
X8024761Y55649762D01*
X7929523Y55554524D01*
X7834285Y55506905D01*
X20613809Y12882620D02*
X20613809Y13882620D01*
X21661428Y12977858D02*
X21613809Y12930239D01*
X21470952Y12882620D01*
X21375714Y12882620D01*
X21232857Y12930239D01*
X21137619Y13025477D01*
X21090000Y13120715D01*
X21042380Y13311191D01*
X21042380Y13454048D01*
X21090000Y13644524D01*
X21137619Y13739762D01*
X21232857Y13835000D01*
X21375714Y13882620D01*
X21470952Y13882620D01*
X21613809Y13835000D01*
X21661428Y13787381D01*
X22613809Y12882620D02*
X22042380Y12882620D01*
X22328095Y12882620D02*
X22328095Y13882620D01*
X22232857Y13739762D01*
X22137619Y13644524D01*
X22042380Y13596905D01*
X3299285Y30432620D02*
X3299285Y31432620D01*
X3680238Y31432620D01*
X3775476Y31385000D01*
X3823095Y31337381D01*
X3870714Y31242143D01*
X3870714Y31099286D01*
X3823095Y31004048D01*
X3775476Y30956429D01*
X3680238Y30908810D01*
X3299285Y30908810D01*
X4442142Y30432620D02*
X4346904Y30480239D01*
X4299285Y30527858D01*
X4251666Y30623096D01*
X4251666Y30908810D01*
X4299285Y31004048D01*
X4346904Y31051667D01*
X4442142Y31099286D01*
X4585000Y31099286D01*
X4680238Y31051667D01*
X4727857Y31004048D01*
X4775476Y30908810D01*
X4775476Y30623096D01*
X4727857Y30527858D01*
X4680238Y30480239D01*
X4585000Y30432620D01*
X4442142Y30432620D01*
X5204047Y30432620D02*
X5204047Y31099286D01*
X5204047Y30908810D02*
X5251666Y31004048D01*
X5299285Y31051667D01*
X5394523Y31099286D01*
X5489761Y31099286D01*
X5680238Y31099286D02*
X6061190Y31099286D01*
X5823095Y31432620D02*
X5823095Y30575477D01*
X5870714Y30480239D01*
X5965952Y30432620D01*
X6061190Y30432620D01*
X6299285Y31432620D02*
X6918333Y31432620D01*
X6585000Y31051667D01*
X6727857Y31051667D01*
X6823095Y31004048D01*
X6870714Y30956429D01*
X6918333Y30861191D01*
X6918333Y30623096D01*
X6870714Y30527858D01*
X6823095Y30480239D01*
X6727857Y30432620D01*
X6442142Y30432620D01*
X6346904Y30480239D01*
X6299285Y30527858D01*
D11*
X39600000Y55245000D02*
X38830000Y55245000D01*
X31520000Y55245000D02*
X32290000Y55245000D01*
X32290000Y56615000D02*
X32290000Y53875000D01*
X38830000Y53875000D02*
X38830000Y56615000D01*
X32290000Y53875000D02*
X38830000Y53875000D01*
X38830000Y56615000D02*
X32290000Y56615000D01*
X36140000Y19685000D02*
X36140000Y52765000D01*
X38800000Y19685000D02*
X36140000Y19685000D01*
X38800000Y19685000D02*
X38800000Y52765000D01*
X38800000Y52765000D02*
X36140000Y52765000D01*
X37470000Y17085000D02*
X36140000Y17085000D01*
X36140000Y17085000D02*
X36140000Y18415000D01*
X15240000Y57725000D02*
X13910000Y57725000D01*
X16510000Y60385000D02*
X29270000Y60385000D01*
X16510000Y57725000D02*
X29270000Y57725000D01*
X13910000Y57725000D02*
X13910000Y59055000D01*
X16510000Y57725000D02*
X16510000Y60385000D01*
X29270000Y57725000D02*
X29270000Y60385000D01*
X12815000Y56040000D02*
X12815000Y56665000D01*
X8775000Y53825000D02*
X8775000Y54450000D01*
X8775000Y56040000D02*
X8775000Y56665000D01*
X12815000Y56665000D02*
X8775000Y56665000D01*
X12815000Y53825000D02*
X12815000Y54450000D01*
X12815000Y53825000D02*
X8775000Y53825000D01*
X28050000Y52765000D02*
X22590000Y52765000D01*
X28050000Y1845000D02*
X28050000Y52765000D01*
X20590000Y52765000D02*
X15130000Y52765000D01*
X15130000Y52765000D02*
X15130000Y1845000D01*
X15130000Y1845000D02*
X28050000Y1845000D01*
X20590000Y52765000D02*
G75*
G03*
X22590000Y52765000I1000000J0D01*
G01*
X6415000Y34925000D02*
X3755000Y34925000D01*
X3755000Y32325000D02*
X3755000Y33655000D01*
X3755000Y34925000D02*
X3755000Y52765000D01*
X5085000Y32325000D02*
X3755000Y32325000D01*
X6415000Y52765000D02*
X3755000Y52765000D01*
X6415000Y34925000D02*
X6415000Y52765000D01*
M02*
