M48
; DRILL file {KiCad (6.0.8-1)-1} date 
; FORMAT={-:-/ absolute / metric / decimal}
; #@! TF.CreationDate,2022-10-28T20:48:22+09:00
; #@! TF.GenerationSoftware,Kicad,Pcbnew,(6.0.8-1)-1
; #@! TF.FileFunction,MixedPlating,1,2
FMAT,2
METRIC
; #@! TA.AperFunction,Plated,PTH,ViaDrill
T1C0.300
; #@! TA.AperFunction,Plated,PTH,ComponentDrill
T2C0.800
; #@! TA.AperFunction,Plated,PTH,ComponentDrill
T3C1.000
%
G90
G05
T1
X1.905Y59.055
X9.525Y1.905
X15.865Y36.896
X16.326Y35.874
X16.83Y32.528
X17.145Y51.435
X17.145Y46.355
X17.516Y21.775
X17.78Y36.195
X17.78Y13.335
X17.78Y1.905
X18.046Y24.765
X18.046Y23.495
X19.685Y31.75
X25.4Y28.575
X26.035Y13.335
X26.035Y1.905
X26.499Y21.046
X26.67Y51.435
X26.67Y46.355
X26.67Y40.005
X33.655Y1.905
X35.56Y51.435
X40.64Y59.055
T2
X8.91Y54.61
X11.41Y54.61
X13.97Y51.435
X13.97Y48.895
X13.97Y46.355
X13.97Y43.815
X13.97Y41.275
X13.97Y38.735
X13.97Y36.195
X13.97Y33.655
X13.97Y31.115
X13.97Y28.575
X13.97Y26.035
X13.97Y23.495
X13.97Y20.955
X13.97Y18.415
X13.97Y15.875
X13.97Y13.335
X13.97Y10.795
X13.97Y8.255
X13.97Y5.715
X13.97Y3.175
X29.21Y51.435
X29.21Y48.895
X29.21Y46.355
X29.21Y43.815
X29.21Y41.275
X29.21Y38.735
X29.21Y36.195
X29.21Y33.655
X29.21Y31.115
X29.21Y28.575
X29.21Y26.035
X29.21Y23.495
X29.21Y20.955
X29.21Y18.415
X29.21Y15.875
X29.21Y13.335
X29.21Y10.795
X29.21Y8.255
X29.21Y5.715
X29.21Y3.175
T3
X5.085Y51.435
X5.085Y48.895
X5.085Y46.355
X5.085Y43.815
X5.085Y41.275
X5.085Y38.735
X5.085Y36.195
X5.085Y33.655
X11.435Y51.435
X11.435Y48.895
X11.435Y46.355
X11.435Y43.815
X11.435Y41.275
X11.435Y38.735
X11.435Y36.195
X11.435Y33.655
X11.435Y31.115
X11.435Y28.575
X11.435Y26.035
X11.435Y23.495
X11.435Y20.955
X11.435Y18.415
X11.435Y15.875
X11.435Y13.335
X11.435Y10.795
X11.435Y8.255
X11.435Y5.715
X11.435Y3.175
X15.24Y58.425
X17.78Y58.425
X20.32Y58.425
X22.86Y58.425
X25.4Y58.425
X27.94Y58.425
X31.755Y51.435
X31.755Y48.895
X31.755Y46.355
X31.755Y43.815
X31.755Y41.275
X31.755Y38.735
X31.755Y36.195
X31.755Y33.655
X31.755Y31.115
X31.755Y28.575
X31.755Y26.035
X31.755Y23.495
X31.755Y20.955
X31.755Y18.415
X31.755Y15.875
X31.755Y13.335
X31.755Y10.795
X31.755Y8.255
X31.755Y5.715
X31.755Y3.175
X37.47Y51.435
X37.47Y48.895
X37.47Y46.355
X37.47Y43.815
X37.47Y41.275
X37.47Y38.735
X37.47Y36.195
X37.47Y33.655
X37.47Y31.115
X37.47Y28.575
X37.47Y26.035
X37.47Y23.495
X37.47Y20.955
X37.47Y18.415
T0
M30
