G04 #@! TF.GenerationSoftware,KiCad,Pcbnew,(6.0.8-1)-1*
G04 #@! TF.CreationDate,2022-10-28T20:48:16+09:00*
G04 #@! TF.ProjectId,MEZZ8,4d455a5a-382e-46b6-9963-61645f706362,A*
G04 #@! TF.SameCoordinates,PX5f5e100PY8f0d180*
G04 #@! TF.FileFunction,Soldermask,Top*
G04 #@! TF.FilePolarity,Negative*
%FSLAX46Y46*%
G04 Gerber Fmt 4.6, Leading zero omitted, Abs format (unit mm)*
G04 Created by KiCad (PCBNEW (6.0.8-1)-1) date 2022-10-28 20:48:16*
%MOMM*%
%LPD*%
G01*
G04 APERTURE LIST*
%ADD10R,1.700000X1.700000*%
%ADD11O,1.700000X1.700000*%
%ADD12C,1.600000*%
%ADD13R,1.600000X1.600000*%
%ADD14O,1.600000X1.600000*%
%ADD15C,0.605000*%
G04 APERTURE END LIST*
D10*
X37470000Y18415000D03*
D11*
X37470000Y20955000D03*
X37470000Y23495000D03*
X37470000Y26035000D03*
X37470000Y28575000D03*
X37470000Y31115000D03*
X37470000Y33655000D03*
X37470000Y36195000D03*
X37470000Y38735000D03*
X37470000Y41275000D03*
X37470000Y43815000D03*
X37470000Y46355000D03*
X37470000Y48895000D03*
X37470000Y51435000D03*
D10*
X15240000Y58425000D03*
D11*
X17780000Y58425000D03*
X20320000Y58425000D03*
X22860000Y58425000D03*
X25400000Y58425000D03*
X27940000Y58425000D03*
D12*
X11410000Y54610000D03*
X8910000Y54610000D03*
D13*
X13970000Y51435000D03*
D14*
X13970000Y48895000D03*
X13970000Y46355000D03*
X13970000Y43815000D03*
X13970000Y41275000D03*
X13970000Y38735000D03*
X13970000Y36195000D03*
X13970000Y33655000D03*
X13970000Y31115000D03*
X13970000Y28575000D03*
X13970000Y26035000D03*
X13970000Y23495000D03*
X13970000Y20955000D03*
X13970000Y18415000D03*
X13970000Y15875000D03*
X13970000Y13335000D03*
X13970000Y10795000D03*
X13970000Y8255000D03*
X13970000Y5715000D03*
X13970000Y3175000D03*
X29210000Y3175000D03*
X29210000Y5715000D03*
X29210000Y8255000D03*
X29210000Y10795000D03*
X29210000Y13335000D03*
X29210000Y15875000D03*
X29210000Y18415000D03*
X29210000Y20955000D03*
X29210000Y23495000D03*
X29210000Y26035000D03*
X29210000Y28575000D03*
X29210000Y31115000D03*
X29210000Y33655000D03*
X29210000Y36195000D03*
X29210000Y38735000D03*
X29210000Y41275000D03*
X29210000Y43815000D03*
X29210000Y46355000D03*
X29210000Y48895000D03*
X29210000Y51435000D03*
D11*
X5085000Y51435000D03*
X5085000Y48895000D03*
X5085000Y46355000D03*
X5085000Y43815000D03*
X5085000Y41275000D03*
X5085000Y38735000D03*
X5085000Y36195000D03*
D10*
X5085000Y33655000D03*
X11435000Y51435000D03*
D11*
X11435000Y48895000D03*
X11435000Y46355000D03*
X11435000Y43815000D03*
X11435000Y41275000D03*
X11435000Y38735000D03*
X11435000Y36195000D03*
X11435000Y33655000D03*
X11435000Y31115000D03*
X11435000Y28575000D03*
X11435000Y26035000D03*
X11435000Y23495000D03*
X11435000Y20955000D03*
X11435000Y18415000D03*
X11435000Y15875000D03*
X11435000Y13335000D03*
X11435000Y10795000D03*
X11435000Y8255000D03*
X11435000Y5715000D03*
X11435000Y3175000D03*
D10*
X31755000Y51435000D03*
D11*
X31755000Y48895000D03*
X31755000Y46355000D03*
X31755000Y43815000D03*
X31755000Y41275000D03*
X31755000Y38735000D03*
X31755000Y36195000D03*
X31755000Y33655000D03*
X31755000Y31115000D03*
X31755000Y28575000D03*
X31755000Y26035000D03*
X31755000Y23495000D03*
X31755000Y20955000D03*
X31755000Y18415000D03*
X31755000Y15875000D03*
X31755000Y13335000D03*
X31755000Y10795000D03*
X31755000Y8255000D03*
X31755000Y5715000D03*
X31755000Y3175000D03*
D15*
X19685000Y31750000D03*
X35560000Y51435000D03*
X17780000Y1905000D03*
X17780000Y13335000D03*
X26035000Y1905000D03*
X26035000Y13335000D03*
X9525000Y1905000D03*
X33655000Y1905000D03*
X40640000Y59055000D03*
X1905000Y59055000D03*
X25400000Y28575000D03*
X26670000Y40005000D03*
X17780000Y36195000D03*
X17145000Y46355000D03*
X26670000Y46355000D03*
X26670000Y51435000D03*
X17145000Y51435000D03*
X26499400Y21045600D03*
X18046200Y24765000D03*
X18046200Y23495000D03*
X17515600Y21775300D03*
X16829600Y32528100D03*
X16326500Y35873600D03*
X15864700Y36896400D03*
M02*
