G04 #@! TF.GenerationSoftware,KiCad,Pcbnew,(6.0.9-0)*
G04 #@! TF.CreationDate,2022-11-06T22:18:11+09:00*
G04 #@! TF.ProjectId,MEZZ8,4d455a5a-382e-46b6-9963-61645f706362,A*
G04 #@! TF.SameCoordinates,PX5f5e100PY8f0d180*
G04 #@! TF.FileFunction,Copper,L1,Top*
G04 #@! TF.FilePolarity,Positive*
%FSLAX46Y46*%
G04 Gerber Fmt 4.6, Leading zero omitted, Abs format (unit mm)*
G04 Created by KiCad (PCBNEW (6.0.9-0)) date 2022-11-06 22:18:11*
%MOMM*%
%LPD*%
G01*
G04 APERTURE LIST*
G04 #@! TA.AperFunction,ComponentPad*
%ADD10C,1.600000*%
G04 #@! TD*
G04 #@! TA.AperFunction,ComponentPad*
%ADD11O,1.600000X1.600000*%
G04 #@! TD*
G04 #@! TA.AperFunction,ComponentPad*
%ADD12R,1.700000X1.700000*%
G04 #@! TD*
G04 #@! TA.AperFunction,ComponentPad*
%ADD13O,1.700000X1.700000*%
G04 #@! TD*
G04 #@! TA.AperFunction,ComponentPad*
%ADD14R,1.600000X1.600000*%
G04 #@! TD*
G04 #@! TA.AperFunction,ViaPad*
%ADD15C,0.605000*%
G04 #@! TD*
G04 #@! TA.AperFunction,Conductor*
%ADD16C,1.000000*%
G04 #@! TD*
G04 #@! TA.AperFunction,Conductor*
%ADD17C,0.152400*%
G04 #@! TD*
G04 APERTURE END LIST*
D10*
X30480000Y55245000D03*
D11*
X40640000Y55245000D03*
D12*
X37470000Y18415000D03*
D13*
X37470000Y20955000D03*
X37470000Y23495000D03*
X37470000Y26035000D03*
X37470000Y28575000D03*
X37470000Y31115000D03*
X37470000Y33655000D03*
X37470000Y36195000D03*
X37470000Y38735000D03*
X37470000Y41275000D03*
X37470000Y43815000D03*
X37470000Y46355000D03*
X37470000Y48895000D03*
X37470000Y51435000D03*
X27940000Y59055000D03*
X25400000Y59055000D03*
X22860000Y59055000D03*
X20320000Y59055000D03*
X17780000Y59055000D03*
D12*
X15240000Y59055000D03*
D10*
X9545000Y55245000D03*
X12045000Y55245000D03*
D14*
X13970000Y51435000D03*
D11*
X13970000Y48895000D03*
X13970000Y46355000D03*
X13970000Y43815000D03*
X13970000Y41275000D03*
X13970000Y38735000D03*
X13970000Y36195000D03*
X13970000Y33655000D03*
X13970000Y31115000D03*
X13970000Y28575000D03*
X13970000Y26035000D03*
X13970000Y23495000D03*
X13970000Y20955000D03*
X13970000Y18415000D03*
X13970000Y15875000D03*
X13970000Y13335000D03*
X13970000Y10795000D03*
X13970000Y8255000D03*
X13970000Y5715000D03*
X13970000Y3175000D03*
X29210000Y3175000D03*
X29210000Y5715000D03*
X29210000Y8255000D03*
X29210000Y10795000D03*
X29210000Y13335000D03*
X29210000Y15875000D03*
X29210000Y18415000D03*
X29210000Y20955000D03*
X29210000Y23495000D03*
X29210000Y26035000D03*
X29210000Y28575000D03*
X29210000Y31115000D03*
X29210000Y33655000D03*
X29210000Y36195000D03*
X29210000Y38735000D03*
X29210000Y41275000D03*
X29210000Y43815000D03*
X29210000Y46355000D03*
X29210000Y48895000D03*
X29210000Y51435000D03*
D12*
X5085000Y33655000D03*
D13*
X5085000Y36195000D03*
X5085000Y38735000D03*
X5085000Y41275000D03*
X5085000Y43815000D03*
X5085000Y46355000D03*
X5085000Y48895000D03*
X5085000Y51435000D03*
D12*
X11435000Y51435000D03*
D13*
X11435000Y48895000D03*
X11435000Y46355000D03*
X11435000Y43815000D03*
X11435000Y41275000D03*
X11435000Y38735000D03*
X11435000Y36195000D03*
X11435000Y33655000D03*
X11435000Y31115000D03*
X11435000Y28575000D03*
X11435000Y26035000D03*
X11435000Y23495000D03*
X11435000Y20955000D03*
X11435000Y18415000D03*
X11435000Y15875000D03*
X11435000Y13335000D03*
X11435000Y10795000D03*
X11435000Y8255000D03*
X11435000Y5715000D03*
X11435000Y3175000D03*
D12*
X31755000Y51435000D03*
D13*
X31755000Y48895000D03*
X31755000Y46355000D03*
X31755000Y43815000D03*
X31755000Y41275000D03*
X31755000Y38735000D03*
X31755000Y36195000D03*
X31755000Y33655000D03*
X31755000Y31115000D03*
X31755000Y28575000D03*
X31755000Y26035000D03*
X31755000Y23495000D03*
X31755000Y20955000D03*
X31755000Y18415000D03*
X31755000Y15875000D03*
X31755000Y13335000D03*
X31755000Y10795000D03*
X31755000Y8255000D03*
X31755000Y5715000D03*
X31755000Y3175000D03*
D15*
X19685000Y31750000D03*
X25400000Y28575000D03*
X26670000Y46355000D03*
X17780000Y13335000D03*
X17780000Y36195000D03*
X17145000Y46355000D03*
X1905000Y59055000D03*
X35560000Y51435000D03*
X40640000Y59055000D03*
X26670000Y51435000D03*
X26035000Y1905000D03*
X26670000Y40005000D03*
X33655000Y1905000D03*
X17780000Y1905000D03*
X26035000Y13335000D03*
X9525000Y1905000D03*
X17145000Y51435000D03*
X15864700Y36896400D03*
X16326500Y35873600D03*
X16829600Y32528100D03*
X17515600Y21775300D03*
X18046200Y23495000D03*
X18046200Y24765000D03*
X26499400Y21045600D03*
D16*
X13950000Y53340000D02*
X13970000Y53340000D01*
X12045000Y55245000D02*
X13950000Y53340000D01*
X13970000Y53340000D02*
X13970000Y51435000D01*
X9525000Y51435000D02*
X9525000Y52725000D01*
X9525000Y52725000D02*
X12045000Y55245000D01*
X15875000Y53340000D02*
X35565000Y53340000D01*
X11435000Y26035000D02*
X10160000Y26035000D01*
X37470000Y51435000D02*
X37470000Y48895000D01*
X13970000Y51435000D02*
X15875000Y53340000D01*
X9525000Y26670000D02*
X9525000Y51435000D01*
X10160000Y26035000D02*
X9525000Y26670000D01*
X35565000Y53340000D02*
X37470000Y51435000D01*
X9525000Y51435000D02*
X5085000Y51435000D01*
D17*
X15006400Y46796800D02*
X15006400Y15400300D01*
X13987100Y47816100D02*
X15006400Y46796800D01*
X13592800Y47816100D02*
X13987100Y47816100D01*
X11435000Y51435000D02*
X11435000Y50356100D01*
X11570000Y50356100D02*
X12513900Y49412200D01*
X11435000Y50356100D02*
X11570000Y50356100D01*
X15006400Y15400300D02*
X13970000Y14363900D01*
X12513900Y48895000D02*
X13592800Y47816100D01*
X12513900Y49412200D02*
X12513900Y48895000D01*
X13970000Y13335000D02*
X13970000Y14363900D01*
X14082100Y50273000D02*
X15311600Y49043500D01*
X13970000Y8255000D02*
X13970000Y9283900D01*
X13165100Y50273000D02*
X14082100Y50273000D01*
X12755000Y52234000D02*
X12755000Y50683100D01*
X12755000Y50683100D02*
X13165100Y50273000D01*
X15311600Y10625500D02*
X13970000Y9283900D01*
X11300100Y47433900D02*
X10356000Y48378000D01*
X15311600Y49043500D02*
X15311600Y10625500D01*
X11435000Y47433900D02*
X11300100Y47433900D01*
X11435000Y46355000D02*
X11435000Y47433900D01*
X10356000Y48378000D02*
X10356000Y52388700D01*
X12475000Y52514000D02*
X12755000Y52234000D01*
X10356000Y52388700D02*
X10481300Y52514000D01*
X10481300Y52514000D02*
X12475000Y52514000D01*
X15864700Y36896400D02*
X15788200Y36819900D01*
X13970000Y5715000D02*
X13970000Y6743900D01*
X15788200Y36819900D02*
X15788200Y8562100D01*
X15788200Y8562100D02*
X13970000Y6743900D01*
X16264500Y35811600D02*
X16264500Y6498400D01*
X13970000Y3175000D02*
X13970000Y4203900D01*
X16264500Y6498400D02*
X13970000Y4203900D01*
X16326500Y35873600D02*
X16264500Y35811600D01*
X13970000Y38735000D02*
X13970000Y37706100D01*
X11570000Y14413900D02*
X12513900Y15357800D01*
X11435000Y14413900D02*
X11570000Y14413900D01*
X12513900Y15357800D02*
X12513900Y36250000D01*
X11435000Y13335000D02*
X11435000Y14413900D01*
X12513900Y36250000D02*
X13970000Y37706100D01*
X12941100Y34137200D02*
X12941100Y8188200D01*
X11435000Y5715000D02*
X11435000Y6793900D01*
X13970000Y36195000D02*
X13970000Y35166100D01*
X11546800Y6793900D02*
X11435000Y6793900D01*
X12941100Y8188200D02*
X11546800Y6793900D01*
X13970000Y35166100D02*
X12941100Y34137200D01*
X13566500Y2122400D02*
X14447800Y2122400D01*
X14447800Y2122400D02*
X16829600Y4504200D01*
X11435000Y3175000D02*
X12513900Y3175000D01*
X16829600Y4504200D02*
X16829600Y32528100D01*
X12513900Y3175000D02*
X13566500Y2122400D01*
X17500000Y21790900D02*
X17500000Y34264000D01*
X30676100Y48904200D02*
X30676100Y49412200D01*
X31620000Y50356100D02*
X31755000Y50356100D01*
X28702000Y47625000D02*
X29396900Y47625000D01*
X30676100Y49412200D02*
X31620000Y50356100D01*
X28067000Y44831000D02*
X28067000Y46990000D01*
X17515600Y21775300D02*
X17500000Y21790900D01*
X28067000Y46990000D02*
X28702000Y47625000D01*
X31755000Y50356100D02*
X31755000Y51435000D01*
X29396900Y47625000D02*
X30676100Y48904200D01*
X17500000Y34264000D02*
X28067000Y44831000D01*
X31755000Y47816100D02*
X31755000Y48895000D01*
X18046200Y23495000D02*
X18789800Y24238600D01*
X18789800Y24238600D02*
X18789800Y34156800D01*
X31889900Y47816100D02*
X31755000Y47816100D01*
X32873500Y45937400D02*
X32873500Y46832500D01*
X18789800Y34156800D02*
X27178000Y42545000D01*
X27178000Y42545000D02*
X29467800Y42545000D01*
X30447200Y44069100D02*
X31463100Y45085000D01*
X32873500Y46832500D02*
X31889900Y47816100D01*
X32021100Y45085000D02*
X32873500Y45937400D01*
X30447200Y43524400D02*
X30447200Y44069100D01*
X31463100Y45085000D02*
X32021100Y45085000D01*
X29467800Y42545000D02*
X30447200Y43524400D01*
X18086600Y24805400D02*
X18086600Y34158700D01*
X30676100Y46355000D02*
X31755000Y46355000D01*
X18086600Y34158700D02*
X29204000Y45276100D01*
X29597200Y45276100D02*
X30676100Y46355000D01*
X18046200Y24765000D02*
X18086600Y24805400D01*
X29204000Y45276100D02*
X29597200Y45276100D01*
X32039100Y27284000D02*
X31431100Y27284000D01*
X30238900Y23012800D02*
X29210000Y21983900D01*
X29210000Y20955000D02*
X29210000Y21983900D01*
X31755000Y42736100D02*
X31889900Y42736100D01*
X31431100Y27284000D02*
X30238900Y26091800D01*
X30238900Y26091800D02*
X30238900Y23012800D01*
X31889900Y42736100D02*
X33215600Y41410400D01*
X31755000Y43815000D02*
X31755000Y42736100D01*
X33215600Y41410400D02*
X33215600Y28460500D01*
X33215600Y28460500D02*
X32039100Y27284000D01*
X30676100Y38744200D02*
X29396900Y37465000D01*
X31755000Y40196100D02*
X31620000Y40196100D01*
X31755000Y41275000D02*
X31755000Y40196100D01*
X26499400Y34947600D02*
X26499400Y21045600D01*
X31620000Y40196100D02*
X30676100Y39252200D01*
X30676100Y39252200D02*
X30676100Y38744200D01*
X29016800Y37465000D02*
X26499400Y34947600D01*
X29396900Y37465000D02*
X29016800Y37465000D01*
X32234300Y35111000D02*
X29171900Y35111000D01*
X31889900Y37656100D02*
X32889100Y36656900D01*
X31755000Y38735000D02*
X31755000Y37656100D01*
X32889100Y35765800D02*
X32234300Y35111000D01*
X29171900Y35111000D02*
X27554700Y33493800D01*
X30282300Y13773800D02*
X29210000Y14846100D01*
X27554700Y8438600D02*
X28816000Y7177300D01*
X30282300Y7797400D02*
X30282300Y13773800D01*
X32889100Y36656900D02*
X32889100Y35765800D01*
X31755000Y37656100D02*
X31889900Y37656100D01*
X27554700Y33493800D02*
X27554700Y8438600D01*
X29662200Y7177300D02*
X30282300Y7797400D01*
X29210000Y15875000D02*
X29210000Y14846100D01*
X28816000Y7177300D02*
X29662200Y7177300D01*
X31755000Y33655000D02*
X31755000Y32576100D01*
X30676100Y31632200D02*
X30676100Y31124200D01*
X29396900Y29845000D02*
X29016800Y29845000D01*
X28165100Y28993300D02*
X28165100Y12868800D01*
X28165100Y12868800D02*
X29210000Y11823900D01*
X29210000Y10795000D02*
X29210000Y11823900D01*
X30676100Y31124200D02*
X29396900Y29845000D01*
X29016800Y29845000D02*
X28165100Y28993300D01*
X31755000Y32576100D02*
X31620000Y32576100D01*
X31620000Y32576100D02*
X30676100Y31632200D01*
X29210000Y8255000D02*
X29210000Y9283900D01*
X29469800Y32385000D02*
X28986400Y32385000D01*
X30370900Y33286100D02*
X29469800Y32385000D01*
X30370900Y33800200D02*
X30370900Y33286100D01*
X27859900Y10634000D02*
X29210000Y9283900D01*
X32870000Y34088400D02*
X32190300Y34768100D01*
X31338800Y34768100D02*
X30370900Y33800200D01*
X31755000Y32193900D02*
X31889900Y32193900D01*
X27859900Y31258500D02*
X27859900Y10634000D01*
X31755000Y31115000D02*
X31755000Y32193900D01*
X32870000Y33174000D02*
X32870000Y34088400D01*
X31889900Y32193900D02*
X32870000Y33174000D01*
X32190300Y34768100D02*
X31338800Y34768100D01*
X28986400Y32385000D02*
X27859900Y31258500D01*
X31755000Y24956100D02*
X31620000Y24956100D01*
X29210000Y3175000D02*
X29210000Y4203900D01*
X31755000Y26035000D02*
X31755000Y24956100D01*
X30676100Y24012200D02*
X30676100Y5670000D01*
X31620000Y24956100D02*
X30676100Y24012200D01*
X30676100Y5670000D02*
X29210000Y4203900D01*
X13970000Y46355000D02*
X13970000Y45326100D01*
X11570000Y39813900D02*
X12513900Y40757800D01*
X12513900Y43870000D02*
X13970000Y45326100D01*
X12513900Y40757800D02*
X12513900Y43870000D01*
X11435000Y38735000D02*
X11435000Y39813900D01*
X11435000Y39813900D02*
X11570000Y39813900D01*
D16*
X37470000Y36195000D02*
X37470000Y33655000D01*
G04 #@! TA.AperFunction,Conductor*
G36*
X29210000Y52391880D02*
G01*
X29094074Y52381329D01*
X29036719Y52376110D01*
X29036716Y52376109D01*
X29030580Y52375551D01*
X29024674Y52373813D01*
X29024670Y52373812D01*
X28893453Y52335192D01*
X28851310Y52322789D01*
X28685702Y52236211D01*
X28540065Y52119115D01*
X28419945Y51975962D01*
X28416975Y51970559D01*
X28416974Y51970558D01*
X28362818Y51872049D01*
X28329918Y51812204D01*
X28273413Y51634078D01*
X28252582Y51448369D01*
X28268219Y51262151D01*
X28293974Y51172334D01*
X28304326Y51136234D01*
X28319729Y51082517D01*
X28405148Y50916308D01*
X28408971Y50911484D01*
X28408974Y50911480D01*
X28425439Y50890707D01*
X28521224Y50769857D01*
X28663535Y50648741D01*
X28668913Y50645735D01*
X28668915Y50645734D01*
X28745098Y50603157D01*
X28826661Y50557573D01*
X29004389Y50499826D01*
X29189947Y50477699D01*
X29196082Y50478171D01*
X29196085Y50478171D01*
X29210000Y50479242D01*
X29210000Y49851880D01*
X29094074Y49841329D01*
X29036719Y49836110D01*
X29036716Y49836109D01*
X29030580Y49835551D01*
X29024674Y49833813D01*
X29024670Y49833812D01*
X28893453Y49795192D01*
X28851310Y49782789D01*
X28685702Y49696211D01*
X28540065Y49579115D01*
X28419945Y49435962D01*
X28416975Y49430559D01*
X28416974Y49430558D01*
X28362818Y49332049D01*
X28329918Y49272204D01*
X28328057Y49266337D01*
X28328056Y49266335D01*
X28275492Y49100632D01*
X28273413Y49094078D01*
X28252582Y48908369D01*
X28253098Y48902225D01*
X28265106Y48759228D01*
X28268219Y48722151D01*
X28319729Y48542517D01*
X28405148Y48376308D01*
X28408971Y48371484D01*
X28408974Y48371480D01*
X28514815Y48237943D01*
X28521224Y48229857D01*
X28663535Y48108741D01*
X28668913Y48105735D01*
X28668915Y48105734D01*
X28702098Y48087189D01*
X28751804Y48036496D01*
X28766212Y47966977D01*
X28740749Y47900704D01*
X28683497Y47858718D01*
X28672744Y47855948D01*
X28665361Y47856335D01*
X28652997Y47851589D01*
X28645979Y47848896D01*
X28627035Y47843284D01*
X28606735Y47838969D01*
X28596021Y47831185D01*
X28591213Y47829044D01*
X28586799Y47826177D01*
X28574436Y47821432D01*
X28559765Y47806761D01*
X28544731Y47793920D01*
X28527942Y47781722D01*
X28521322Y47770255D01*
X28512459Y47760412D01*
X28512135Y47760704D01*
X28506945Y47753941D01*
X27911568Y47158565D01*
X27906784Y47154025D01*
X27877514Y47127670D01*
X27869074Y47108714D01*
X27859642Y47091342D01*
X27855551Y47085043D01*
X27855550Y47085041D01*
X27848339Y47073936D01*
X27846268Y47060857D01*
X27844381Y47055942D01*
X27843287Y47050796D01*
X27837900Y47038697D01*
X27837900Y47017947D01*
X27836349Y46998236D01*
X27833103Y46977742D01*
X27836530Y46964953D01*
X27837223Y46951725D01*
X27836787Y46951702D01*
X27837900Y46943250D01*
X27837900Y44978086D01*
X27817898Y44909965D01*
X27800995Y44888991D01*
X22534792Y39622789D01*
X17344578Y34432575D01*
X17339794Y34428034D01*
X17310514Y34401670D01*
X17302074Y34382714D01*
X17292642Y34365342D01*
X17288551Y34359043D01*
X17288550Y34359041D01*
X17281339Y34347936D01*
X17279268Y34334857D01*
X17277381Y34329942D01*
X17276287Y34324796D01*
X17270900Y34312697D01*
X17270900Y34291947D01*
X17269349Y34272236D01*
X17268434Y34266456D01*
X17266103Y34251742D01*
X17269530Y34238953D01*
X17270223Y34225725D01*
X17269787Y34225702D01*
X17270900Y34217250D01*
X17270900Y33477640D01*
X16493600Y33788560D01*
X16493600Y35371275D01*
X16513602Y35439396D01*
X16553669Y35478648D01*
X16620386Y35519612D01*
X16629660Y35529857D01*
X16701898Y35609665D01*
X16701899Y35609666D01*
X16707926Y35616325D01*
X16736988Y35676308D01*
X16760888Y35725639D01*
X16760888Y35725640D01*
X16764803Y35733720D01*
X16786446Y35862359D01*
X16786583Y35873600D01*
X16768090Y36002730D01*
X16759260Y36022151D01*
X16717815Y36113305D01*
X16717813Y36113308D01*
X16714098Y36121479D01*
X16628947Y36220302D01*
X16519483Y36291253D01*
X16394505Y36328629D01*
X16385529Y36328684D01*
X16385528Y36328684D01*
X16328128Y36329035D01*
X16264060Y36329426D01*
X16260456Y36328396D01*
X16192855Y36338574D01*
X16139509Y36385422D01*
X16119959Y36453674D01*
X16140412Y36521660D01*
X16158761Y36542253D01*
X16158586Y36542412D01*
X16240098Y36632465D01*
X16240099Y36632466D01*
X16246126Y36639125D01*
X16303003Y36756520D01*
X16324646Y36885159D01*
X16324783Y36896400D01*
X16319786Y36931292D01*
X16307563Y37016644D01*
X16307562Y37016647D01*
X16306290Y37025530D01*
X16302576Y37033699D01*
X16256015Y37136105D01*
X16256013Y37136108D01*
X16252298Y37144279D01*
X16167147Y37243102D01*
X16057683Y37314053D01*
X15932705Y37351429D01*
X15923729Y37351484D01*
X15923728Y37351484D01*
X15869657Y37351814D01*
X15802260Y37352226D01*
X15793630Y37349760D01*
X15793626Y37349759D01*
X15701324Y37323379D01*
X15630329Y37323891D01*
X15570882Y37362705D01*
X15541856Y37427498D01*
X15540700Y37444528D01*
X15540700Y49034198D01*
X15540873Y49040792D01*
X15542242Y49066914D01*
X15542935Y49080139D01*
X15537585Y49094078D01*
X15535496Y49099521D01*
X15529883Y49118469D01*
X15525569Y49138765D01*
X15517785Y49149479D01*
X15515644Y49154287D01*
X15512777Y49158701D01*
X15508032Y49171064D01*
X15493361Y49185735D01*
X15480520Y49200769D01*
X15476105Y49206846D01*
X15476104Y49206846D01*
X15468322Y49217558D01*
X15456855Y49224178D01*
X15447012Y49233041D01*
X15447304Y49233366D01*
X15440540Y49238556D01*
X15240000Y49439096D01*
X15240000Y51781660D01*
X16108535Y52650195D01*
X16170847Y52684221D01*
X16197630Y52687100D01*
X29210000Y52687100D01*
X29210000Y52391880D01*
G37*
G04 #@! TD.AperFunction*
G04 #@! TA.AperFunction,Conductor*
G36*
X19018900Y33588376D02*
G01*
X19018900Y34009714D01*
X19038902Y34077835D01*
X19055805Y34098809D01*
X27235991Y42278995D01*
X27298303Y42313021D01*
X27325086Y42315900D01*
X28291894Y42315900D01*
X19018900Y33588376D01*
G37*
G04 #@! TD.AperFunction*
G04 #@! TA.AperFunction,Conductor*
G36*
X30015931Y60979998D02*
G01*
X30036905Y60963095D01*
X31000000Y60000000D01*
X40947810Y60000000D01*
X41015931Y59979998D01*
X41036905Y59963095D01*
X41963095Y59036905D01*
X41997121Y58974593D01*
X42000000Y58947810D01*
X42000000Y16052190D01*
X41979998Y15984069D01*
X41963095Y15963095D01*
X41036905Y15036905D01*
X40974593Y15002879D01*
X40947810Y15000000D01*
X36000000Y15000000D01*
X35000000Y14000000D01*
X35000000Y1552190D01*
X34979998Y1484069D01*
X34963095Y1463095D01*
X34036905Y536905D01*
X33974593Y502879D01*
X33947810Y500000D01*
X9052190Y500000D01*
X8984069Y520002D01*
X8963095Y536905D01*
X8036905Y1463095D01*
X8002879Y1525407D01*
X8000000Y1552190D01*
X8000000Y10809070D01*
X10427345Y10809070D01*
X10443803Y10613081D01*
X10498015Y10424021D01*
X10500830Y10418544D01*
X10500831Y10418541D01*
X10585101Y10254569D01*
X10587916Y10249092D01*
X10591739Y10244268D01*
X10591742Y10244264D01*
X10644946Y10177138D01*
X10710083Y10094956D01*
X10714777Y10090962D01*
X10714777Y10090961D01*
X10840724Y9983772D01*
X10859862Y9967484D01*
X11031547Y9871533D01*
X11218600Y9810756D01*
X11413895Y9787468D01*
X11420030Y9787940D01*
X11420032Y9787940D01*
X11603852Y9802084D01*
X11603856Y9802085D01*
X11609994Y9802557D01*
X11799428Y9855448D01*
X11804932Y9858228D01*
X11804934Y9858229D01*
X11969480Y9941347D01*
X11969482Y9941348D01*
X11974981Y9944126D01*
X12129966Y10065214D01*
X12133992Y10069878D01*
X12133995Y10069881D01*
X12254451Y10209431D01*
X12254452Y10209433D01*
X12258480Y10214099D01*
X12355628Y10385110D01*
X12417710Y10571734D01*
X12442360Y10766862D01*
X12442753Y10795000D01*
X12423561Y10990740D01*
X12366714Y11179025D01*
X12320546Y11265854D01*
X12277273Y11347240D01*
X12277271Y11347243D01*
X12274379Y11352682D01*
X12270489Y11357452D01*
X12270486Y11357456D01*
X12153967Y11500322D01*
X12153964Y11500325D01*
X12150072Y11505097D01*
X12143791Y11510293D01*
X12003278Y11626536D01*
X12003274Y11626538D01*
X11998528Y11630465D01*
X11825520Y11724010D01*
X11637637Y11782170D01*
X11631519Y11782813D01*
X11631514Y11782814D01*
X11448164Y11802084D01*
X11448162Y11802084D01*
X11442035Y11802728D01*
X11359199Y11795190D01*
X11252305Y11785462D01*
X11252302Y11785461D01*
X11246166Y11784903D01*
X11057489Y11729372D01*
X10883192Y11638252D01*
X10729912Y11515012D01*
X10725954Y11510295D01*
X10725952Y11510293D01*
X10643638Y11412195D01*
X10603489Y11364347D01*
X10508739Y11191996D01*
X10506878Y11186129D01*
X10506877Y11186127D01*
X10500929Y11167376D01*
X10449269Y11004524D01*
X10427345Y10809070D01*
X8000000Y10809070D01*
X8000000Y29000000D01*
X7000000Y30000000D01*
X1552190Y30000000D01*
X1484069Y30020002D01*
X1463095Y30036905D01*
X536905Y30963095D01*
X502879Y31025407D01*
X500000Y31052190D01*
X500000Y32760331D01*
X3727001Y32760331D01*
X3727371Y32753510D01*
X3732895Y32702648D01*
X3736521Y32687396D01*
X3781676Y32566946D01*
X3790214Y32551351D01*
X3866715Y32449276D01*
X3879276Y32436715D01*
X3981351Y32360214D01*
X3996946Y32351676D01*
X4117394Y32306522D01*
X4132649Y32302895D01*
X4183514Y32297369D01*
X4190328Y32297000D01*
X4812885Y32297000D01*
X4828124Y32301475D01*
X4829329Y32302865D01*
X4831000Y32310548D01*
X4831000Y32315116D01*
X5339000Y32315116D01*
X5343475Y32299877D01*
X5344865Y32298672D01*
X5352548Y32297001D01*
X5979669Y32297001D01*
X5986490Y32297371D01*
X6037352Y32302895D01*
X6052604Y32306521D01*
X6173054Y32351676D01*
X6188649Y32360214D01*
X6290724Y32436715D01*
X6303285Y32449276D01*
X6379786Y32551351D01*
X6388324Y32566946D01*
X6433478Y32687394D01*
X6437105Y32702649D01*
X6442631Y32753514D01*
X6443000Y32760328D01*
X6443000Y33382885D01*
X6438525Y33398124D01*
X6437135Y33399329D01*
X6429452Y33401000D01*
X5357115Y33401000D01*
X5341876Y33396525D01*
X5340671Y33395135D01*
X5339000Y33387452D01*
X5339000Y32315116D01*
X4831000Y32315116D01*
X4831000Y33382885D01*
X4826525Y33398124D01*
X4825135Y33399329D01*
X4817452Y33401000D01*
X3745116Y33401000D01*
X3729877Y33396525D01*
X3728672Y33395135D01*
X3727001Y33387452D01*
X3727001Y32760331D01*
X500000Y32760331D01*
X500000Y33927115D01*
X3727000Y33927115D01*
X3731475Y33911876D01*
X3732865Y33910671D01*
X3740548Y33909000D01*
X6424884Y33909000D01*
X6440123Y33913475D01*
X6441328Y33914865D01*
X6442999Y33922548D01*
X6442999Y34549669D01*
X6442629Y34556490D01*
X6437105Y34607352D01*
X6433479Y34622604D01*
X6388324Y34743054D01*
X6379786Y34758649D01*
X6303285Y34860724D01*
X6290724Y34873285D01*
X6188649Y34949786D01*
X6173054Y34958324D01*
X6052606Y35003478D01*
X6037351Y35007105D01*
X5986486Y35012631D01*
X5979672Y35013000D01*
X5495971Y35013000D01*
X5427850Y35033002D01*
X5381357Y35086658D01*
X5371253Y35156932D01*
X5400747Y35221512D01*
X5448638Y35255228D01*
X5449428Y35255448D01*
X5454930Y35258227D01*
X5454932Y35258228D01*
X5619480Y35341347D01*
X5619482Y35341348D01*
X5624981Y35344126D01*
X5779966Y35465214D01*
X5783992Y35469878D01*
X5783995Y35469881D01*
X5904451Y35609431D01*
X5904452Y35609433D01*
X5908480Y35614099D01*
X6005628Y35785110D01*
X6067710Y35971734D01*
X6092360Y36166862D01*
X6092753Y36195000D01*
X6073561Y36390740D01*
X6016714Y36579025D01*
X5924379Y36752682D01*
X5920489Y36757452D01*
X5920486Y36757456D01*
X5803967Y36900322D01*
X5803964Y36900325D01*
X5800072Y36905097D01*
X5788087Y36915012D01*
X5653278Y37026536D01*
X5653274Y37026538D01*
X5648528Y37030465D01*
X5475520Y37124010D01*
X5287637Y37182170D01*
X5281519Y37182813D01*
X5281514Y37182814D01*
X5098164Y37202084D01*
X5098162Y37202084D01*
X5092035Y37202728D01*
X5009199Y37195190D01*
X4902305Y37185462D01*
X4902302Y37185461D01*
X4896166Y37184903D01*
X4707489Y37129372D01*
X4533192Y37038252D01*
X4379912Y36915012D01*
X4375954Y36910295D01*
X4375952Y36910293D01*
X4293638Y36812195D01*
X4253489Y36764347D01*
X4158739Y36591996D01*
X4156878Y36586129D01*
X4156877Y36586127D01*
X4143010Y36542412D01*
X4099269Y36404524D01*
X4077345Y36209070D01*
X4093803Y36013081D01*
X4148015Y35824021D01*
X4150830Y35818544D01*
X4150831Y35818541D01*
X4189873Y35742573D01*
X4237916Y35649092D01*
X4241739Y35644268D01*
X4241742Y35644264D01*
X4335587Y35525862D01*
X4360083Y35494956D01*
X4364777Y35490962D01*
X4364777Y35490961D01*
X4490724Y35383772D01*
X4509862Y35367484D01*
X4515240Y35364478D01*
X4515242Y35364477D01*
X4544868Y35347920D01*
X4681547Y35271533D01*
X4708228Y35262864D01*
X4720637Y35258832D01*
X4779242Y35218758D01*
X4806879Y35153361D01*
X4794772Y35083405D01*
X4746766Y35031099D01*
X4681700Y35012999D01*
X4190331Y35012999D01*
X4183510Y35012629D01*
X4132648Y35007105D01*
X4117396Y35003479D01*
X3996946Y34958324D01*
X3981351Y34949786D01*
X3879276Y34873285D01*
X3866715Y34860724D01*
X3790214Y34758649D01*
X3781676Y34743054D01*
X3736522Y34622606D01*
X3732895Y34607351D01*
X3727369Y34556486D01*
X3727000Y34549672D01*
X3727000Y33927115D01*
X500000Y33927115D01*
X500000Y38749070D01*
X4077345Y38749070D01*
X4080772Y38708265D01*
X4093158Y38560766D01*
X4093803Y38553081D01*
X4148015Y38364021D01*
X4150830Y38358544D01*
X4150831Y38358541D01*
X4218512Y38226848D01*
X4237916Y38189092D01*
X4241739Y38184268D01*
X4241742Y38184264D01*
X4265651Y38154099D01*
X4360083Y38034956D01*
X4364777Y38030962D01*
X4364777Y38030961D01*
X4490724Y37923772D01*
X4509862Y37907484D01*
X4681547Y37811533D01*
X4868600Y37750756D01*
X5063895Y37727468D01*
X5070030Y37727940D01*
X5070032Y37727940D01*
X5253852Y37742084D01*
X5253856Y37742085D01*
X5259994Y37742557D01*
X5449428Y37795448D01*
X5454932Y37798228D01*
X5454934Y37798229D01*
X5619480Y37881347D01*
X5619482Y37881348D01*
X5624981Y37884126D01*
X5779966Y38005214D01*
X5783992Y38009878D01*
X5783995Y38009881D01*
X5904451Y38149431D01*
X5904452Y38149433D01*
X5908480Y38154099D01*
X6005628Y38325110D01*
X6067710Y38511734D01*
X6092360Y38706862D01*
X6092598Y38723907D01*
X6092704Y38731477D01*
X6092704Y38731481D01*
X6092753Y38735000D01*
X6073561Y38930740D01*
X6016714Y39119025D01*
X5961941Y39222039D01*
X5927273Y39287240D01*
X5927271Y39287243D01*
X5924379Y39292682D01*
X5920489Y39297452D01*
X5920486Y39297456D01*
X5803967Y39440322D01*
X5803964Y39440325D01*
X5800072Y39445097D01*
X5788087Y39455012D01*
X5653278Y39566536D01*
X5653274Y39566538D01*
X5648528Y39570465D01*
X5475520Y39664010D01*
X5287637Y39722170D01*
X5281519Y39722813D01*
X5281514Y39722814D01*
X5098164Y39742084D01*
X5098162Y39742084D01*
X5092035Y39742728D01*
X5009199Y39735190D01*
X4902305Y39725462D01*
X4902302Y39725461D01*
X4896166Y39724903D01*
X4707489Y39669372D01*
X4533192Y39578252D01*
X4528392Y39574392D01*
X4528391Y39574392D01*
X4527152Y39573396D01*
X4379912Y39455012D01*
X4375954Y39450295D01*
X4375952Y39450293D01*
X4325251Y39389870D01*
X4253489Y39304347D01*
X4158739Y39131996D01*
X4156878Y39126129D01*
X4156877Y39126127D01*
X4150599Y39106335D01*
X4099269Y38944524D01*
X4077345Y38749070D01*
X500000Y38749070D01*
X500000Y41289070D01*
X4077345Y41289070D01*
X4080772Y41248265D01*
X4093158Y41100766D01*
X4093803Y41093081D01*
X4148015Y40904021D01*
X4150830Y40898544D01*
X4150831Y40898541D01*
X4216862Y40770058D01*
X4237916Y40729092D01*
X4241739Y40724268D01*
X4241742Y40724264D01*
X4353925Y40582725D01*
X4360083Y40574956D01*
X4364777Y40570962D01*
X4364777Y40570961D01*
X4490724Y40463772D01*
X4509862Y40447484D01*
X4681547Y40351533D01*
X4868600Y40290756D01*
X5063895Y40267468D01*
X5070030Y40267940D01*
X5070032Y40267940D01*
X5253852Y40282084D01*
X5253856Y40282085D01*
X5259994Y40282557D01*
X5449428Y40335448D01*
X5454932Y40338228D01*
X5454934Y40338229D01*
X5619480Y40421347D01*
X5619482Y40421348D01*
X5624981Y40424126D01*
X5779966Y40545214D01*
X5783992Y40549878D01*
X5783995Y40549881D01*
X5904451Y40689431D01*
X5904452Y40689433D01*
X5908480Y40694099D01*
X5917004Y40709103D01*
X5961801Y40787961D01*
X6005628Y40865110D01*
X6067710Y41051734D01*
X6092360Y41246862D01*
X6092753Y41275000D01*
X6073561Y41470740D01*
X6016714Y41659025D01*
X5934800Y41813083D01*
X5927273Y41827240D01*
X5927271Y41827243D01*
X5924379Y41832682D01*
X5920489Y41837452D01*
X5920486Y41837456D01*
X5803967Y41980322D01*
X5803964Y41980325D01*
X5800072Y41985097D01*
X5788087Y41995012D01*
X5653278Y42106536D01*
X5653274Y42106538D01*
X5648528Y42110465D01*
X5475520Y42204010D01*
X5287637Y42262170D01*
X5281519Y42262813D01*
X5281514Y42262814D01*
X5098164Y42282084D01*
X5098162Y42282084D01*
X5092035Y42282728D01*
X5009199Y42275190D01*
X4902305Y42265462D01*
X4902302Y42265461D01*
X4896166Y42264903D01*
X4707489Y42209372D01*
X4533192Y42118252D01*
X4379912Y41995012D01*
X4375954Y41990295D01*
X4375952Y41990293D01*
X4293638Y41892195D01*
X4253489Y41844347D01*
X4158739Y41671996D01*
X4156878Y41666129D01*
X4156877Y41666127D01*
X4150599Y41646335D01*
X4099269Y41484524D01*
X4077345Y41289070D01*
X500000Y41289070D01*
X500000Y43829070D01*
X4077345Y43829070D01*
X4093803Y43633081D01*
X4095502Y43627156D01*
X4143786Y43458771D01*
X4148015Y43444021D01*
X4150830Y43438544D01*
X4150831Y43438541D01*
X4177458Y43386730D01*
X4237916Y43269092D01*
X4241739Y43264268D01*
X4241742Y43264264D01*
X4265651Y43234099D01*
X4360083Y43114956D01*
X4364777Y43110962D01*
X4364777Y43110961D01*
X4490724Y43003772D01*
X4509862Y42987484D01*
X4515240Y42984478D01*
X4515242Y42984477D01*
X4580788Y42947845D01*
X4681547Y42891533D01*
X4868600Y42830756D01*
X5063895Y42807468D01*
X5070030Y42807940D01*
X5070032Y42807940D01*
X5253852Y42822084D01*
X5253856Y42822085D01*
X5259994Y42822557D01*
X5449428Y42875448D01*
X5454932Y42878228D01*
X5454934Y42878229D01*
X5619480Y42961347D01*
X5619482Y42961348D01*
X5624981Y42964126D01*
X5779966Y43085214D01*
X5783992Y43089878D01*
X5783995Y43089881D01*
X5904451Y43229431D01*
X5904452Y43229433D01*
X5908480Y43234099D01*
X6005628Y43405110D01*
X6067710Y43591734D01*
X6092360Y43786862D01*
X6092753Y43815000D01*
X6073561Y44010740D01*
X6016714Y44199025D01*
X5948932Y44326505D01*
X5927273Y44367240D01*
X5927270Y44367244D01*
X5924379Y44372682D01*
X5920489Y44377452D01*
X5920486Y44377456D01*
X5803967Y44520322D01*
X5803964Y44520325D01*
X5800072Y44525097D01*
X5788087Y44535012D01*
X5653278Y44646536D01*
X5653274Y44646538D01*
X5648528Y44650465D01*
X5475520Y44744010D01*
X5287637Y44802170D01*
X5281519Y44802813D01*
X5281514Y44802814D01*
X5098164Y44822084D01*
X5098162Y44822084D01*
X5092035Y44822728D01*
X5009199Y44815190D01*
X4902305Y44805462D01*
X4902302Y44805461D01*
X4896166Y44804903D01*
X4707489Y44749372D01*
X4533192Y44658252D01*
X4379912Y44535012D01*
X4375954Y44530295D01*
X4375952Y44530293D01*
X4293638Y44432195D01*
X4253489Y44384347D01*
X4158739Y44211996D01*
X4156878Y44206129D01*
X4156877Y44206127D01*
X4147429Y44176344D01*
X4099269Y44024524D01*
X4077345Y43829070D01*
X500000Y43829070D01*
X500000Y46369070D01*
X4077345Y46369070D01*
X4093803Y46173081D01*
X4148015Y45984021D01*
X4150830Y45978544D01*
X4150831Y45978541D01*
X4232986Y45818684D01*
X4237916Y45809092D01*
X4241739Y45804268D01*
X4241742Y45804264D01*
X4303232Y45726684D01*
X4360083Y45654956D01*
X4364777Y45650962D01*
X4364777Y45650961D01*
X4490724Y45543772D01*
X4509862Y45527484D01*
X4681547Y45431533D01*
X4868600Y45370756D01*
X5063895Y45347468D01*
X5070030Y45347940D01*
X5070032Y45347940D01*
X5253852Y45362084D01*
X5253856Y45362085D01*
X5259994Y45362557D01*
X5449428Y45415448D01*
X5454932Y45418228D01*
X5454934Y45418229D01*
X5619480Y45501347D01*
X5619482Y45501348D01*
X5624981Y45504126D01*
X5779966Y45625214D01*
X5783992Y45629878D01*
X5783995Y45629881D01*
X5904451Y45769431D01*
X5904452Y45769433D01*
X5908480Y45774099D01*
X6005628Y45945110D01*
X6067710Y46131734D01*
X6092360Y46326862D01*
X6092753Y46355000D01*
X6073561Y46550740D01*
X6016714Y46739025D01*
X5936143Y46890558D01*
X5927273Y46907240D01*
X5927271Y46907243D01*
X5924379Y46912682D01*
X5920489Y46917452D01*
X5920486Y46917456D01*
X5803967Y47060322D01*
X5803964Y47060325D01*
X5800072Y47065097D01*
X5793791Y47070293D01*
X5653278Y47186536D01*
X5653274Y47186538D01*
X5648528Y47190465D01*
X5475520Y47284010D01*
X5287637Y47342170D01*
X5281519Y47342813D01*
X5281514Y47342814D01*
X5098164Y47362084D01*
X5098162Y47362084D01*
X5092035Y47362728D01*
X5009199Y47355190D01*
X4902305Y47345462D01*
X4902302Y47345461D01*
X4896166Y47344903D01*
X4707489Y47289372D01*
X4533192Y47198252D01*
X4379912Y47075012D01*
X4375954Y47070295D01*
X4375952Y47070293D01*
X4335737Y47022366D01*
X4253489Y46924347D01*
X4158739Y46751996D01*
X4156878Y46746129D01*
X4156877Y46746127D01*
X4150599Y46726335D01*
X4099269Y46564524D01*
X4077345Y46369070D01*
X500000Y46369070D01*
X500000Y48909070D01*
X4077345Y48909070D01*
X4093803Y48713081D01*
X4095502Y48707156D01*
X4139154Y48554924D01*
X4148015Y48524021D01*
X4150830Y48518544D01*
X4150831Y48518541D01*
X4186940Y48448281D01*
X4237916Y48349092D01*
X4241739Y48344268D01*
X4241742Y48344264D01*
X4352961Y48203942D01*
X4360083Y48194956D01*
X4364777Y48190962D01*
X4364777Y48190961D01*
X4490724Y48083772D01*
X4509862Y48067484D01*
X4515240Y48064478D01*
X4515242Y48064477D01*
X4556629Y48041347D01*
X4681547Y47971533D01*
X4868600Y47910756D01*
X5063895Y47887468D01*
X5070030Y47887940D01*
X5070032Y47887940D01*
X5253852Y47902084D01*
X5253856Y47902085D01*
X5259994Y47902557D01*
X5449428Y47955448D01*
X5454932Y47958228D01*
X5454934Y47958229D01*
X5619480Y48041347D01*
X5619482Y48041348D01*
X5624981Y48044126D01*
X5779966Y48165214D01*
X5783992Y48169878D01*
X5783995Y48169881D01*
X5904451Y48309431D01*
X5904452Y48309433D01*
X5908480Y48314099D01*
X6005628Y48485110D01*
X6067710Y48671734D01*
X6092360Y48866862D01*
X6092561Y48881278D01*
X6092704Y48891477D01*
X6092704Y48891481D01*
X6092753Y48895000D01*
X6073561Y49090740D01*
X6016714Y49279025D01*
X5961941Y49382039D01*
X5927273Y49447240D01*
X5927271Y49447243D01*
X5924379Y49452682D01*
X5920489Y49457452D01*
X5920486Y49457456D01*
X5803967Y49600322D01*
X5803964Y49600325D01*
X5800072Y49605097D01*
X5788087Y49615012D01*
X5653278Y49726536D01*
X5653274Y49726538D01*
X5648528Y49730465D01*
X5475520Y49824010D01*
X5287637Y49882170D01*
X5281519Y49882813D01*
X5281514Y49882814D01*
X5098164Y49902084D01*
X5098162Y49902084D01*
X5092035Y49902728D01*
X5009199Y49895190D01*
X4902305Y49885462D01*
X4902302Y49885461D01*
X4896166Y49884903D01*
X4707489Y49829372D01*
X4533192Y49738252D01*
X4379912Y49615012D01*
X4375954Y49610295D01*
X4375952Y49610293D01*
X4329082Y49554435D01*
X4253489Y49464347D01*
X4158739Y49291996D01*
X4156878Y49286129D01*
X4156877Y49286127D01*
X4150599Y49266335D01*
X4099269Y49104524D01*
X4077345Y48909070D01*
X500000Y48909070D01*
X500000Y51449070D01*
X4077345Y51449070D01*
X4093803Y51253081D01*
X4148015Y51064021D01*
X4150830Y51058544D01*
X4150831Y51058541D01*
X4221114Y50921785D01*
X4237916Y50889092D01*
X4241739Y50884268D01*
X4241742Y50884264D01*
X4352125Y50744996D01*
X4360083Y50734956D01*
X4364777Y50730962D01*
X4364777Y50730961D01*
X4495223Y50619943D01*
X4509862Y50607484D01*
X4515240Y50604478D01*
X4515242Y50604477D01*
X4571850Y50572840D01*
X4681547Y50511533D01*
X4868600Y50450756D01*
X5063895Y50427468D01*
X5070030Y50427940D01*
X5070032Y50427940D01*
X5253852Y50442084D01*
X5253856Y50442085D01*
X5259994Y50442557D01*
X5449428Y50495448D01*
X5454932Y50498228D01*
X5454934Y50498229D01*
X5619480Y50581347D01*
X5619482Y50581348D01*
X5624981Y50584126D01*
X5779966Y50705214D01*
X5783996Y50709882D01*
X5808638Y50738431D01*
X5868291Y50776928D01*
X5904020Y50782100D01*
X8746100Y50782100D01*
X8814221Y50762098D01*
X8860714Y50708442D01*
X8872100Y50656100D01*
X8872100Y26751312D01*
X8871548Y26739610D01*
X8869832Y26731931D01*
X8870081Y26724009D01*
X8872038Y26661728D01*
X8872100Y26657771D01*
X8872100Y26628925D01*
X8872645Y26624612D01*
X8873577Y26612779D01*
X8875013Y26567052D01*
X8880923Y26546708D01*
X8884932Y26527351D01*
X8887586Y26506340D01*
X8890504Y26498971D01*
X8904424Y26463811D01*
X8908268Y26452584D01*
X8921035Y26408641D01*
X8925066Y26401825D01*
X8925070Y26401816D01*
X8931818Y26390407D01*
X8940518Y26372648D01*
X8945391Y26360339D01*
X8945394Y26360334D01*
X8948312Y26352963D01*
X8952973Y26346548D01*
X8975202Y26315952D01*
X8981717Y26306035D01*
X9005008Y26266652D01*
X9019983Y26251677D01*
X9032823Y26236644D01*
X9045274Y26219507D01*
X9051378Y26214457D01*
X9051383Y26214452D01*
X9080531Y26190339D01*
X9089311Y26182349D01*
X9640827Y25630833D01*
X9648717Y25622163D01*
X9652934Y25615518D01*
X9658711Y25610093D01*
X9704149Y25567424D01*
X9706991Y25564669D01*
X9727375Y25544285D01*
X9730818Y25541614D01*
X9739833Y25533914D01*
X9767407Y25508020D01*
X9767411Y25508017D01*
X9773185Y25502595D01*
X9780130Y25498777D01*
X9780134Y25498774D01*
X9791746Y25492390D01*
X9808267Y25481538D01*
X9818737Y25473417D01*
X9818741Y25473415D01*
X9825006Y25468555D01*
X9832283Y25465406D01*
X9866996Y25450384D01*
X9877641Y25445169D01*
X9917741Y25423124D01*
X9925416Y25421153D01*
X9925420Y25421152D01*
X9938256Y25417857D01*
X9956956Y25411455D01*
X9976399Y25403041D01*
X9998547Y25399533D01*
X10021585Y25395884D01*
X10033206Y25393477D01*
X10069839Y25384072D01*
X10077520Y25382100D01*
X10098701Y25382100D01*
X10118411Y25380549D01*
X10139329Y25377236D01*
X10184875Y25381541D01*
X10196732Y25382100D01*
X10611909Y25382100D01*
X10680030Y25362098D01*
X10702547Y25343626D01*
X10706252Y25339790D01*
X10710083Y25334956D01*
X10859862Y25207484D01*
X10865240Y25204478D01*
X10865242Y25204477D01*
X10894868Y25187920D01*
X11031547Y25111533D01*
X11218600Y25050756D01*
X11413895Y25027468D01*
X11420030Y25027940D01*
X11420032Y25027940D01*
X11603852Y25042084D01*
X11603856Y25042085D01*
X11609994Y25042557D01*
X11799428Y25095448D01*
X11804932Y25098228D01*
X11804934Y25098229D01*
X11969480Y25181347D01*
X11969482Y25181348D01*
X11974981Y25184126D01*
X12081226Y25267134D01*
X12147221Y25293312D01*
X12216891Y25279655D01*
X12268118Y25230499D01*
X12284800Y25167845D01*
X12284800Y24361404D01*
X12264798Y24293283D01*
X12211142Y24246790D01*
X12140868Y24236686D01*
X12078485Y24264319D01*
X12003278Y24326536D01*
X12003274Y24326538D01*
X11998528Y24330465D01*
X11825520Y24424010D01*
X11637637Y24482170D01*
X11631519Y24482813D01*
X11631514Y24482814D01*
X11448164Y24502084D01*
X11448162Y24502084D01*
X11442035Y24502728D01*
X11359199Y24495190D01*
X11252305Y24485462D01*
X11252302Y24485461D01*
X11246166Y24484903D01*
X11057489Y24429372D01*
X10883192Y24338252D01*
X10729912Y24215012D01*
X10725954Y24210295D01*
X10725952Y24210293D01*
X10679273Y24154663D01*
X10603489Y24064347D01*
X10508739Y23891996D01*
X10506878Y23886129D01*
X10506877Y23886127D01*
X10487156Y23823958D01*
X10449269Y23704524D01*
X10427345Y23509070D01*
X10443803Y23313081D01*
X10445502Y23307156D01*
X10489987Y23152019D01*
X10498015Y23124021D01*
X10500830Y23118544D01*
X10500831Y23118541D01*
X10582089Y22960430D01*
X10587916Y22949092D01*
X10591739Y22944268D01*
X10591742Y22944264D01*
X10669182Y22846560D01*
X10710083Y22794956D01*
X10714777Y22790962D01*
X10714777Y22790961D01*
X10840724Y22683772D01*
X10859862Y22667484D01*
X11031547Y22571533D01*
X11218600Y22510756D01*
X11413895Y22487468D01*
X11420030Y22487940D01*
X11420032Y22487940D01*
X11603852Y22502084D01*
X11603856Y22502085D01*
X11609994Y22502557D01*
X11799428Y22555448D01*
X11804932Y22558228D01*
X11804934Y22558229D01*
X11969480Y22641347D01*
X11969482Y22641348D01*
X11974981Y22644126D01*
X12081226Y22727134D01*
X12147221Y22753312D01*
X12216891Y22739655D01*
X12268118Y22690499D01*
X12284800Y22627845D01*
X12284800Y21821404D01*
X12264798Y21753283D01*
X12211142Y21706790D01*
X12140868Y21696686D01*
X12078485Y21724319D01*
X12003278Y21786536D01*
X12003274Y21786538D01*
X11998528Y21790465D01*
X11825520Y21884010D01*
X11637637Y21942170D01*
X11631519Y21942813D01*
X11631514Y21942814D01*
X11448164Y21962084D01*
X11448162Y21962084D01*
X11442035Y21962728D01*
X11359199Y21955190D01*
X11252305Y21945462D01*
X11252302Y21945461D01*
X11246166Y21944903D01*
X11057489Y21889372D01*
X10883192Y21798252D01*
X10878392Y21794392D01*
X10878391Y21794392D01*
X10854645Y21775300D01*
X10729912Y21675012D01*
X10725954Y21670295D01*
X10725952Y21670293D01*
X10686585Y21623377D01*
X10603489Y21524347D01*
X10508739Y21351996D01*
X10506878Y21346129D01*
X10506877Y21346127D01*
X10491322Y21297092D01*
X10449269Y21164524D01*
X10427345Y20969070D01*
X10430772Y20928265D01*
X10441335Y20802475D01*
X10443803Y20773081D01*
X10445502Y20767156D01*
X10486736Y20623357D01*
X10498015Y20584021D01*
X10500830Y20578544D01*
X10500831Y20578541D01*
X10582089Y20420430D01*
X10587916Y20409092D01*
X10591739Y20404268D01*
X10591742Y20404264D01*
X10703925Y20262725D01*
X10710083Y20254956D01*
X10714777Y20250962D01*
X10714777Y20250961D01*
X10840724Y20143772D01*
X10859862Y20127484D01*
X11031547Y20031533D01*
X11218600Y19970756D01*
X11413895Y19947468D01*
X11420030Y19947940D01*
X11420032Y19947940D01*
X11603852Y19962084D01*
X11603856Y19962085D01*
X11609994Y19962557D01*
X11799428Y20015448D01*
X11804932Y20018228D01*
X11804934Y20018229D01*
X11969480Y20101347D01*
X11969482Y20101348D01*
X11974981Y20104126D01*
X12081226Y20187134D01*
X12147221Y20213312D01*
X12216891Y20199655D01*
X12268118Y20150499D01*
X12284800Y20087845D01*
X12284800Y19281404D01*
X12264798Y19213283D01*
X12211142Y19166790D01*
X12140868Y19156686D01*
X12078485Y19184319D01*
X12003278Y19246536D01*
X12003274Y19246538D01*
X11998528Y19250465D01*
X11825520Y19344010D01*
X11637637Y19402170D01*
X11631519Y19402813D01*
X11631514Y19402814D01*
X11448164Y19422084D01*
X11448162Y19422084D01*
X11442035Y19422728D01*
X11359199Y19415190D01*
X11252305Y19405462D01*
X11252302Y19405461D01*
X11246166Y19404903D01*
X11057489Y19349372D01*
X10883192Y19258252D01*
X10729912Y19135012D01*
X10725954Y19130295D01*
X10725952Y19130293D01*
X10643638Y19032195D01*
X10603489Y18984347D01*
X10508739Y18811996D01*
X10506878Y18806129D01*
X10506877Y18806127D01*
X10504624Y18799025D01*
X10449269Y18624524D01*
X10427345Y18429070D01*
X10443803Y18233081D01*
X10445502Y18227156D01*
X10465297Y18158124D01*
X10498015Y18044021D01*
X10500830Y18038544D01*
X10500831Y18038541D01*
X10582089Y17880430D01*
X10587916Y17869092D01*
X10591739Y17864268D01*
X10591742Y17864264D01*
X10703925Y17722725D01*
X10710083Y17714956D01*
X10714777Y17710962D01*
X10714777Y17710961D01*
X10840724Y17603772D01*
X10859862Y17587484D01*
X11031547Y17491533D01*
X11218600Y17430756D01*
X11413895Y17407468D01*
X11420030Y17407940D01*
X11420032Y17407940D01*
X11603852Y17422084D01*
X11603856Y17422085D01*
X11609994Y17422557D01*
X11799428Y17475448D01*
X11804932Y17478228D01*
X11804934Y17478229D01*
X11969480Y17561347D01*
X11969482Y17561348D01*
X11974981Y17564126D01*
X12081226Y17647134D01*
X12147221Y17673312D01*
X12216891Y17659655D01*
X12268118Y17610499D01*
X12284800Y17547845D01*
X12284800Y16741404D01*
X12264798Y16673283D01*
X12211142Y16626790D01*
X12140868Y16616686D01*
X12078485Y16644319D01*
X12003278Y16706536D01*
X12003274Y16706538D01*
X11998528Y16710465D01*
X11825520Y16804010D01*
X11637637Y16862170D01*
X11631519Y16862813D01*
X11631514Y16862814D01*
X11448164Y16882084D01*
X11448162Y16882084D01*
X11442035Y16882728D01*
X11359199Y16875190D01*
X11252305Y16865462D01*
X11252302Y16865461D01*
X11246166Y16864903D01*
X11057489Y16809372D01*
X10883192Y16718252D01*
X10729912Y16595012D01*
X10725954Y16590295D01*
X10725952Y16590293D01*
X10643638Y16492195D01*
X10603489Y16444347D01*
X10508739Y16271996D01*
X10506878Y16266129D01*
X10506877Y16266127D01*
X10504624Y16259025D01*
X10449269Y16084524D01*
X10427345Y15889070D01*
X10443803Y15693081D01*
X10498015Y15504021D01*
X10500830Y15498544D01*
X10500831Y15498541D01*
X10584034Y15336646D01*
X10587916Y15329092D01*
X10591739Y15324268D01*
X10591742Y15324264D01*
X10703925Y15182725D01*
X10710083Y15174956D01*
X10714777Y15170962D01*
X10714777Y15170961D01*
X10840724Y15063772D01*
X10859862Y15047484D01*
X11031547Y14951533D01*
X11218600Y14890756D01*
X11243024Y14887844D01*
X11332757Y14877143D01*
X11398030Y14849215D01*
X11437842Y14790432D01*
X11439554Y14719456D01*
X11402621Y14658822D01*
X11363550Y14638791D01*
X11364788Y14636009D01*
X11352689Y14630622D01*
X11339735Y14627869D01*
X11330506Y14621163D01*
X11330365Y14621109D01*
X11328867Y14620345D01*
X11328744Y14620265D01*
X11317891Y14616739D01*
X11308048Y14607876D01*
X11295533Y14596607D01*
X11285283Y14588306D01*
X11260942Y14570622D01*
X11255237Y14560740D01*
X11255134Y14560637D01*
X11254071Y14559324D01*
X11253993Y14559204D01*
X11245514Y14551570D01*
X11234987Y14527925D01*
X11233278Y14524087D01*
X11227289Y14512334D01*
X11218866Y14497746D01*
X11218865Y14497743D01*
X11212245Y14486277D01*
X11211053Y14474932D01*
X11211001Y14474797D01*
X11210563Y14473161D01*
X11210540Y14473019D01*
X11205900Y14462597D01*
X11205900Y14432512D01*
X11205210Y14419342D01*
X11202477Y14393338D01*
X11175464Y14327681D01*
X11112742Y14285635D01*
X11063407Y14271115D01*
X11063396Y14271110D01*
X11057489Y14269372D01*
X10883192Y14178252D01*
X10878392Y14174392D01*
X10878391Y14174392D01*
X10877152Y14173396D01*
X10729912Y14055012D01*
X10725954Y14050295D01*
X10725952Y14050293D01*
X10683751Y14000000D01*
X10603489Y13904347D01*
X10508739Y13731996D01*
X10506878Y13726129D01*
X10506877Y13726127D01*
X10501062Y13707796D01*
X10449269Y13544524D01*
X10427345Y13349070D01*
X10443803Y13153081D01*
X10445502Y13147156D01*
X10489154Y12994924D01*
X10498015Y12964021D01*
X10500830Y12958544D01*
X10500831Y12958541D01*
X10585101Y12794569D01*
X10587916Y12789092D01*
X10591739Y12784268D01*
X10591742Y12784264D01*
X10703925Y12642725D01*
X10710083Y12634956D01*
X10714777Y12630962D01*
X10714777Y12630961D01*
X10840724Y12523772D01*
X10859862Y12507484D01*
X11031547Y12411533D01*
X11218600Y12350756D01*
X11413895Y12327468D01*
X11420030Y12327940D01*
X11420032Y12327940D01*
X11603852Y12342084D01*
X11603856Y12342085D01*
X11609994Y12342557D01*
X11799428Y12395448D01*
X11804932Y12398228D01*
X11804934Y12398229D01*
X11969480Y12481347D01*
X11969482Y12481348D01*
X11974981Y12484126D01*
X12129966Y12605214D01*
X12133992Y12609878D01*
X12133995Y12609881D01*
X12254451Y12749431D01*
X12254452Y12749433D01*
X12258480Y12754099D01*
X12355628Y12925110D01*
X12417710Y13111734D01*
X12442360Y13306862D01*
X12442753Y13335000D01*
X12423561Y13530740D01*
X12366714Y13719025D01*
X12308169Y13829132D01*
X12277273Y13887240D01*
X12277271Y13887243D01*
X12274379Y13892682D01*
X12270489Y13897452D01*
X12270486Y13897456D01*
X12153967Y14040322D01*
X12153964Y14040325D01*
X12150072Y14045097D01*
X12141475Y14052209D01*
X12003278Y14166536D01*
X12003274Y14166538D01*
X11998528Y14170465D01*
X11993103Y14173398D01*
X11993099Y14173401D01*
X11921375Y14212183D01*
X11870966Y14262178D01*
X11855589Y14331489D01*
X11880126Y14398111D01*
X11892209Y14412113D01*
X12496905Y15016809D01*
X12559217Y15050835D01*
X12630032Y15045770D01*
X12686868Y15003223D01*
X12711679Y14936703D01*
X12712000Y14927714D01*
X12712000Y8335287D01*
X12691998Y8267166D01*
X12675093Y8246190D01*
X12652767Y8223865D01*
X12590454Y8189841D01*
X12519639Y8194907D01*
X12462804Y8237455D01*
X12438275Y8300667D01*
X12437926Y8304234D01*
X12423561Y8450740D01*
X12366714Y8639025D01*
X12320546Y8725854D01*
X12277273Y8807240D01*
X12277271Y8807243D01*
X12274379Y8812682D01*
X12270489Y8817452D01*
X12270486Y8817456D01*
X12153967Y8960322D01*
X12153964Y8960325D01*
X12150072Y8965097D01*
X12143791Y8970293D01*
X12003278Y9086536D01*
X12003274Y9086538D01*
X11998528Y9090465D01*
X11825520Y9184010D01*
X11637637Y9242170D01*
X11631519Y9242813D01*
X11631514Y9242814D01*
X11448164Y9262084D01*
X11448162Y9262084D01*
X11442035Y9262728D01*
X11359199Y9255190D01*
X11252305Y9245462D01*
X11252302Y9245461D01*
X11246166Y9244903D01*
X11057489Y9189372D01*
X10883192Y9098252D01*
X10729912Y8975012D01*
X10725954Y8970295D01*
X10725952Y8970293D01*
X10643638Y8872195D01*
X10603489Y8824347D01*
X10508739Y8651996D01*
X10506878Y8646129D01*
X10506877Y8646127D01*
X10500599Y8626335D01*
X10449269Y8464524D01*
X10427345Y8269070D01*
X10443803Y8073081D01*
X10498015Y7884021D01*
X10500830Y7878544D01*
X10500831Y7878541D01*
X10571112Y7741789D01*
X10587916Y7709092D01*
X10591739Y7704268D01*
X10591742Y7704264D01*
X10615651Y7674099D01*
X10710083Y7554956D01*
X10714777Y7550962D01*
X10714777Y7550961D01*
X10792863Y7484505D01*
X10859862Y7427484D01*
X10865240Y7424478D01*
X10865242Y7424477D01*
X10892182Y7409421D01*
X11031547Y7331533D01*
X11218600Y7270756D01*
X11243024Y7267844D01*
X11332757Y7257143D01*
X11398030Y7229215D01*
X11437842Y7170432D01*
X11439554Y7099456D01*
X11402621Y7038822D01*
X11363550Y7018791D01*
X11364788Y7016009D01*
X11352689Y7010622D01*
X11339735Y7007869D01*
X11330506Y7001163D01*
X11330365Y7001109D01*
X11328867Y7000345D01*
X11328744Y7000265D01*
X11317891Y6996739D01*
X11308048Y6987876D01*
X11295533Y6976607D01*
X11285283Y6968306D01*
X11260942Y6950622D01*
X11255237Y6940740D01*
X11255134Y6940637D01*
X11254071Y6939324D01*
X11253993Y6939204D01*
X11245514Y6931570D01*
X11234991Y6907934D01*
X11233278Y6904087D01*
X11227289Y6892334D01*
X11218866Y6877746D01*
X11218865Y6877743D01*
X11212245Y6866277D01*
X11211053Y6854932D01*
X11211001Y6854797D01*
X11210563Y6853161D01*
X11210540Y6853019D01*
X11205900Y6842597D01*
X11205900Y6812512D01*
X11205210Y6799342D01*
X11202477Y6773338D01*
X11175464Y6707681D01*
X11112742Y6665635D01*
X11063407Y6651115D01*
X11063396Y6651110D01*
X11057489Y6649372D01*
X10883192Y6558252D01*
X10729912Y6435012D01*
X10725954Y6430295D01*
X10725952Y6430293D01*
X10667582Y6360730D01*
X10603489Y6284347D01*
X10508739Y6111996D01*
X10506878Y6106129D01*
X10506877Y6106127D01*
X10500599Y6086335D01*
X10449269Y5924524D01*
X10427345Y5729070D01*
X10443803Y5533081D01*
X10498015Y5344021D01*
X10500830Y5338544D01*
X10500831Y5338541D01*
X10571114Y5201785D01*
X10587916Y5169092D01*
X10591739Y5164268D01*
X10591742Y5164264D01*
X10615651Y5134099D01*
X10710083Y5014956D01*
X10859862Y4887484D01*
X11031547Y4791533D01*
X11218600Y4730756D01*
X11413895Y4707468D01*
X11420030Y4707940D01*
X11420032Y4707940D01*
X11603852Y4722084D01*
X11603856Y4722085D01*
X11609994Y4722557D01*
X11799428Y4775448D01*
X11804932Y4778228D01*
X11804934Y4778229D01*
X11969480Y4861347D01*
X11969482Y4861348D01*
X11974981Y4864126D01*
X12129966Y4985214D01*
X12133992Y4989878D01*
X12133995Y4989881D01*
X12254451Y5129431D01*
X12254452Y5129433D01*
X12258480Y5134099D01*
X12355628Y5305110D01*
X12417710Y5491734D01*
X12442360Y5686862D01*
X12442753Y5715000D01*
X12423561Y5910740D01*
X12366714Y6099025D01*
X12285866Y6251079D01*
X12277273Y6267240D01*
X12277271Y6267243D01*
X12274379Y6272682D01*
X12270489Y6277452D01*
X12270486Y6277456D01*
X12153967Y6420322D01*
X12153964Y6420325D01*
X12150072Y6425097D01*
X12133422Y6438871D01*
X12003278Y6546536D01*
X12003274Y6546538D01*
X11998528Y6550465D01*
X11993107Y6553396D01*
X11993103Y6553399D01*
X11906318Y6600323D01*
X11855909Y6650318D01*
X11840531Y6719629D01*
X11865067Y6786251D01*
X11877151Y6800254D01*
X12923495Y7846598D01*
X12985807Y7880624D01*
X13056622Y7875559D01*
X13113458Y7833012D01*
X13124656Y7815097D01*
X13165148Y7736308D01*
X13168971Y7731484D01*
X13168974Y7731480D01*
X13210206Y7679459D01*
X13281224Y7589857D01*
X13285917Y7585863D01*
X13285918Y7585862D01*
X13351696Y7529881D01*
X13423535Y7468741D01*
X13428913Y7465735D01*
X13428915Y7465734D01*
X13490211Y7431477D01*
X13586661Y7377573D01*
X13764389Y7319826D01*
X13893052Y7304483D01*
X13915522Y7301804D01*
X13980795Y7273876D01*
X14020608Y7215093D01*
X14022320Y7144117D01*
X13989698Y7087595D01*
X13814578Y6912475D01*
X13809794Y6907934D01*
X13780514Y6881570D01*
X13773705Y6866277D01*
X13772074Y6862614D01*
X13762642Y6845242D01*
X13758551Y6838943D01*
X13758550Y6838941D01*
X13751339Y6827836D01*
X13749268Y6814757D01*
X13747381Y6809842D01*
X13746287Y6804696D01*
X13740900Y6792597D01*
X13740900Y6771847D01*
X13739349Y6752136D01*
X13736103Y6731642D01*
X13736113Y6731605D01*
X13721953Y6672011D01*
X13670802Y6622775D01*
X13648111Y6613620D01*
X13617221Y6604529D01*
X13617218Y6604528D01*
X13611310Y6602789D01*
X13445702Y6516211D01*
X13300065Y6399115D01*
X13179945Y6255962D01*
X13176975Y6250559D01*
X13176974Y6250558D01*
X13170860Y6239436D01*
X13089918Y6092204D01*
X13088057Y6086337D01*
X13088056Y6086335D01*
X13038588Y5930393D01*
X13033413Y5914078D01*
X13012582Y5728369D01*
X13028219Y5542151D01*
X13079729Y5362517D01*
X13165148Y5196308D01*
X13168971Y5191484D01*
X13168974Y5191480D01*
X13210206Y5139459D01*
X13281224Y5049857D01*
X13285917Y5045863D01*
X13285918Y5045862D01*
X13351696Y4989881D01*
X13423535Y4928741D01*
X13586661Y4837573D01*
X13764389Y4779826D01*
X13893052Y4764483D01*
X13915522Y4761804D01*
X13980795Y4733876D01*
X14020608Y4675093D01*
X14022320Y4604117D01*
X13989698Y4547595D01*
X13814578Y4372475D01*
X13809794Y4367934D01*
X13780514Y4341570D01*
X13772074Y4322614D01*
X13762642Y4305242D01*
X13758551Y4298943D01*
X13758550Y4298941D01*
X13751339Y4287836D01*
X13749268Y4274757D01*
X13747381Y4269842D01*
X13746287Y4264696D01*
X13740900Y4252597D01*
X13740900Y4231847D01*
X13739349Y4212136D01*
X13736103Y4191642D01*
X13736113Y4191605D01*
X13721953Y4132011D01*
X13670802Y4082775D01*
X13648111Y4073620D01*
X13617221Y4064529D01*
X13617218Y4064528D01*
X13611310Y4062789D01*
X13445702Y3976211D01*
X13300065Y3859115D01*
X13179945Y3715962D01*
X13176975Y3710559D01*
X13176974Y3710558D01*
X13170860Y3699436D01*
X13089918Y3552204D01*
X13088057Y3546337D01*
X13088056Y3546335D01*
X13035275Y3379948D01*
X13033413Y3374078D01*
X13032727Y3367960D01*
X13022799Y3279457D01*
X12995327Y3213991D01*
X12936823Y3173769D01*
X12865861Y3171562D01*
X12808489Y3204408D01*
X12682475Y3330422D01*
X12677934Y3335206D01*
X12651570Y3364486D01*
X12632614Y3372926D01*
X12615242Y3382358D01*
X12608943Y3386449D01*
X12608941Y3386450D01*
X12597836Y3393661D01*
X12584757Y3395732D01*
X12579842Y3397619D01*
X12574696Y3398713D01*
X12562597Y3404100D01*
X12541847Y3404100D01*
X12522136Y3405651D01*
X12514721Y3406826D01*
X12514718Y3406826D01*
X12501642Y3408897D01*
X12501720Y3409391D01*
X12443844Y3423139D01*
X12394606Y3474287D01*
X12385700Y3496140D01*
X12372495Y3539879D01*
X12366714Y3559025D01*
X12286143Y3710558D01*
X12277273Y3727240D01*
X12277271Y3727243D01*
X12274379Y3732682D01*
X12270489Y3737452D01*
X12270486Y3737456D01*
X12153967Y3880322D01*
X12153964Y3880325D01*
X12150072Y3885097D01*
X12048877Y3968813D01*
X12003278Y4006536D01*
X12003274Y4006538D01*
X11998528Y4010465D01*
X11825520Y4104010D01*
X11637637Y4162170D01*
X11631519Y4162813D01*
X11631514Y4162814D01*
X11448164Y4182084D01*
X11448162Y4182084D01*
X11442035Y4182728D01*
X11359199Y4175190D01*
X11252305Y4165462D01*
X11252302Y4165461D01*
X11246166Y4164903D01*
X11057489Y4109372D01*
X10883192Y4018252D01*
X10729912Y3895012D01*
X10725954Y3890295D01*
X10725952Y3890293D01*
X10643638Y3792195D01*
X10603489Y3744347D01*
X10508739Y3571996D01*
X10506878Y3566129D01*
X10506877Y3566127D01*
X10500599Y3546335D01*
X10449269Y3384524D01*
X10427345Y3189070D01*
X10443803Y2993081D01*
X10498015Y2804021D01*
X10500830Y2798544D01*
X10500831Y2798541D01*
X10571114Y2661785D01*
X10587916Y2629092D01*
X10591739Y2624268D01*
X10591742Y2624264D01*
X10703925Y2482725D01*
X10710083Y2474956D01*
X10714777Y2470962D01*
X10714777Y2470961D01*
X10840724Y2363772D01*
X10859862Y2347484D01*
X11031547Y2251533D01*
X11218600Y2190756D01*
X11413895Y2167468D01*
X11420030Y2167940D01*
X11420032Y2167940D01*
X11603852Y2182084D01*
X11603856Y2182085D01*
X11609994Y2182557D01*
X11799428Y2235448D01*
X11804932Y2238228D01*
X11804934Y2238229D01*
X11969480Y2321347D01*
X11969482Y2321348D01*
X11974981Y2324126D01*
X12129966Y2445214D01*
X12133992Y2449878D01*
X12133995Y2449881D01*
X12254451Y2589431D01*
X12254452Y2589433D01*
X12258480Y2594099D01*
X12296931Y2661785D01*
X12352584Y2759751D01*
X12352585Y2759754D01*
X12355628Y2765110D01*
X12356552Y2767888D01*
X12401809Y2821129D01*
X12469737Y2841776D01*
X12538044Y2822421D01*
X12560027Y2804877D01*
X13397916Y1966988D01*
X13402457Y1962204D01*
X13428830Y1932914D01*
X13440924Y1927529D01*
X13440926Y1927528D01*
X13447787Y1924474D01*
X13465161Y1915040D01*
X13482563Y1903739D01*
X13495647Y1901667D01*
X13500560Y1899781D01*
X13505703Y1898688D01*
X13517803Y1893300D01*
X13538553Y1893300D01*
X13558264Y1891749D01*
X13565681Y1890574D01*
X13565682Y1890574D01*
X13578758Y1888503D01*
X13591547Y1891930D01*
X13604775Y1892623D01*
X13604798Y1892187D01*
X13613250Y1893300D01*
X14438518Y1893300D01*
X14445112Y1893127D01*
X14471213Y1891759D01*
X14471214Y1891759D01*
X14484439Y1891066D01*
X14503814Y1898503D01*
X14522762Y1904115D01*
X14530111Y1905677D01*
X14530112Y1905678D01*
X14543065Y1908431D01*
X14553776Y1916213D01*
X14558584Y1918354D01*
X14563001Y1921223D01*
X14575364Y1925968D01*
X14590035Y1940639D01*
X14605069Y1953480D01*
X14611146Y1957895D01*
X14611146Y1957896D01*
X14621858Y1965678D01*
X14628478Y1977145D01*
X14637341Y1986988D01*
X14637666Y1986696D01*
X14642856Y1993460D01*
X16985022Y4335625D01*
X16989806Y4340166D01*
X17001205Y4350430D01*
X17019086Y4366530D01*
X17027527Y4385488D01*
X17036958Y4402857D01*
X17041050Y4409158D01*
X17041050Y4409159D01*
X17048262Y4420264D01*
X17050334Y4433346D01*
X17052220Y4438261D01*
X17053314Y4443406D01*
X17058700Y4455503D01*
X17058700Y4476253D01*
X17060251Y4495962D01*
X17061426Y4503381D01*
X17061426Y4503382D01*
X17063497Y4516459D01*
X17060070Y4529248D01*
X17059377Y4542476D01*
X17059813Y4542499D01*
X17058700Y4550951D01*
X17058700Y21297092D01*
X17078702Y21365213D01*
X17132358Y21411706D01*
X17202632Y21421810D01*
X17254519Y21401979D01*
X17310056Y21365010D01*
X17310058Y21365009D01*
X17317529Y21360036D01*
X17326093Y21357360D01*
X17326096Y21357359D01*
X17362048Y21346127D01*
X17442041Y21321135D01*
X17572467Y21318745D01*
X17646853Y21339025D01*
X17689659Y21350695D01*
X17689662Y21350696D01*
X17698321Y21353057D01*
X17717789Y21365010D01*
X17801834Y21416613D01*
X17801837Y21416616D01*
X17809486Y21421312D01*
X17817547Y21430217D01*
X17890998Y21511365D01*
X17890999Y21511366D01*
X17897026Y21518025D01*
X17933926Y21594186D01*
X17949988Y21627339D01*
X17949988Y21627340D01*
X17953903Y21635420D01*
X17974226Y21756211D01*
X17974740Y21759267D01*
X17974740Y21759270D01*
X17975546Y21764059D01*
X17975683Y21775300D01*
X17967167Y21834764D01*
X17958463Y21895544D01*
X17958462Y21895547D01*
X17957190Y21904430D01*
X17953476Y21912599D01*
X17906915Y22015005D01*
X17906913Y22015008D01*
X17903198Y22023179D01*
X17832728Y22104964D01*
X17823908Y22115200D01*
X17818047Y22122002D01*
X17786566Y22142407D01*
X17740284Y22196241D01*
X17729100Y22248138D01*
X17729100Y22945552D01*
X17749102Y23013673D01*
X17802758Y23060166D01*
X17873032Y23070270D01*
X17892670Y23065820D01*
X17972641Y23040835D01*
X18103067Y23038445D01*
X18142395Y23049167D01*
X18220259Y23070395D01*
X18220262Y23070396D01*
X18228921Y23072757D01*
X18240288Y23079736D01*
X18332434Y23136313D01*
X18332437Y23136316D01*
X18340086Y23141012D01*
X18404489Y23212163D01*
X18421598Y23231065D01*
X18421599Y23231066D01*
X18427626Y23237725D01*
X18464136Y23313081D01*
X18480588Y23347039D01*
X18480588Y23347040D01*
X18484503Y23355120D01*
X18506146Y23483759D01*
X18506283Y23495000D01*
X18498170Y23551649D01*
X18508312Y23621916D01*
X18533802Y23658606D01*
X18945212Y24070016D01*
X18949996Y24074557D01*
X18969446Y24092070D01*
X18979286Y24100930D01*
X18984671Y24113024D01*
X18984672Y24113026D01*
X18987726Y24119887D01*
X18997160Y24137261D01*
X19008461Y24154663D01*
X19010533Y24167747D01*
X19012419Y24172660D01*
X19013512Y24177803D01*
X19018900Y24189903D01*
X19018900Y24210653D01*
X19020451Y24230364D01*
X19021626Y24237781D01*
X19021626Y24237782D01*
X19023697Y24250858D01*
X19020270Y24263647D01*
X19019577Y24276875D01*
X19020013Y24276898D01*
X19018900Y24285350D01*
X19018900Y34009714D01*
X19038902Y34077835D01*
X19055805Y34098809D01*
X27235991Y42278995D01*
X27298303Y42313021D01*
X27325086Y42315900D01*
X28631204Y42315900D01*
X28699325Y42295898D01*
X28745818Y42242242D01*
X28755922Y42171968D01*
X28726428Y42107388D01*
X28695836Y42083187D01*
X28696323Y42082443D01*
X28691162Y42079065D01*
X28685702Y42076211D01*
X28540065Y41959115D01*
X28419945Y41815962D01*
X28416975Y41810559D01*
X28416974Y41810558D01*
X28410860Y41799436D01*
X28329918Y41652204D01*
X28328057Y41646337D01*
X28328056Y41646335D01*
X28276727Y41484524D01*
X28273413Y41474078D01*
X28252582Y41288369D01*
X28253098Y41282225D01*
X28267048Y41116099D01*
X28268219Y41102151D01*
X28319729Y40922517D01*
X28322544Y40917040D01*
X28398082Y40770058D01*
X28405148Y40756308D01*
X28408971Y40751484D01*
X28408974Y40751480D01*
X28503494Y40632226D01*
X28521224Y40609857D01*
X28525917Y40605863D01*
X28525918Y40605862D01*
X28591696Y40549881D01*
X28663535Y40488741D01*
X28668913Y40485735D01*
X28668915Y40485734D01*
X28708212Y40463772D01*
X28826661Y40397573D01*
X29004389Y40339826D01*
X29189947Y40317699D01*
X29196082Y40318171D01*
X29196084Y40318171D01*
X29370129Y40331563D01*
X29370134Y40331564D01*
X29376270Y40332036D01*
X29382200Y40333692D01*
X29382202Y40333692D01*
X29550332Y40380635D01*
X29550331Y40380635D01*
X29556260Y40382290D01*
X29633580Y40421347D01*
X29685322Y40447484D01*
X29723060Y40466547D01*
X29747619Y40485734D01*
X29813726Y40537383D01*
X29870318Y40581597D01*
X29880815Y40593757D01*
X29988401Y40718398D01*
X29988401Y40718399D01*
X29992425Y40723060D01*
X30007482Y40749564D01*
X30038718Y40804550D01*
X30084730Y40885545D01*
X30143716Y41062865D01*
X30155494Y41156098D01*
X30166696Y41244762D01*
X30166697Y41244772D01*
X30167138Y41248265D01*
X30167511Y41275000D01*
X30149275Y41460982D01*
X30139696Y41492711D01*
X30115230Y41573746D01*
X30095263Y41639879D01*
X30078186Y41671996D01*
X30010425Y41799436D01*
X30010423Y41799439D01*
X30007531Y41804878D01*
X29889422Y41949695D01*
X29808444Y42016686D01*
X29750182Y42064885D01*
X29750177Y42064888D01*
X29745433Y42068813D01*
X29740014Y42071743D01*
X29740011Y42071745D01*
X29653997Y42118252D01*
X29612386Y42140751D01*
X29561978Y42190744D01*
X29546600Y42260056D01*
X29571136Y42326678D01*
X29593799Y42347967D01*
X29595364Y42348568D01*
X29610035Y42363239D01*
X29625069Y42376080D01*
X29631146Y42380495D01*
X29631146Y42380496D01*
X29641858Y42388278D01*
X29648478Y42399745D01*
X29657341Y42409588D01*
X29657665Y42409296D01*
X29662855Y42416059D01*
X30128527Y42881730D01*
X30602632Y43355835D01*
X30607416Y43360375D01*
X30608000Y43360900D01*
X30636686Y43386730D01*
X30640541Y43395387D01*
X30694565Y43437045D01*
X30765301Y43443120D01*
X30828092Y43409988D01*
X30852344Y43377225D01*
X30907916Y43269092D01*
X30911739Y43264268D01*
X30911742Y43264264D01*
X30935651Y43234099D01*
X31030083Y43114956D01*
X31034777Y43110962D01*
X31034777Y43110961D01*
X31160724Y43003772D01*
X31179862Y42987484D01*
X31185240Y42984478D01*
X31185242Y42984477D01*
X31250788Y42947845D01*
X31351547Y42891533D01*
X31437681Y42863546D01*
X31496286Y42823474D01*
X31523923Y42758077D01*
X31524054Y42730545D01*
X31522065Y42711618D01*
X31526158Y42699022D01*
X31526158Y42699019D01*
X31531362Y42683002D01*
X31534776Y42670264D01*
X31541031Y42640835D01*
X31547737Y42631606D01*
X31547791Y42631465D01*
X31548555Y42629967D01*
X31548635Y42629844D01*
X31552161Y42618991D01*
X31561024Y42609148D01*
X31572293Y42596633D01*
X31580594Y42586383D01*
X31598278Y42562042D01*
X31608160Y42556337D01*
X31608263Y42556234D01*
X31609576Y42555171D01*
X31609696Y42555093D01*
X31617330Y42546614D01*
X31644820Y42534375D01*
X31656566Y42528389D01*
X31671151Y42519968D01*
X31671153Y42519967D01*
X31682623Y42513345D01*
X31684539Y42513144D01*
X31736249Y42477786D01*
X31763887Y42412390D01*
X31751782Y42342433D01*
X31703777Y42290126D01*
X31650128Y42272544D01*
X31572305Y42265462D01*
X31572302Y42265461D01*
X31566166Y42264903D01*
X31377489Y42209372D01*
X31203192Y42118252D01*
X31049912Y41995012D01*
X31045954Y41990295D01*
X31045952Y41990293D01*
X30963638Y41892195D01*
X30923489Y41844347D01*
X30828739Y41671996D01*
X30826878Y41666129D01*
X30826877Y41666127D01*
X30820599Y41646335D01*
X30769269Y41484524D01*
X30747345Y41289070D01*
X30750772Y41248265D01*
X30763158Y41100766D01*
X30763803Y41093081D01*
X30818015Y40904021D01*
X30820830Y40898544D01*
X30820831Y40898541D01*
X30886862Y40770058D01*
X30907916Y40729092D01*
X30911739Y40724268D01*
X30911742Y40724264D01*
X31023925Y40582725D01*
X31030083Y40574956D01*
X31034777Y40570962D01*
X31034777Y40570961D01*
X31160724Y40463772D01*
X31179862Y40447484D01*
X31185240Y40444478D01*
X31185242Y40444477D01*
X31270194Y40396999D01*
X31319900Y40346305D01*
X31334308Y40276786D01*
X31308844Y40210513D01*
X31297820Y40197916D01*
X30898014Y39798111D01*
X30520668Y39420765D01*
X30515884Y39416225D01*
X30486614Y39389870D01*
X30478174Y39370914D01*
X30468742Y39353542D01*
X30464651Y39347243D01*
X30464650Y39347241D01*
X30457439Y39336136D01*
X30455368Y39323057D01*
X30453481Y39318142D01*
X30452387Y39312996D01*
X30447000Y39300897D01*
X30447000Y39280147D01*
X30445449Y39260436D01*
X30442203Y39239942D01*
X30445630Y39227153D01*
X30446323Y39213925D01*
X30445887Y39213902D01*
X30447000Y39205450D01*
X30447000Y38891286D01*
X30426998Y38823165D01*
X30410095Y38802191D01*
X30371656Y38763752D01*
X30309344Y38729726D01*
X30238529Y38734791D01*
X30181693Y38777338D01*
X30157162Y38840551D01*
X30149877Y38914848D01*
X30149876Y38914853D01*
X30149275Y38920982D01*
X30095263Y39099879D01*
X30078186Y39131996D01*
X30010425Y39259436D01*
X30010423Y39259439D01*
X30007531Y39264878D01*
X29889422Y39409695D01*
X29810985Y39474584D01*
X29750182Y39524885D01*
X29750177Y39524888D01*
X29745433Y39528813D01*
X29740014Y39531743D01*
X29740011Y39531745D01*
X29586470Y39614764D01*
X29586465Y39614766D01*
X29581050Y39617694D01*
X29558973Y39624528D01*
X29408421Y39671132D01*
X29408418Y39671133D01*
X29402534Y39672954D01*
X29396409Y39673598D01*
X29396408Y39673598D01*
X29222813Y39691844D01*
X29222812Y39691844D01*
X29216685Y39692488D01*
X29144988Y39685963D01*
X29036719Y39676110D01*
X29036716Y39676109D01*
X29030580Y39675551D01*
X29024674Y39673813D01*
X29024670Y39673812D01*
X28893453Y39635192D01*
X28851310Y39622789D01*
X28685702Y39536211D01*
X28540065Y39419115D01*
X28419945Y39275962D01*
X28416975Y39270559D01*
X28416974Y39270558D01*
X28411409Y39260436D01*
X28329918Y39112204D01*
X28328057Y39106337D01*
X28328056Y39106335D01*
X28287776Y38979357D01*
X28273413Y38934078D01*
X28262922Y38840551D01*
X28254308Y38763752D01*
X28252582Y38748369D01*
X28254636Y38723907D01*
X28267048Y38576099D01*
X28268219Y38562151D01*
X28319729Y38382517D01*
X28405148Y38216308D01*
X28408971Y38211484D01*
X28408974Y38211480D01*
X28431500Y38183060D01*
X28521224Y38069857D01*
X28525917Y38065863D01*
X28525918Y38065862D01*
X28591696Y38009881D01*
X28663535Y37948741D01*
X28668913Y37945735D01*
X28668915Y37945734D01*
X28821280Y37860580D01*
X28821283Y37860579D01*
X28826661Y37857573D01*
X28832523Y37855668D01*
X28837910Y37853315D01*
X28892326Y37807714D01*
X28913450Y37739933D01*
X28894575Y37671491D01*
X28876562Y37648758D01*
X28874565Y37646761D01*
X28859531Y37633920D01*
X28856363Y37631618D01*
X28842742Y37621722D01*
X28836122Y37610255D01*
X28827259Y37600412D01*
X28826934Y37600704D01*
X28821744Y37593940D01*
X26343978Y35116175D01*
X26339194Y35111634D01*
X26309914Y35085270D01*
X26301474Y35066314D01*
X26292042Y35048942D01*
X26287951Y35042643D01*
X26287950Y35042641D01*
X26280739Y35031536D01*
X26278668Y35018457D01*
X26276781Y35013542D01*
X26275687Y35008396D01*
X26270300Y34996297D01*
X26270300Y34975547D01*
X26268749Y34955836D01*
X26265503Y34935342D01*
X26268930Y34922553D01*
X26269623Y34909325D01*
X26269187Y34909302D01*
X26270300Y34900850D01*
X26270300Y21509048D01*
X26250298Y21440927D01*
X26211538Y21402488D01*
X26208808Y21400766D01*
X26208801Y21400760D01*
X26201211Y21395971D01*
X26195268Y21389242D01*
X26195267Y21389241D01*
X26157190Y21346127D01*
X26114859Y21298196D01*
X26111045Y21290073D01*
X26111044Y21290071D01*
X26084572Y21233687D01*
X26059420Y21180115D01*
X26058040Y21171253D01*
X26058039Y21171249D01*
X26040732Y21060094D01*
X26040732Y21060090D01*
X26039351Y21051221D01*
X26040515Y21042319D01*
X26040515Y21042316D01*
X26050643Y20964868D01*
X26056265Y20921875D01*
X26059879Y20913662D01*
X26059880Y20913658D01*
X26063373Y20905720D01*
X26108803Y20802475D01*
X26114578Y20795605D01*
X26114579Y20795603D01*
X26186960Y20709495D01*
X26192740Y20702619D01*
X26200218Y20697642D01*
X26200217Y20697642D01*
X26293856Y20635310D01*
X26293858Y20635309D01*
X26301329Y20630336D01*
X26309893Y20627660D01*
X26309896Y20627659D01*
X26363585Y20610885D01*
X26425841Y20591435D01*
X26556267Y20589045D01*
X26595595Y20599767D01*
X26673459Y20620995D01*
X26673462Y20620996D01*
X26682121Y20623357D01*
X26701589Y20635310D01*
X26785634Y20686913D01*
X26785637Y20686916D01*
X26793286Y20691612D01*
X26834378Y20737009D01*
X26874798Y20781665D01*
X26874799Y20781666D01*
X26880826Y20788325D01*
X26937703Y20905720D01*
X26959346Y21034359D01*
X26959483Y21045600D01*
X26944426Y21150740D01*
X26942263Y21165844D01*
X26942262Y21165847D01*
X26940990Y21174730D01*
X26937276Y21182899D01*
X26890715Y21285305D01*
X26890713Y21285308D01*
X26886998Y21293479D01*
X26801847Y21392302D01*
X26785968Y21402594D01*
X26739684Y21456428D01*
X26728500Y21508326D01*
X26728500Y34800514D01*
X26748502Y34868635D01*
X26765405Y34889609D01*
X28047596Y36171800D01*
X28109908Y36205826D01*
X28180723Y36200761D01*
X28237559Y36158214D01*
X28262249Y36093248D01*
X28268219Y36022151D01*
X28282676Y35971734D01*
X28309435Y35878417D01*
X28319729Y35842517D01*
X28322544Y35837040D01*
X28379796Y35725639D01*
X28405148Y35676308D01*
X28408971Y35671484D01*
X28408974Y35671480D01*
X28458154Y35609431D01*
X28521224Y35529857D01*
X28525917Y35525863D01*
X28525918Y35525862D01*
X28618466Y35447098D01*
X28663535Y35408741D01*
X28668913Y35405735D01*
X28668915Y35405734D01*
X28826661Y35317573D01*
X28825347Y35315222D01*
X28870834Y35277090D01*
X28891945Y35209305D01*
X28873058Y35140867D01*
X28855057Y35118153D01*
X28126475Y34389572D01*
X27399278Y33662375D01*
X27394494Y33657834D01*
X27365214Y33631470D01*
X27356774Y33612514D01*
X27347342Y33595142D01*
X27343251Y33588843D01*
X27343250Y33588841D01*
X27336039Y33577736D01*
X27333968Y33564657D01*
X27332081Y33559742D01*
X27330987Y33554596D01*
X27325600Y33542497D01*
X27325600Y33521747D01*
X27324049Y33502036D01*
X27320803Y33481542D01*
X27324230Y33468753D01*
X27324923Y33455525D01*
X27324487Y33455502D01*
X27325600Y33447050D01*
X27325600Y8447882D01*
X27325427Y8441288D01*
X27324544Y8424430D01*
X27323366Y8401961D01*
X27330803Y8382586D01*
X27336415Y8363638D01*
X27340731Y8343335D01*
X27348513Y8332624D01*
X27350654Y8327816D01*
X27353523Y8323399D01*
X27358268Y8311036D01*
X27372939Y8296365D01*
X27385780Y8281331D01*
X27397978Y8264542D01*
X27409445Y8257922D01*
X27419288Y8249059D01*
X27418996Y8248734D01*
X27425760Y8243544D01*
X28647416Y7021888D01*
X28651957Y7017104D01*
X28678330Y6987814D01*
X28690427Y6982428D01*
X28690430Y6982426D01*
X28697284Y6979375D01*
X28714655Y6969944D01*
X28732064Y6958638D01*
X28745146Y6956566D01*
X28750063Y6954679D01*
X28755208Y6953585D01*
X28767303Y6948200D01*
X28788053Y6948200D01*
X28807762Y6946649D01*
X28815181Y6945474D01*
X28815182Y6945474D01*
X28828259Y6943403D01*
X28841048Y6946830D01*
X28854276Y6947523D01*
X28854299Y6947087D01*
X28862751Y6948200D01*
X29652918Y6948200D01*
X29659512Y6948027D01*
X29685613Y6946659D01*
X29685614Y6946659D01*
X29698839Y6945966D01*
X29718214Y6953403D01*
X29737162Y6959015D01*
X29744511Y6960577D01*
X29744512Y6960578D01*
X29757465Y6963331D01*
X29768176Y6971113D01*
X29772984Y6973254D01*
X29777401Y6976123D01*
X29789764Y6980868D01*
X29804435Y6995539D01*
X29819469Y7008380D01*
X29825546Y7012795D01*
X29825546Y7012796D01*
X29836258Y7020578D01*
X29842878Y7032045D01*
X29851741Y7041888D01*
X29852065Y7041596D01*
X29857255Y7048359D01*
X30231905Y7423008D01*
X30294217Y7457033D01*
X30365033Y7451968D01*
X30421868Y7409421D01*
X30446679Y7342901D01*
X30447000Y7333912D01*
X30447000Y5817086D01*
X30426998Y5748965D01*
X30410095Y5727991D01*
X30376495Y5694391D01*
X30314183Y5660365D01*
X30243368Y5665430D01*
X30186532Y5707977D01*
X30162001Y5771191D01*
X30149877Y5894848D01*
X30149876Y5894853D01*
X30149275Y5900982D01*
X30095263Y6079879D01*
X30078186Y6111996D01*
X30010425Y6239436D01*
X30010423Y6239439D01*
X30007531Y6244878D01*
X29889422Y6389695D01*
X29793519Y6469033D01*
X29750182Y6504885D01*
X29750177Y6504888D01*
X29745433Y6508813D01*
X29740014Y6511743D01*
X29740011Y6511745D01*
X29586470Y6594764D01*
X29586465Y6594766D01*
X29581050Y6597694D01*
X29558970Y6604529D01*
X29408421Y6651132D01*
X29408418Y6651133D01*
X29402534Y6652954D01*
X29396409Y6653598D01*
X29396408Y6653598D01*
X29222813Y6671844D01*
X29222812Y6671844D01*
X29216685Y6672488D01*
X29141384Y6665635D01*
X29036719Y6656110D01*
X29036716Y6656109D01*
X29030580Y6655551D01*
X29024674Y6653813D01*
X29024670Y6653812D01*
X28893453Y6615192D01*
X28851310Y6602789D01*
X28685702Y6516211D01*
X28540065Y6399115D01*
X28419945Y6255962D01*
X28416975Y6250559D01*
X28416974Y6250558D01*
X28410860Y6239436D01*
X28329918Y6092204D01*
X28328057Y6086337D01*
X28328056Y6086335D01*
X28278588Y5930393D01*
X28273413Y5914078D01*
X28252582Y5728369D01*
X28268219Y5542151D01*
X28319729Y5362517D01*
X28405148Y5196308D01*
X28408971Y5191484D01*
X28408974Y5191480D01*
X28450206Y5139459D01*
X28521224Y5049857D01*
X28525917Y5045863D01*
X28525918Y5045862D01*
X28591696Y4989881D01*
X28663535Y4928741D01*
X28826661Y4837573D01*
X29004389Y4779826D01*
X29133052Y4764483D01*
X29155522Y4761804D01*
X29220795Y4733876D01*
X29260608Y4675093D01*
X29262320Y4604117D01*
X29229698Y4547595D01*
X29054578Y4372475D01*
X29049794Y4367934D01*
X29020514Y4341570D01*
X29012074Y4322614D01*
X29002642Y4305242D01*
X28998551Y4298943D01*
X28998550Y4298941D01*
X28991339Y4287836D01*
X28989268Y4274757D01*
X28987381Y4269842D01*
X28986287Y4264696D01*
X28980900Y4252597D01*
X28980900Y4231847D01*
X28979349Y4212136D01*
X28976103Y4191642D01*
X28976113Y4191605D01*
X28961953Y4132011D01*
X28910802Y4082775D01*
X28888111Y4073620D01*
X28857221Y4064529D01*
X28857218Y4064528D01*
X28851310Y4062789D01*
X28685702Y3976211D01*
X28540065Y3859115D01*
X28419945Y3715962D01*
X28416975Y3710559D01*
X28416974Y3710558D01*
X28410860Y3699436D01*
X28329918Y3552204D01*
X28328057Y3546337D01*
X28328056Y3546335D01*
X28275275Y3379948D01*
X28273413Y3374078D01*
X28252582Y3188369D01*
X28268219Y3002151D01*
X28319729Y2822517D01*
X28405148Y2656308D01*
X28408971Y2651484D01*
X28408974Y2651480D01*
X28431500Y2623060D01*
X28521224Y2509857D01*
X28525917Y2505863D01*
X28525918Y2505862D01*
X28591696Y2449881D01*
X28663535Y2388741D01*
X28668913Y2385735D01*
X28668915Y2385734D01*
X28708212Y2363772D01*
X28826661Y2297573D01*
X29004389Y2239826D01*
X29189947Y2217699D01*
X29196082Y2218171D01*
X29196084Y2218171D01*
X29370129Y2231563D01*
X29370134Y2231564D01*
X29376270Y2232036D01*
X29382200Y2233692D01*
X29382202Y2233692D01*
X29550332Y2280635D01*
X29550331Y2280635D01*
X29556260Y2282290D01*
X29633580Y2321347D01*
X29685322Y2347484D01*
X29723060Y2366547D01*
X29747619Y2385734D01*
X29796689Y2424072D01*
X29870318Y2481597D01*
X29894712Y2509857D01*
X29988401Y2618398D01*
X29988401Y2618399D01*
X29992425Y2623060D01*
X30084730Y2785545D01*
X30143716Y2962865D01*
X30165692Y3136816D01*
X30166696Y3144762D01*
X30166697Y3144772D01*
X30167138Y3148265D01*
X30167511Y3175000D01*
X30166131Y3189070D01*
X30747345Y3189070D01*
X30763803Y2993081D01*
X30818015Y2804021D01*
X30820830Y2798544D01*
X30820831Y2798541D01*
X30891114Y2661785D01*
X30907916Y2629092D01*
X30911739Y2624268D01*
X30911742Y2624264D01*
X31023925Y2482725D01*
X31030083Y2474956D01*
X31034777Y2470962D01*
X31034777Y2470961D01*
X31160724Y2363772D01*
X31179862Y2347484D01*
X31351547Y2251533D01*
X31538600Y2190756D01*
X31733895Y2167468D01*
X31740030Y2167940D01*
X31740032Y2167940D01*
X31923852Y2182084D01*
X31923856Y2182085D01*
X31929994Y2182557D01*
X32119428Y2235448D01*
X32124932Y2238228D01*
X32124934Y2238229D01*
X32289480Y2321347D01*
X32289482Y2321348D01*
X32294981Y2324126D01*
X32449966Y2445214D01*
X32453992Y2449878D01*
X32453995Y2449881D01*
X32574451Y2589431D01*
X32574452Y2589433D01*
X32578480Y2594099D01*
X32675628Y2765110D01*
X32737710Y2951734D01*
X32762360Y3146862D01*
X32762753Y3175000D01*
X32743561Y3370740D01*
X32686714Y3559025D01*
X32606143Y3710558D01*
X32597273Y3727240D01*
X32597271Y3727243D01*
X32594379Y3732682D01*
X32590489Y3737452D01*
X32590486Y3737456D01*
X32473967Y3880322D01*
X32473964Y3880325D01*
X32470072Y3885097D01*
X32368877Y3968813D01*
X32323278Y4006536D01*
X32323274Y4006538D01*
X32318528Y4010465D01*
X32145520Y4104010D01*
X31957637Y4162170D01*
X31951519Y4162813D01*
X31951514Y4162814D01*
X31768164Y4182084D01*
X31768162Y4182084D01*
X31762035Y4182728D01*
X31679199Y4175190D01*
X31572305Y4165462D01*
X31572302Y4165461D01*
X31566166Y4164903D01*
X31377489Y4109372D01*
X31203192Y4018252D01*
X31049912Y3895012D01*
X31045954Y3890295D01*
X31045952Y3890293D01*
X30963638Y3792195D01*
X30923489Y3744347D01*
X30828739Y3571996D01*
X30826878Y3566129D01*
X30826877Y3566127D01*
X30820599Y3546335D01*
X30769269Y3384524D01*
X30747345Y3189070D01*
X30166131Y3189070D01*
X30149275Y3360982D01*
X30138534Y3396560D01*
X30115066Y3474287D01*
X30095263Y3539879D01*
X30078186Y3571996D01*
X30010425Y3699436D01*
X30010423Y3699439D01*
X30007531Y3704878D01*
X29889422Y3849695D01*
X29829978Y3898871D01*
X29750182Y3964885D01*
X29750177Y3964888D01*
X29745433Y3968813D01*
X29740014Y3971743D01*
X29740011Y3971745D01*
X29604311Y4045117D01*
X29553902Y4095112D01*
X29538524Y4164423D01*
X29563060Y4231045D01*
X29575144Y4245048D01*
X30646986Y5316890D01*
X30709298Y5350916D01*
X30780113Y5345851D01*
X30836949Y5303304D01*
X30848146Y5285392D01*
X30907916Y5169092D01*
X30911739Y5164268D01*
X30911742Y5164264D01*
X30935651Y5134099D01*
X31030083Y5014956D01*
X31179862Y4887484D01*
X31351547Y4791533D01*
X31538600Y4730756D01*
X31733895Y4707468D01*
X31740030Y4707940D01*
X31740032Y4707940D01*
X31923852Y4722084D01*
X31923856Y4722085D01*
X31929994Y4722557D01*
X32119428Y4775448D01*
X32124932Y4778228D01*
X32124934Y4778229D01*
X32289480Y4861347D01*
X32289482Y4861348D01*
X32294981Y4864126D01*
X32449966Y4985214D01*
X32453992Y4989878D01*
X32453995Y4989881D01*
X32574451Y5129431D01*
X32574452Y5129433D01*
X32578480Y5134099D01*
X32675628Y5305110D01*
X32737710Y5491734D01*
X32762360Y5686862D01*
X32762753Y5715000D01*
X32743561Y5910740D01*
X32686714Y6099025D01*
X32605866Y6251079D01*
X32597273Y6267240D01*
X32597271Y6267243D01*
X32594379Y6272682D01*
X32590489Y6277452D01*
X32590486Y6277456D01*
X32473967Y6420322D01*
X32473964Y6420325D01*
X32470072Y6425097D01*
X32453422Y6438871D01*
X32323278Y6546536D01*
X32323274Y6546538D01*
X32318528Y6550465D01*
X32145520Y6644010D01*
X31957637Y6702170D01*
X31951519Y6702813D01*
X31951514Y6702814D01*
X31768164Y6722084D01*
X31768162Y6722084D01*
X31762035Y6722728D01*
X31679199Y6715190D01*
X31572305Y6705462D01*
X31572302Y6705461D01*
X31566166Y6704903D01*
X31377489Y6649372D01*
X31203192Y6558252D01*
X31198392Y6554392D01*
X31198391Y6554392D01*
X31110152Y6483446D01*
X31044530Y6456350D01*
X30974675Y6469033D01*
X30922767Y6517469D01*
X30905200Y6581643D01*
X30905200Y7388551D01*
X30925202Y7456672D01*
X30978858Y7503165D01*
X31049132Y7513269D01*
X31112862Y7484505D01*
X31179862Y7427484D01*
X31185240Y7424478D01*
X31185242Y7424477D01*
X31212182Y7409421D01*
X31351547Y7331533D01*
X31538600Y7270756D01*
X31733895Y7247468D01*
X31740030Y7247940D01*
X31740032Y7247940D01*
X31923852Y7262084D01*
X31923856Y7262085D01*
X31929994Y7262557D01*
X32119428Y7315448D01*
X32124932Y7318228D01*
X32124934Y7318229D01*
X32289480Y7401347D01*
X32289482Y7401348D01*
X32294981Y7404126D01*
X32449966Y7525214D01*
X32453992Y7529878D01*
X32453995Y7529881D01*
X32574451Y7669431D01*
X32574452Y7669433D01*
X32578480Y7674099D01*
X32675628Y7845110D01*
X32737710Y8031734D01*
X32762360Y8226862D01*
X32762655Y8247977D01*
X32762704Y8251477D01*
X32762704Y8251481D01*
X32762753Y8255000D01*
X32743561Y8450740D01*
X32686714Y8639025D01*
X32640546Y8725854D01*
X32597273Y8807240D01*
X32597271Y8807243D01*
X32594379Y8812682D01*
X32590489Y8817452D01*
X32590486Y8817456D01*
X32473967Y8960322D01*
X32473964Y8960325D01*
X32470072Y8965097D01*
X32463791Y8970293D01*
X32323278Y9086536D01*
X32323274Y9086538D01*
X32318528Y9090465D01*
X32145520Y9184010D01*
X31957637Y9242170D01*
X31951519Y9242813D01*
X31951514Y9242814D01*
X31768164Y9262084D01*
X31768162Y9262084D01*
X31762035Y9262728D01*
X31679199Y9255190D01*
X31572305Y9245462D01*
X31572302Y9245461D01*
X31566166Y9244903D01*
X31377489Y9189372D01*
X31203192Y9098252D01*
X31198392Y9094392D01*
X31198391Y9094392D01*
X31110152Y9023446D01*
X31044530Y8996350D01*
X30974675Y9009033D01*
X30922767Y9057469D01*
X30905200Y9121643D01*
X30905200Y9928551D01*
X30925202Y9996672D01*
X30978858Y10043165D01*
X31049132Y10053269D01*
X31112862Y10024505D01*
X31179862Y9967484D01*
X31351547Y9871533D01*
X31538600Y9810756D01*
X31733895Y9787468D01*
X31740030Y9787940D01*
X31740032Y9787940D01*
X31923852Y9802084D01*
X31923856Y9802085D01*
X31929994Y9802557D01*
X32119428Y9855448D01*
X32124932Y9858228D01*
X32124934Y9858229D01*
X32289480Y9941347D01*
X32289482Y9941348D01*
X32294981Y9944126D01*
X32449966Y10065214D01*
X32453992Y10069878D01*
X32453995Y10069881D01*
X32574451Y10209431D01*
X32574452Y10209433D01*
X32578480Y10214099D01*
X32675628Y10385110D01*
X32737710Y10571734D01*
X32762360Y10766862D01*
X32762753Y10795000D01*
X32743561Y10990740D01*
X32686714Y11179025D01*
X32640546Y11265854D01*
X32597273Y11347240D01*
X32597271Y11347243D01*
X32594379Y11352682D01*
X32590489Y11357452D01*
X32590486Y11357456D01*
X32473967Y11500322D01*
X32473964Y11500325D01*
X32470072Y11505097D01*
X32463791Y11510293D01*
X32323278Y11626536D01*
X32323274Y11626538D01*
X32318528Y11630465D01*
X32145520Y11724010D01*
X31957637Y11782170D01*
X31951519Y11782813D01*
X31951514Y11782814D01*
X31768164Y11802084D01*
X31768162Y11802084D01*
X31762035Y11802728D01*
X31679199Y11795190D01*
X31572305Y11785462D01*
X31572302Y11785461D01*
X31566166Y11784903D01*
X31377489Y11729372D01*
X31203192Y11638252D01*
X31198392Y11634392D01*
X31198391Y11634392D01*
X31110152Y11563446D01*
X31044530Y11536350D01*
X30974675Y11549033D01*
X30922767Y11597469D01*
X30905200Y11661643D01*
X30905200Y12468551D01*
X30925202Y12536672D01*
X30978858Y12583165D01*
X31049132Y12593269D01*
X31112862Y12564505D01*
X31179862Y12507484D01*
X31351547Y12411533D01*
X31538600Y12350756D01*
X31733895Y12327468D01*
X31740030Y12327940D01*
X31740032Y12327940D01*
X31923852Y12342084D01*
X31923856Y12342085D01*
X31929994Y12342557D01*
X32119428Y12395448D01*
X32124932Y12398228D01*
X32124934Y12398229D01*
X32289480Y12481347D01*
X32289482Y12481348D01*
X32294981Y12484126D01*
X32449966Y12605214D01*
X32453992Y12609878D01*
X32453995Y12609881D01*
X32574451Y12749431D01*
X32574452Y12749433D01*
X32578480Y12754099D01*
X32675628Y12925110D01*
X32737710Y13111734D01*
X32762360Y13306862D01*
X32762753Y13335000D01*
X32743561Y13530740D01*
X32686714Y13719025D01*
X32628169Y13829132D01*
X32597273Y13887240D01*
X32597271Y13887243D01*
X32594379Y13892682D01*
X32590489Y13897452D01*
X32590486Y13897456D01*
X32473967Y14040322D01*
X32473964Y14040325D01*
X32470072Y14045097D01*
X32461475Y14052209D01*
X32323278Y14166536D01*
X32323274Y14166538D01*
X32318528Y14170465D01*
X32145520Y14264010D01*
X31957637Y14322170D01*
X31951519Y14322813D01*
X31951514Y14322814D01*
X31768164Y14342084D01*
X31768162Y14342084D01*
X31762035Y14342728D01*
X31679199Y14335190D01*
X31572305Y14325462D01*
X31572302Y14325461D01*
X31566166Y14324903D01*
X31377489Y14269372D01*
X31203192Y14178252D01*
X31198392Y14174392D01*
X31198391Y14174392D01*
X31110152Y14103446D01*
X31044530Y14076350D01*
X30974675Y14089033D01*
X30922767Y14137469D01*
X30905200Y14201643D01*
X30905200Y15008551D01*
X30925202Y15076672D01*
X30978858Y15123165D01*
X31049132Y15133269D01*
X31112862Y15104505D01*
X31179862Y15047484D01*
X31351547Y14951533D01*
X31538600Y14890756D01*
X31733895Y14867468D01*
X31740030Y14867940D01*
X31740032Y14867940D01*
X31923852Y14882084D01*
X31923856Y14882085D01*
X31929994Y14882557D01*
X32119428Y14935448D01*
X32124932Y14938228D01*
X32124934Y14938229D01*
X32289480Y15021347D01*
X32289482Y15021348D01*
X32294981Y15024126D01*
X32449966Y15145214D01*
X32453992Y15149878D01*
X32453995Y15149881D01*
X32574451Y15289431D01*
X32574452Y15289433D01*
X32578480Y15294099D01*
X32588531Y15311791D01*
X32625089Y15376146D01*
X32675628Y15465110D01*
X32737710Y15651734D01*
X32762360Y15846862D01*
X32762753Y15875000D01*
X32743561Y16070740D01*
X32686714Y16259025D01*
X32618932Y16386505D01*
X32597273Y16427240D01*
X32597271Y16427243D01*
X32594379Y16432682D01*
X32590489Y16437452D01*
X32590486Y16437456D01*
X32473967Y16580322D01*
X32473964Y16580325D01*
X32470072Y16585097D01*
X32461475Y16592209D01*
X32323278Y16706536D01*
X32323274Y16706538D01*
X32318528Y16710465D01*
X32145520Y16804010D01*
X31957637Y16862170D01*
X31951519Y16862813D01*
X31951514Y16862814D01*
X31768164Y16882084D01*
X31768162Y16882084D01*
X31762035Y16882728D01*
X31679199Y16875190D01*
X31572305Y16865462D01*
X31572302Y16865461D01*
X31566166Y16864903D01*
X31377489Y16809372D01*
X31203192Y16718252D01*
X31198392Y16714392D01*
X31198391Y16714392D01*
X31110152Y16643446D01*
X31044530Y16616350D01*
X30974675Y16629033D01*
X30922767Y16677469D01*
X30905200Y16741643D01*
X30905200Y17548551D01*
X30925202Y17616672D01*
X30978858Y17663165D01*
X31049132Y17673269D01*
X31112862Y17644505D01*
X31179862Y17587484D01*
X31351547Y17491533D01*
X31538600Y17430756D01*
X31733895Y17407468D01*
X31740030Y17407940D01*
X31740032Y17407940D01*
X31923852Y17422084D01*
X31923856Y17422085D01*
X31929994Y17422557D01*
X32119428Y17475448D01*
X32124932Y17478228D01*
X32124934Y17478229D01*
X32208282Y17520331D01*
X36112001Y17520331D01*
X36112371Y17513510D01*
X36117895Y17462648D01*
X36121521Y17447396D01*
X36166676Y17326946D01*
X36175214Y17311351D01*
X36251715Y17209276D01*
X36264276Y17196715D01*
X36366351Y17120214D01*
X36381946Y17111676D01*
X36502394Y17066522D01*
X36517649Y17062895D01*
X36568514Y17057369D01*
X36575328Y17057000D01*
X37197885Y17057000D01*
X37213124Y17061475D01*
X37214329Y17062865D01*
X37216000Y17070548D01*
X37216000Y17075116D01*
X37724000Y17075116D01*
X37728475Y17059877D01*
X37729865Y17058672D01*
X37737548Y17057001D01*
X38364669Y17057001D01*
X38371490Y17057371D01*
X38422352Y17062895D01*
X38437604Y17066521D01*
X38558054Y17111676D01*
X38573649Y17120214D01*
X38675724Y17196715D01*
X38688285Y17209276D01*
X38764786Y17311351D01*
X38773324Y17326946D01*
X38818478Y17447394D01*
X38822105Y17462649D01*
X38827631Y17513514D01*
X38828000Y17520328D01*
X38828000Y18142885D01*
X38823525Y18158124D01*
X38822135Y18159329D01*
X38814452Y18161000D01*
X37742115Y18161000D01*
X37726876Y18156525D01*
X37725671Y18155135D01*
X37724000Y18147452D01*
X37724000Y17075116D01*
X37216000Y17075116D01*
X37216000Y18142885D01*
X37211525Y18158124D01*
X37210135Y18159329D01*
X37202452Y18161000D01*
X36130116Y18161000D01*
X36114877Y18156525D01*
X36113672Y18155135D01*
X36112001Y18147452D01*
X36112001Y17520331D01*
X32208282Y17520331D01*
X32289480Y17561347D01*
X32289482Y17561348D01*
X32294981Y17564126D01*
X32449966Y17685214D01*
X32453992Y17689878D01*
X32453995Y17689881D01*
X32574451Y17829431D01*
X32574452Y17829433D01*
X32578480Y17834099D01*
X32675628Y18005110D01*
X32737710Y18191734D01*
X32762360Y18386862D01*
X32762753Y18415000D01*
X32743561Y18610740D01*
X32720502Y18687115D01*
X36112000Y18687115D01*
X36116475Y18671876D01*
X36117865Y18670671D01*
X36125548Y18669000D01*
X37197885Y18669000D01*
X37213124Y18673475D01*
X37214329Y18674865D01*
X37216000Y18682548D01*
X37216000Y18687115D01*
X37724000Y18687115D01*
X37728475Y18671876D01*
X37729865Y18670671D01*
X37737548Y18669000D01*
X38809884Y18669000D01*
X38825123Y18673475D01*
X38826328Y18674865D01*
X38827999Y18682548D01*
X38827999Y19309669D01*
X38827629Y19316490D01*
X38822105Y19367352D01*
X38818479Y19382604D01*
X38773324Y19503054D01*
X38764786Y19518649D01*
X38688285Y19620724D01*
X38675724Y19633285D01*
X38573649Y19709786D01*
X38558054Y19718324D01*
X38447297Y19759845D01*
X38390533Y19802487D01*
X38365833Y19869048D01*
X38381040Y19938397D01*
X38402587Y19967078D01*
X38504057Y20068195D01*
X38510730Y20076035D01*
X38635003Y20248980D01*
X38640313Y20257817D01*
X38734670Y20448733D01*
X38738469Y20458328D01*
X38800377Y20662090D01*
X38802555Y20672163D01*
X38803986Y20683038D01*
X38801775Y20697222D01*
X38788617Y20701000D01*
X37742115Y20701000D01*
X37726876Y20696525D01*
X37725671Y20695135D01*
X37724000Y20687452D01*
X37724000Y18687115D01*
X37216000Y18687115D01*
X37216000Y20682885D01*
X37211525Y20698124D01*
X37210135Y20699329D01*
X37202452Y20701000D01*
X36153225Y20701000D01*
X36139694Y20697027D01*
X36138257Y20687034D01*
X36168565Y20552554D01*
X36171645Y20542725D01*
X36251770Y20345397D01*
X36256413Y20336206D01*
X36367694Y20154612D01*
X36373777Y20146301D01*
X36513213Y19985333D01*
X36520578Y19978119D01*
X36525966Y19973646D01*
X36565599Y19914742D01*
X36567095Y19843761D01*
X36529978Y19783239D01*
X36489707Y19758722D01*
X36381948Y19718325D01*
X36366351Y19709786D01*
X36264276Y19633285D01*
X36251715Y19620724D01*
X36175214Y19518649D01*
X36166676Y19503054D01*
X36121522Y19382606D01*
X36117895Y19367351D01*
X36112369Y19316486D01*
X36112000Y19309672D01*
X36112000Y18687115D01*
X32720502Y18687115D01*
X32686714Y18799025D01*
X32618932Y18926505D01*
X32597273Y18967240D01*
X32597271Y18967243D01*
X32594379Y18972682D01*
X32590489Y18977452D01*
X32590486Y18977456D01*
X32473967Y19120322D01*
X32473964Y19120325D01*
X32470072Y19125097D01*
X32461475Y19132209D01*
X32323278Y19246536D01*
X32323274Y19246538D01*
X32318528Y19250465D01*
X32145520Y19344010D01*
X31957637Y19402170D01*
X31951519Y19402813D01*
X31951514Y19402814D01*
X31768164Y19422084D01*
X31768162Y19422084D01*
X31762035Y19422728D01*
X31679199Y19415190D01*
X31572305Y19405462D01*
X31572302Y19405461D01*
X31566166Y19404903D01*
X31377489Y19349372D01*
X31203192Y19258252D01*
X31198392Y19254392D01*
X31198391Y19254392D01*
X31110152Y19183446D01*
X31044530Y19156350D01*
X30974675Y19169033D01*
X30922767Y19217469D01*
X30905200Y19281643D01*
X30905200Y20088551D01*
X30925202Y20156672D01*
X30978858Y20203165D01*
X31049132Y20213269D01*
X31112862Y20184505D01*
X31179862Y20127484D01*
X31351547Y20031533D01*
X31538600Y19970756D01*
X31733895Y19947468D01*
X31740030Y19947940D01*
X31740032Y19947940D01*
X31923852Y19962084D01*
X31923856Y19962085D01*
X31929994Y19962557D01*
X32119428Y20015448D01*
X32124932Y20018228D01*
X32124934Y20018229D01*
X32289480Y20101347D01*
X32289482Y20101348D01*
X32294981Y20104126D01*
X32449966Y20225214D01*
X32453992Y20229878D01*
X32453995Y20229881D01*
X32574451Y20369431D01*
X32574452Y20369433D01*
X32578480Y20374099D01*
X32675628Y20545110D01*
X32737710Y20731734D01*
X32762360Y20926862D01*
X32762753Y20955000D01*
X32743561Y21150740D01*
X32722403Y21220817D01*
X36134389Y21220817D01*
X36135912Y21212393D01*
X36148292Y21209000D01*
X38788344Y21209000D01*
X38801875Y21212973D01*
X38803180Y21222053D01*
X38761214Y21389125D01*
X38757894Y21398876D01*
X38672972Y21594186D01*
X38668105Y21603261D01*
X38552426Y21782074D01*
X38546136Y21790243D01*
X38402806Y21947760D01*
X38395273Y21954785D01*
X38228139Y22086778D01*
X38219552Y22092483D01*
X38033117Y22195401D01*
X38023705Y22199631D01*
X37822959Y22270720D01*
X37812998Y22273351D01*
X37753050Y22284029D01*
X37689492Y22315667D01*
X37653129Y22376644D01*
X37655505Y22447601D01*
X37695865Y22506009D01*
X37741261Y22529435D01*
X37828484Y22553788D01*
X37828488Y22553789D01*
X37834428Y22555448D01*
X37839932Y22558228D01*
X37839934Y22558229D01*
X38004480Y22641347D01*
X38004482Y22641348D01*
X38009981Y22644126D01*
X38164966Y22765214D01*
X38168992Y22769878D01*
X38168995Y22769881D01*
X38289451Y22909431D01*
X38289452Y22909433D01*
X38293480Y22914099D01*
X38390628Y23085110D01*
X38452710Y23271734D01*
X38477360Y23466862D01*
X38477753Y23495000D01*
X38458561Y23690740D01*
X38401714Y23879025D01*
X38343169Y23989132D01*
X38312273Y24047240D01*
X38312271Y24047243D01*
X38309379Y24052682D01*
X38305489Y24057452D01*
X38305486Y24057456D01*
X38188967Y24200322D01*
X38188964Y24200325D01*
X38185072Y24205097D01*
X38168422Y24218871D01*
X38038278Y24326536D01*
X38038274Y24326538D01*
X38033528Y24330465D01*
X37860520Y24424010D01*
X37672637Y24482170D01*
X37666519Y24482813D01*
X37666514Y24482814D01*
X37483164Y24502084D01*
X37483162Y24502084D01*
X37477035Y24502728D01*
X37394199Y24495190D01*
X37287305Y24485462D01*
X37287302Y24485461D01*
X37281166Y24484903D01*
X37092489Y24429372D01*
X36918192Y24338252D01*
X36764912Y24215012D01*
X36760954Y24210295D01*
X36760952Y24210293D01*
X36714273Y24154663D01*
X36638489Y24064347D01*
X36543739Y23891996D01*
X36541878Y23886129D01*
X36541877Y23886127D01*
X36522156Y23823958D01*
X36484269Y23704524D01*
X36462345Y23509070D01*
X36478803Y23313081D01*
X36480502Y23307156D01*
X36524987Y23152019D01*
X36533015Y23124021D01*
X36535830Y23118544D01*
X36535831Y23118541D01*
X36617089Y22960430D01*
X36622916Y22949092D01*
X36626739Y22944268D01*
X36626742Y22944264D01*
X36704182Y22846560D01*
X36745083Y22794956D01*
X36749777Y22790962D01*
X36749777Y22790961D01*
X36875724Y22683772D01*
X36894862Y22667484D01*
X37066547Y22571533D01*
X37198465Y22528670D01*
X37257070Y22488598D01*
X37284707Y22423201D01*
X37272600Y22353244D01*
X37224594Y22300938D01*
X37178589Y22284288D01*
X37159318Y22281339D01*
X37149293Y22278950D01*
X36946868Y22212788D01*
X36937359Y22208791D01*
X36748463Y22110458D01*
X36739738Y22104964D01*
X36569433Y21977095D01*
X36561726Y21970252D01*
X36414590Y21816283D01*
X36408104Y21808273D01*
X36288098Y21632351D01*
X36283000Y21623377D01*
X36193338Y21430217D01*
X36189775Y21420530D01*
X36134389Y21220817D01*
X32722403Y21220817D01*
X32686714Y21339025D01*
X32618932Y21466505D01*
X32597273Y21507240D01*
X32597271Y21507243D01*
X32594379Y21512682D01*
X32590489Y21517452D01*
X32590486Y21517456D01*
X32473967Y21660322D01*
X32473964Y21660325D01*
X32470072Y21665097D01*
X32461475Y21672209D01*
X32323278Y21786536D01*
X32323274Y21786538D01*
X32318528Y21790465D01*
X32145520Y21884010D01*
X32116627Y21892954D01*
X32030462Y21919627D01*
X31971302Y21958879D01*
X31942755Y22023883D01*
X31953884Y22094002D01*
X32001155Y22146973D01*
X32038360Y22161963D01*
X32038312Y22162123D01*
X32040055Y22162646D01*
X32041527Y22163239D01*
X32043258Y22163607D01*
X32247255Y22224809D01*
X32256842Y22228567D01*
X32448095Y22322261D01*
X32456945Y22327536D01*
X32630328Y22451208D01*
X32638200Y22457861D01*
X32789052Y22608188D01*
X32795730Y22616035D01*
X32920003Y22788980D01*
X32925313Y22797817D01*
X33019670Y22988733D01*
X33023469Y22998328D01*
X33085377Y23202090D01*
X33087555Y23212163D01*
X33088986Y23223038D01*
X33086775Y23237222D01*
X33073617Y23241000D01*
X31627000Y23241000D01*
X31558879Y23261002D01*
X31512386Y23314658D01*
X31501000Y23367000D01*
X31501000Y23623000D01*
X31521002Y23691121D01*
X31574658Y23737614D01*
X31627000Y23749000D01*
X33073344Y23749000D01*
X33086875Y23752973D01*
X33088180Y23762053D01*
X33046214Y23929125D01*
X33042894Y23938876D01*
X32957972Y24134186D01*
X32953105Y24143261D01*
X32837426Y24322074D01*
X32831136Y24330243D01*
X32687806Y24487760D01*
X32680273Y24494785D01*
X32513139Y24626778D01*
X32504552Y24632483D01*
X32318117Y24735401D01*
X32308705Y24739631D01*
X32107959Y24810720D01*
X32097999Y24813351D01*
X32088179Y24815100D01*
X32024621Y24846738D01*
X31988258Y24907715D01*
X31984965Y24952322D01*
X31987448Y24975940D01*
X32014462Y25041596D01*
X32078874Y25084125D01*
X32105513Y25091563D01*
X32119428Y25095448D01*
X32124928Y25098226D01*
X32289480Y25181347D01*
X32289482Y25181348D01*
X32294981Y25184126D01*
X32449966Y25305214D01*
X32453992Y25309878D01*
X32453995Y25309881D01*
X32574451Y25449431D01*
X32574452Y25449433D01*
X32578480Y25454099D01*
X32675628Y25625110D01*
X32737710Y25811734D01*
X32762360Y26006862D01*
X32762753Y26035000D01*
X32761373Y26049070D01*
X36462345Y26049070D01*
X36478803Y25853081D01*
X36533015Y25664021D01*
X36535830Y25658544D01*
X36535831Y25658541D01*
X36613188Y25508020D01*
X36622916Y25489092D01*
X36626739Y25484268D01*
X36626742Y25484264D01*
X36706154Y25384072D01*
X36745083Y25334956D01*
X36749777Y25330962D01*
X36749777Y25330961D01*
X36875724Y25223772D01*
X36894862Y25207484D01*
X36900240Y25204478D01*
X36900242Y25204477D01*
X36929868Y25187920D01*
X37066547Y25111533D01*
X37253600Y25050756D01*
X37448895Y25027468D01*
X37455030Y25027940D01*
X37455032Y25027940D01*
X37638852Y25042084D01*
X37638856Y25042085D01*
X37644994Y25042557D01*
X37834428Y25095448D01*
X37839932Y25098228D01*
X37839934Y25098229D01*
X38004480Y25181347D01*
X38004482Y25181348D01*
X38009981Y25184126D01*
X38164966Y25305214D01*
X38168992Y25309878D01*
X38168995Y25309881D01*
X38289451Y25449431D01*
X38289452Y25449433D01*
X38293480Y25454099D01*
X38390628Y25625110D01*
X38452710Y25811734D01*
X38477360Y26006862D01*
X38477753Y26035000D01*
X38458561Y26230740D01*
X38454400Y26244524D01*
X38410354Y26390407D01*
X38401714Y26419025D01*
X38319800Y26573083D01*
X38312273Y26587240D01*
X38312271Y26587243D01*
X38309379Y26592682D01*
X38305489Y26597452D01*
X38305486Y26597456D01*
X38188967Y26740322D01*
X38188964Y26740325D01*
X38185072Y26745097D01*
X38180323Y26749026D01*
X38038278Y26866536D01*
X38038274Y26866538D01*
X38033528Y26870465D01*
X37860520Y26964010D01*
X37672637Y27022170D01*
X37666519Y27022813D01*
X37666514Y27022814D01*
X37483164Y27042084D01*
X37483162Y27042084D01*
X37477035Y27042728D01*
X37394199Y27035190D01*
X37287305Y27025462D01*
X37287302Y27025461D01*
X37281166Y27024903D01*
X37092489Y26969372D01*
X36918192Y26878252D01*
X36764912Y26755012D01*
X36760954Y26750295D01*
X36760952Y26750293D01*
X36713366Y26693582D01*
X36638489Y26604347D01*
X36543739Y26431996D01*
X36541878Y26426129D01*
X36541877Y26426127D01*
X36521008Y26360339D01*
X36484269Y26244524D01*
X36462345Y26049070D01*
X32761373Y26049070D01*
X32743561Y26230740D01*
X32739400Y26244524D01*
X32695354Y26390407D01*
X32686714Y26419025D01*
X32604800Y26573083D01*
X32597273Y26587240D01*
X32597271Y26587243D01*
X32594379Y26592682D01*
X32590489Y26597452D01*
X32590486Y26597456D01*
X32473967Y26740322D01*
X32473964Y26740325D01*
X32470072Y26745097D01*
X32465323Y26749026D01*
X32323278Y26866536D01*
X32323274Y26866538D01*
X32318528Y26870465D01*
X32284794Y26888705D01*
X32230494Y26918065D01*
X32180085Y26968060D01*
X32164708Y27037371D01*
X32189244Y27103993D01*
X32196787Y27113212D01*
X32202442Y27119492D01*
X32213158Y27127278D01*
X32219780Y27138749D01*
X32228641Y27148589D01*
X32228966Y27148296D01*
X32234156Y27155060D01*
X33371012Y28291916D01*
X33375796Y28296457D01*
X33395246Y28313970D01*
X33405086Y28322830D01*
X33410471Y28334924D01*
X33410472Y28334926D01*
X33413526Y28341787D01*
X33422960Y28359161D01*
X33434261Y28376563D01*
X33436333Y28389647D01*
X33438219Y28394560D01*
X33439312Y28399703D01*
X33444700Y28411803D01*
X33444700Y28432553D01*
X33446251Y28452264D01*
X33447426Y28459681D01*
X33447426Y28459682D01*
X33449497Y28472758D01*
X33446070Y28485547D01*
X33445377Y28498775D01*
X33445813Y28498798D01*
X33444700Y28507250D01*
X33444700Y28589070D01*
X36462345Y28589070D01*
X36465772Y28548265D01*
X36474656Y28442471D01*
X36478803Y28393081D01*
X36480502Y28387156D01*
X36510050Y28284111D01*
X36533015Y28204021D01*
X36535830Y28198544D01*
X36535831Y28198541D01*
X36617089Y28040430D01*
X36622916Y28029092D01*
X36626739Y28024268D01*
X36626742Y28024264D01*
X36738925Y27882725D01*
X36745083Y27874956D01*
X36749777Y27870962D01*
X36749777Y27870961D01*
X36875724Y27763772D01*
X36894862Y27747484D01*
X37066547Y27651533D01*
X37253600Y27590756D01*
X37448895Y27567468D01*
X37455030Y27567940D01*
X37455032Y27567940D01*
X37638852Y27582084D01*
X37638856Y27582085D01*
X37644994Y27582557D01*
X37834428Y27635448D01*
X37839932Y27638228D01*
X37839934Y27638229D01*
X38004480Y27721347D01*
X38004482Y27721348D01*
X38009981Y27724126D01*
X38164966Y27845214D01*
X38168992Y27849878D01*
X38168995Y27849881D01*
X38289451Y27989431D01*
X38289452Y27989433D01*
X38293480Y27994099D01*
X38390628Y28165110D01*
X38452710Y28351734D01*
X38477360Y28546862D01*
X38477753Y28575000D01*
X38458561Y28770740D01*
X38401714Y28959025D01*
X38333932Y29086505D01*
X38312273Y29127240D01*
X38312271Y29127243D01*
X38309379Y29132682D01*
X38305489Y29137452D01*
X38305486Y29137456D01*
X38188967Y29280322D01*
X38188964Y29280325D01*
X38185072Y29285097D01*
X38178791Y29290293D01*
X38038278Y29406536D01*
X38038274Y29406538D01*
X38033528Y29410465D01*
X37860520Y29504010D01*
X37672637Y29562170D01*
X37666519Y29562813D01*
X37666514Y29562814D01*
X37483164Y29582084D01*
X37483162Y29582084D01*
X37477035Y29582728D01*
X37394199Y29575190D01*
X37287305Y29565462D01*
X37287302Y29565461D01*
X37281166Y29564903D01*
X37092489Y29509372D01*
X36918192Y29418252D01*
X36764912Y29295012D01*
X36760954Y29290295D01*
X36760952Y29290293D01*
X36685286Y29200117D01*
X36638489Y29144347D01*
X36543739Y28971996D01*
X36541878Y28966129D01*
X36541877Y28966127D01*
X36539624Y28959025D01*
X36484269Y28784524D01*
X36462345Y28589070D01*
X33444700Y28589070D01*
X33444700Y31129070D01*
X36462345Y31129070D01*
X36465772Y31088265D01*
X36478158Y30940766D01*
X36478803Y30933081D01*
X36533015Y30744021D01*
X36535830Y30738544D01*
X36535831Y30738541D01*
X36617089Y30580430D01*
X36622916Y30569092D01*
X36626739Y30564268D01*
X36626742Y30564264D01*
X36699829Y30472052D01*
X36745083Y30414956D01*
X36749777Y30410962D01*
X36749777Y30410961D01*
X36886440Y30294652D01*
X36894862Y30287484D01*
X37066547Y30191533D01*
X37253600Y30130756D01*
X37448895Y30107468D01*
X37455030Y30107940D01*
X37455032Y30107940D01*
X37638852Y30122084D01*
X37638856Y30122085D01*
X37644994Y30122557D01*
X37834428Y30175448D01*
X37839932Y30178228D01*
X37839934Y30178229D01*
X38004480Y30261347D01*
X38004482Y30261348D01*
X38009981Y30264126D01*
X38164966Y30385214D01*
X38168992Y30389878D01*
X38168995Y30389881D01*
X38289451Y30529431D01*
X38289452Y30529433D01*
X38293480Y30534099D01*
X38390628Y30705110D01*
X38452710Y30891734D01*
X38477360Y31086862D01*
X38477598Y31103907D01*
X38477704Y31111477D01*
X38477704Y31111481D01*
X38477753Y31115000D01*
X38458561Y31310740D01*
X38401714Y31499025D01*
X38346941Y31602039D01*
X38312273Y31667240D01*
X38312271Y31667243D01*
X38309379Y31672682D01*
X38305489Y31677452D01*
X38305486Y31677456D01*
X38188967Y31820322D01*
X38188964Y31820325D01*
X38185072Y31825097D01*
X38178791Y31830293D01*
X38038278Y31946536D01*
X38038274Y31946538D01*
X38033528Y31950465D01*
X37860520Y32044010D01*
X37672637Y32102170D01*
X37666519Y32102813D01*
X37666514Y32102814D01*
X37483164Y32122084D01*
X37483162Y32122084D01*
X37477035Y32122728D01*
X37394199Y32115190D01*
X37287305Y32105462D01*
X37287302Y32105461D01*
X37281166Y32104903D01*
X37092489Y32049372D01*
X36918192Y31958252D01*
X36764912Y31835012D01*
X36760954Y31830295D01*
X36760952Y31830293D01*
X36710251Y31769870D01*
X36638489Y31684347D01*
X36543739Y31511996D01*
X36541878Y31506129D01*
X36541877Y31506127D01*
X36539624Y31499025D01*
X36484269Y31324524D01*
X36462345Y31129070D01*
X33444700Y31129070D01*
X33444700Y33669070D01*
X36462345Y33669070D01*
X36465889Y33626862D01*
X36476372Y33502036D01*
X36478803Y33473081D01*
X36480502Y33467156D01*
X36528904Y33298359D01*
X36533015Y33284021D01*
X36535830Y33278544D01*
X36535831Y33278541D01*
X36617089Y33120430D01*
X36622916Y33109092D01*
X36626739Y33104268D01*
X36626742Y33104264D01*
X36717421Y32989857D01*
X36745083Y32954956D01*
X36749777Y32950962D01*
X36749777Y32950961D01*
X36885258Y32835658D01*
X36894862Y32827484D01*
X37066547Y32731533D01*
X37253600Y32670756D01*
X37448895Y32647468D01*
X37455030Y32647940D01*
X37455032Y32647940D01*
X37638852Y32662084D01*
X37638856Y32662085D01*
X37644994Y32662557D01*
X37834428Y32715448D01*
X37839932Y32718228D01*
X37839934Y32718229D01*
X38004480Y32801347D01*
X38004482Y32801348D01*
X38009981Y32804126D01*
X38164966Y32925214D01*
X38168992Y32929878D01*
X38168995Y32929881D01*
X38289451Y33069431D01*
X38289452Y33069433D01*
X38293480Y33074099D01*
X38390628Y33245110D01*
X38452710Y33431734D01*
X38477360Y33626862D01*
X38477753Y33655000D01*
X38458561Y33850740D01*
X38401714Y34039025D01*
X38345610Y34144542D01*
X38312273Y34207240D01*
X38312271Y34207243D01*
X38309379Y34212682D01*
X38305489Y34217452D01*
X38305486Y34217456D01*
X38188967Y34360322D01*
X38188964Y34360325D01*
X38185072Y34365097D01*
X38168585Y34378736D01*
X38128847Y34437569D01*
X38122900Y34475821D01*
X38122900Y35371982D01*
X38142902Y35440103D01*
X38161250Y35462311D01*
X38164966Y35465214D01*
X38293480Y35614099D01*
X38390628Y35785110D01*
X38452710Y35971734D01*
X38477360Y36166862D01*
X38477753Y36195000D01*
X38458561Y36390740D01*
X38401714Y36579025D01*
X38309379Y36752682D01*
X38305489Y36757452D01*
X38305486Y36757456D01*
X38188967Y36900322D01*
X38188964Y36900325D01*
X38185072Y36905097D01*
X38173087Y36915012D01*
X38038278Y37026536D01*
X38038274Y37026538D01*
X38033528Y37030465D01*
X37860520Y37124010D01*
X37672637Y37182170D01*
X37666519Y37182813D01*
X37666514Y37182814D01*
X37483164Y37202084D01*
X37483162Y37202084D01*
X37477035Y37202728D01*
X37394199Y37195190D01*
X37287305Y37185462D01*
X37287302Y37185461D01*
X37281166Y37184903D01*
X37092489Y37129372D01*
X36918192Y37038252D01*
X36764912Y36915012D01*
X36760954Y36910295D01*
X36760952Y36910293D01*
X36678638Y36812195D01*
X36638489Y36764347D01*
X36543739Y36591996D01*
X36541878Y36586129D01*
X36541877Y36586127D01*
X36528010Y36542412D01*
X36484269Y36404524D01*
X36462345Y36209070D01*
X36478803Y36013081D01*
X36533015Y35824021D01*
X36535830Y35818544D01*
X36535831Y35818541D01*
X36574873Y35742573D01*
X36622916Y35649092D01*
X36626739Y35644268D01*
X36626742Y35644264D01*
X36720587Y35525862D01*
X36745083Y35494956D01*
X36772763Y35471399D01*
X36811676Y35412017D01*
X36817100Y35375445D01*
X36817100Y34477342D01*
X36797098Y34409221D01*
X36773893Y34383416D01*
X36774118Y34383186D01*
X36770502Y34379644D01*
X36770056Y34379149D01*
X36769718Y34378878D01*
X36769707Y34378867D01*
X36764912Y34375012D01*
X36760954Y34370295D01*
X36760952Y34370293D01*
X36721295Y34323031D01*
X36638489Y34224347D01*
X36543739Y34051996D01*
X36541878Y34046129D01*
X36541877Y34046127D01*
X36525472Y33994411D01*
X36484269Y33864524D01*
X36462345Y33669070D01*
X33444700Y33669070D01*
X33444700Y38749070D01*
X36462345Y38749070D01*
X36465772Y38708265D01*
X36478158Y38560766D01*
X36478803Y38553081D01*
X36533015Y38364021D01*
X36535830Y38358544D01*
X36535831Y38358541D01*
X36603512Y38226848D01*
X36622916Y38189092D01*
X36626739Y38184268D01*
X36626742Y38184264D01*
X36650651Y38154099D01*
X36745083Y38034956D01*
X36749777Y38030962D01*
X36749777Y38030961D01*
X36875724Y37923772D01*
X36894862Y37907484D01*
X37066547Y37811533D01*
X37253600Y37750756D01*
X37448895Y37727468D01*
X37455030Y37727940D01*
X37455032Y37727940D01*
X37638852Y37742084D01*
X37638856Y37742085D01*
X37644994Y37742557D01*
X37834428Y37795448D01*
X37839932Y37798228D01*
X37839934Y37798229D01*
X38004480Y37881347D01*
X38004482Y37881348D01*
X38009981Y37884126D01*
X38164966Y38005214D01*
X38168992Y38009878D01*
X38168995Y38009881D01*
X38289451Y38149431D01*
X38289452Y38149433D01*
X38293480Y38154099D01*
X38390628Y38325110D01*
X38452710Y38511734D01*
X38477360Y38706862D01*
X38477598Y38723907D01*
X38477704Y38731477D01*
X38477704Y38731481D01*
X38477753Y38735000D01*
X38458561Y38930740D01*
X38401714Y39119025D01*
X38346941Y39222039D01*
X38312273Y39287240D01*
X38312271Y39287243D01*
X38309379Y39292682D01*
X38305489Y39297452D01*
X38305486Y39297456D01*
X38188967Y39440322D01*
X38188964Y39440325D01*
X38185072Y39445097D01*
X38173087Y39455012D01*
X38038278Y39566536D01*
X38038274Y39566538D01*
X38033528Y39570465D01*
X37860520Y39664010D01*
X37672637Y39722170D01*
X37666519Y39722813D01*
X37666514Y39722814D01*
X37483164Y39742084D01*
X37483162Y39742084D01*
X37477035Y39742728D01*
X37394199Y39735190D01*
X37287305Y39725462D01*
X37287302Y39725461D01*
X37281166Y39724903D01*
X37092489Y39669372D01*
X36918192Y39578252D01*
X36913392Y39574392D01*
X36913391Y39574392D01*
X36912152Y39573396D01*
X36764912Y39455012D01*
X36760954Y39450295D01*
X36760952Y39450293D01*
X36710251Y39389870D01*
X36638489Y39304347D01*
X36543739Y39131996D01*
X36541878Y39126129D01*
X36541877Y39126127D01*
X36535599Y39106335D01*
X36484269Y38944524D01*
X36462345Y38749070D01*
X33444700Y38749070D01*
X33444700Y41289070D01*
X36462345Y41289070D01*
X36465772Y41248265D01*
X36478158Y41100766D01*
X36478803Y41093081D01*
X36533015Y40904021D01*
X36535830Y40898544D01*
X36535831Y40898541D01*
X36601862Y40770058D01*
X36622916Y40729092D01*
X36626739Y40724268D01*
X36626742Y40724264D01*
X36738925Y40582725D01*
X36745083Y40574956D01*
X36749777Y40570962D01*
X36749777Y40570961D01*
X36875724Y40463772D01*
X36894862Y40447484D01*
X37066547Y40351533D01*
X37253600Y40290756D01*
X37448895Y40267468D01*
X37455030Y40267940D01*
X37455032Y40267940D01*
X37638852Y40282084D01*
X37638856Y40282085D01*
X37644994Y40282557D01*
X37834428Y40335448D01*
X37839932Y40338228D01*
X37839934Y40338229D01*
X38004480Y40421347D01*
X38004482Y40421348D01*
X38009981Y40424126D01*
X38164966Y40545214D01*
X38168992Y40549878D01*
X38168995Y40549881D01*
X38289451Y40689431D01*
X38289452Y40689433D01*
X38293480Y40694099D01*
X38302004Y40709103D01*
X38346801Y40787961D01*
X38390628Y40865110D01*
X38452710Y41051734D01*
X38477360Y41246862D01*
X38477753Y41275000D01*
X38458561Y41470740D01*
X38401714Y41659025D01*
X38319800Y41813083D01*
X38312273Y41827240D01*
X38312271Y41827243D01*
X38309379Y41832682D01*
X38305489Y41837452D01*
X38305486Y41837456D01*
X38188967Y41980322D01*
X38188964Y41980325D01*
X38185072Y41985097D01*
X38173087Y41995012D01*
X38038278Y42106536D01*
X38038274Y42106538D01*
X38033528Y42110465D01*
X37860520Y42204010D01*
X37672637Y42262170D01*
X37666519Y42262813D01*
X37666514Y42262814D01*
X37483164Y42282084D01*
X37483162Y42282084D01*
X37477035Y42282728D01*
X37394199Y42275190D01*
X37287305Y42265462D01*
X37287302Y42265461D01*
X37281166Y42264903D01*
X37092489Y42209372D01*
X36918192Y42118252D01*
X36764912Y41995012D01*
X36760954Y41990295D01*
X36760952Y41990293D01*
X36678638Y41892195D01*
X36638489Y41844347D01*
X36543739Y41671996D01*
X36541878Y41666129D01*
X36541877Y41666127D01*
X36535599Y41646335D01*
X36484269Y41484524D01*
X36462345Y41289070D01*
X33444700Y41289070D01*
X33444700Y41401118D01*
X33444873Y41407712D01*
X33446241Y41433813D01*
X33446241Y41433814D01*
X33446934Y41447039D01*
X33439497Y41466414D01*
X33433885Y41485362D01*
X33432323Y41492711D01*
X33432322Y41492712D01*
X33429569Y41505665D01*
X33421787Y41516376D01*
X33419646Y41521184D01*
X33416777Y41525601D01*
X33412032Y41537964D01*
X33397361Y41552635D01*
X33384520Y41567669D01*
X33380105Y41573746D01*
X33380104Y41573746D01*
X33372322Y41584458D01*
X33360855Y41591078D01*
X33351012Y41599941D01*
X33351304Y41600266D01*
X33344540Y41605456D01*
X32212691Y42737305D01*
X32178665Y42799617D01*
X32183730Y42870432D01*
X32226277Y42927268D01*
X32244974Y42938865D01*
X32289480Y42961347D01*
X32289482Y42961348D01*
X32294981Y42964126D01*
X32449966Y43085214D01*
X32453992Y43089878D01*
X32453995Y43089881D01*
X32574451Y43229431D01*
X32574452Y43229433D01*
X32578480Y43234099D01*
X32675628Y43405110D01*
X32737710Y43591734D01*
X32762360Y43786862D01*
X32762753Y43815000D01*
X32761373Y43829070D01*
X36462345Y43829070D01*
X36478803Y43633081D01*
X36480502Y43627156D01*
X36528786Y43458771D01*
X36533015Y43444021D01*
X36535830Y43438544D01*
X36535831Y43438541D01*
X36562458Y43386730D01*
X36622916Y43269092D01*
X36626739Y43264268D01*
X36626742Y43264264D01*
X36650651Y43234099D01*
X36745083Y43114956D01*
X36749777Y43110962D01*
X36749777Y43110961D01*
X36875724Y43003772D01*
X36894862Y42987484D01*
X36900240Y42984478D01*
X36900242Y42984477D01*
X36965788Y42947845D01*
X37066547Y42891533D01*
X37253600Y42830756D01*
X37448895Y42807468D01*
X37455030Y42807940D01*
X37455032Y42807940D01*
X37638852Y42822084D01*
X37638856Y42822085D01*
X37644994Y42822557D01*
X37834428Y42875448D01*
X37839932Y42878228D01*
X37839934Y42878229D01*
X38004480Y42961347D01*
X38004482Y42961348D01*
X38009981Y42964126D01*
X38164966Y43085214D01*
X38168992Y43089878D01*
X38168995Y43089881D01*
X38289451Y43229431D01*
X38289452Y43229433D01*
X38293480Y43234099D01*
X38390628Y43405110D01*
X38452710Y43591734D01*
X38477360Y43786862D01*
X38477753Y43815000D01*
X38458561Y44010740D01*
X38401714Y44199025D01*
X38333932Y44326505D01*
X38312273Y44367240D01*
X38312270Y44367244D01*
X38309379Y44372682D01*
X38305489Y44377452D01*
X38305486Y44377456D01*
X38188967Y44520322D01*
X38188964Y44520325D01*
X38185072Y44525097D01*
X38173087Y44535012D01*
X38038278Y44646536D01*
X38038274Y44646538D01*
X38033528Y44650465D01*
X37860520Y44744010D01*
X37672637Y44802170D01*
X37666519Y44802813D01*
X37666514Y44802814D01*
X37483164Y44822084D01*
X37483162Y44822084D01*
X37477035Y44822728D01*
X37394199Y44815190D01*
X37287305Y44805462D01*
X37287302Y44805461D01*
X37281166Y44804903D01*
X37092489Y44749372D01*
X36918192Y44658252D01*
X36764912Y44535012D01*
X36760954Y44530295D01*
X36760952Y44530293D01*
X36678638Y44432195D01*
X36638489Y44384347D01*
X36543739Y44211996D01*
X36541878Y44206129D01*
X36541877Y44206127D01*
X36532429Y44176344D01*
X36484269Y44024524D01*
X36462345Y43829070D01*
X32761373Y43829070D01*
X32743561Y44010740D01*
X32686714Y44199025D01*
X32618932Y44326505D01*
X32597273Y44367240D01*
X32597270Y44367244D01*
X32594379Y44372682D01*
X32590489Y44377452D01*
X32590486Y44377456D01*
X32473967Y44520322D01*
X32473964Y44520325D01*
X32470072Y44525097D01*
X32458087Y44535012D01*
X32323278Y44646536D01*
X32323274Y44646538D01*
X32318528Y44650465D01*
X32227810Y44699516D01*
X32204574Y44712080D01*
X32154165Y44762075D01*
X32138788Y44831386D01*
X32163324Y44898008D01*
X32175852Y44910409D01*
X32175583Y44910652D01*
X32184445Y44920495D01*
X32195158Y44928278D01*
X32201779Y44939745D01*
X32210641Y44949588D01*
X32210966Y44949296D01*
X32216156Y44956060D01*
X33028912Y45768816D01*
X33033696Y45773357D01*
X33053144Y45790868D01*
X33062986Y45799730D01*
X33068372Y45811827D01*
X33068374Y45811830D01*
X33071425Y45818684D01*
X33080856Y45836055D01*
X33092162Y45853464D01*
X33094234Y45866546D01*
X33096121Y45871463D01*
X33097215Y45876608D01*
X33102600Y45888703D01*
X33102600Y45909453D01*
X33104151Y45929162D01*
X33105326Y45936581D01*
X33105326Y45936582D01*
X33107397Y45949659D01*
X33103970Y45962448D01*
X33103277Y45975676D01*
X33103713Y45975699D01*
X33102600Y45984151D01*
X33102600Y46369070D01*
X36462345Y46369070D01*
X36478803Y46173081D01*
X36533015Y45984021D01*
X36535830Y45978544D01*
X36535831Y45978541D01*
X36617986Y45818684D01*
X36622916Y45809092D01*
X36626739Y45804268D01*
X36626742Y45804264D01*
X36688232Y45726684D01*
X36745083Y45654956D01*
X36749777Y45650962D01*
X36749777Y45650961D01*
X36875724Y45543772D01*
X36894862Y45527484D01*
X37066547Y45431533D01*
X37253600Y45370756D01*
X37448895Y45347468D01*
X37455030Y45347940D01*
X37455032Y45347940D01*
X37638852Y45362084D01*
X37638856Y45362085D01*
X37644994Y45362557D01*
X37834428Y45415448D01*
X37839932Y45418228D01*
X37839934Y45418229D01*
X38004480Y45501347D01*
X38004482Y45501348D01*
X38009981Y45504126D01*
X38164966Y45625214D01*
X38168992Y45629878D01*
X38168995Y45629881D01*
X38289451Y45769431D01*
X38289452Y45769433D01*
X38293480Y45774099D01*
X38390628Y45945110D01*
X38452710Y46131734D01*
X38477360Y46326862D01*
X38477753Y46355000D01*
X38458561Y46550740D01*
X38401714Y46739025D01*
X38321143Y46890558D01*
X38312273Y46907240D01*
X38312271Y46907243D01*
X38309379Y46912682D01*
X38305489Y46917452D01*
X38305486Y46917456D01*
X38188967Y47060322D01*
X38188964Y47060325D01*
X38185072Y47065097D01*
X38178791Y47070293D01*
X38038278Y47186536D01*
X38038274Y47186538D01*
X38033528Y47190465D01*
X37860520Y47284010D01*
X37672637Y47342170D01*
X37666519Y47342813D01*
X37666514Y47342814D01*
X37483164Y47362084D01*
X37483162Y47362084D01*
X37477035Y47362728D01*
X37394199Y47355190D01*
X37287305Y47345462D01*
X37287302Y47345461D01*
X37281166Y47344903D01*
X37092489Y47289372D01*
X36918192Y47198252D01*
X36764912Y47075012D01*
X36760954Y47070295D01*
X36760952Y47070293D01*
X36720737Y47022366D01*
X36638489Y46924347D01*
X36543739Y46751996D01*
X36541878Y46746129D01*
X36541877Y46746127D01*
X36535599Y46726335D01*
X36484269Y46564524D01*
X36462345Y46369070D01*
X33102600Y46369070D01*
X33102600Y46823218D01*
X33102773Y46829812D01*
X33104141Y46855912D01*
X33104141Y46855913D01*
X33104834Y46869140D01*
X33097399Y46888509D01*
X33091786Y46907460D01*
X33090224Y46914807D01*
X33090223Y46914810D01*
X33087469Y46927765D01*
X33079683Y46938481D01*
X33077543Y46943288D01*
X33074679Y46947698D01*
X33069932Y46960065D01*
X33055258Y46974739D01*
X33042417Y46989773D01*
X33038004Y46995847D01*
X33030222Y47006558D01*
X33018757Y47013177D01*
X33008912Y47022042D01*
X33009204Y47022366D01*
X33002441Y47027556D01*
X32212691Y47817306D01*
X32178665Y47879618D01*
X32183730Y47950433D01*
X32226277Y48007269D01*
X32244974Y48018865D01*
X32294981Y48044126D01*
X32449966Y48165214D01*
X32453992Y48169878D01*
X32453995Y48169881D01*
X32574451Y48309431D01*
X32574452Y48309433D01*
X32578480Y48314099D01*
X32675628Y48485110D01*
X32737710Y48671734D01*
X32762360Y48866862D01*
X32762561Y48881278D01*
X32762704Y48891477D01*
X32762704Y48891481D01*
X32762753Y48895000D01*
X32743561Y49090740D01*
X32686714Y49279025D01*
X32631941Y49382039D01*
X32597273Y49447240D01*
X32597271Y49447243D01*
X32594379Y49452682D01*
X32590489Y49457452D01*
X32590486Y49457456D01*
X32473967Y49600322D01*
X32473964Y49600325D01*
X32470072Y49605097D01*
X32458087Y49615012D01*
X32323278Y49726536D01*
X32323274Y49726538D01*
X32318528Y49730465D01*
X32145520Y49824010D01*
X31957637Y49882170D01*
X31858604Y49892579D01*
X31792948Y49919591D01*
X31752318Y49977812D01*
X31749615Y50048757D01*
X31785696Y50109902D01*
X31826469Y50131169D01*
X31825212Y50133991D01*
X31837311Y50139378D01*
X31850265Y50142131D01*
X31859494Y50148837D01*
X31859635Y50148891D01*
X31861133Y50149655D01*
X31861256Y50149735D01*
X31872109Y50153261D01*
X31894469Y50173395D01*
X31904719Y50181695D01*
X31918344Y50191594D01*
X31929058Y50199378D01*
X31934763Y50209260D01*
X31934866Y50209363D01*
X31935929Y50210676D01*
X31936007Y50210796D01*
X31944486Y50218430D01*
X31956725Y50245920D01*
X31962711Y50257666D01*
X31971134Y50272254D01*
X31971135Y50272257D01*
X31977755Y50283723D01*
X31978947Y50295068D01*
X31978999Y50295203D01*
X31979437Y50296840D01*
X31979459Y50296981D01*
X31984100Y50307403D01*
X31984100Y50320646D01*
X31986577Y50332299D01*
X32020305Y50394772D01*
X32082455Y50429093D01*
X32109823Y50432101D01*
X32620056Y50432101D01*
X32636710Y50435413D01*
X32652483Y50438550D01*
X32652485Y50438551D01*
X32664658Y50440972D01*
X32682151Y50452660D01*
X32704918Y50467873D01*
X32715234Y50474766D01*
X32726063Y50490972D01*
X32742135Y50515025D01*
X32742136Y50515028D01*
X32749028Y50525342D01*
X32752400Y50542290D01*
X32755439Y50557573D01*
X32757900Y50569943D01*
X32757899Y52300056D01*
X32749028Y52344658D01*
X32738055Y52361081D01*
X32722127Y52384918D01*
X32715234Y52395234D01*
X32682173Y52417325D01*
X32674975Y52422135D01*
X32674972Y52422136D01*
X32664658Y52429028D01*
X32652491Y52431448D01*
X32652489Y52431449D01*
X32621962Y52437521D01*
X32559053Y52470429D01*
X32523921Y52532124D01*
X32527721Y52603019D01*
X32569247Y52660605D01*
X32635314Y52686599D01*
X32646544Y52687100D01*
X35242370Y52687100D01*
X35310491Y52667098D01*
X35331465Y52650195D01*
X36426550Y51555110D01*
X36460576Y51492798D01*
X36462189Y51461372D01*
X36463118Y51461359D01*
X36463032Y51455195D01*
X36462345Y51449070D01*
X36478803Y51253081D01*
X36533015Y51064021D01*
X36535830Y51058544D01*
X36535831Y51058541D01*
X36606114Y50921785D01*
X36622916Y50889092D01*
X36626739Y50884268D01*
X36626742Y50884264D01*
X36737125Y50744996D01*
X36745083Y50734956D01*
X36772763Y50711399D01*
X36811676Y50652017D01*
X36817100Y50615445D01*
X36817100Y49717342D01*
X36797098Y49649221D01*
X36773893Y49623416D01*
X36774118Y49623186D01*
X36770502Y49619644D01*
X36770056Y49619149D01*
X36769718Y49618878D01*
X36769707Y49618867D01*
X36764912Y49615012D01*
X36760954Y49610295D01*
X36760952Y49610293D01*
X36714082Y49554435D01*
X36638489Y49464347D01*
X36543739Y49291996D01*
X36541878Y49286129D01*
X36541877Y49286127D01*
X36535599Y49266335D01*
X36484269Y49104524D01*
X36462345Y48909070D01*
X36478803Y48713081D01*
X36480502Y48707156D01*
X36524154Y48554924D01*
X36533015Y48524021D01*
X36535830Y48518544D01*
X36535831Y48518541D01*
X36571940Y48448281D01*
X36622916Y48349092D01*
X36626739Y48344268D01*
X36626742Y48344264D01*
X36737961Y48203942D01*
X36745083Y48194956D01*
X36749777Y48190962D01*
X36749777Y48190961D01*
X36875724Y48083772D01*
X36894862Y48067484D01*
X36900240Y48064478D01*
X36900242Y48064477D01*
X36941629Y48041347D01*
X37066547Y47971533D01*
X37253600Y47910756D01*
X37448895Y47887468D01*
X37455030Y47887940D01*
X37455032Y47887940D01*
X37638852Y47902084D01*
X37638856Y47902085D01*
X37644994Y47902557D01*
X37834428Y47955448D01*
X37839932Y47958228D01*
X37839934Y47958229D01*
X38004480Y48041347D01*
X38004482Y48041348D01*
X38009981Y48044126D01*
X38164966Y48165214D01*
X38168992Y48169878D01*
X38168995Y48169881D01*
X38289451Y48309431D01*
X38289452Y48309433D01*
X38293480Y48314099D01*
X38390628Y48485110D01*
X38452710Y48671734D01*
X38477360Y48866862D01*
X38477561Y48881278D01*
X38477704Y48891477D01*
X38477704Y48891481D01*
X38477753Y48895000D01*
X38458561Y49090740D01*
X38401714Y49279025D01*
X38346941Y49382039D01*
X38312273Y49447240D01*
X38312271Y49447243D01*
X38309379Y49452682D01*
X38305489Y49457452D01*
X38305486Y49457456D01*
X38188967Y49600322D01*
X38188964Y49600325D01*
X38185072Y49605097D01*
X38168585Y49618736D01*
X38128847Y49677569D01*
X38122900Y49715821D01*
X38122900Y50611982D01*
X38142902Y50680103D01*
X38161250Y50702311D01*
X38164966Y50705214D01*
X38293480Y50854099D01*
X38390628Y51025110D01*
X38452710Y51211734D01*
X38477360Y51406862D01*
X38477753Y51435000D01*
X38458561Y51630740D01*
X38401714Y51819025D01*
X38321143Y51970558D01*
X38312273Y51987240D01*
X38312271Y51987243D01*
X38309379Y51992682D01*
X38305489Y51997452D01*
X38305486Y51997456D01*
X38188967Y52140322D01*
X38188964Y52140325D01*
X38185072Y52145097D01*
X38168422Y52158871D01*
X38038278Y52266536D01*
X38038274Y52266538D01*
X38033528Y52270465D01*
X37860520Y52364010D01*
X37672637Y52422170D01*
X37666519Y52422813D01*
X37666514Y52422814D01*
X37483164Y52442084D01*
X37483162Y52442084D01*
X37477035Y52442728D01*
X37452018Y52440451D01*
X37382366Y52454196D01*
X37351503Y52476837D01*
X36084173Y53744167D01*
X36076283Y53752837D01*
X36072066Y53759482D01*
X36020850Y53807577D01*
X36018009Y53810331D01*
X35997626Y53830714D01*
X35994183Y53833385D01*
X35985168Y53841085D01*
X35957593Y53866980D01*
X35957589Y53866983D01*
X35951815Y53872405D01*
X35944871Y53876223D01*
X35944869Y53876224D01*
X35933258Y53882607D01*
X35916734Y53893461D01*
X35906259Y53901586D01*
X35906260Y53901586D01*
X35899995Y53906445D01*
X35858011Y53924613D01*
X35847351Y53929835D01*
X35828988Y53939930D01*
X35807259Y53951876D01*
X35786744Y53957143D01*
X35768044Y53963545D01*
X35748601Y53971959D01*
X35726453Y53975467D01*
X35703415Y53979116D01*
X35691794Y53981523D01*
X35655161Y53990928D01*
X35655160Y53990928D01*
X35647480Y53992900D01*
X35626299Y53992900D01*
X35606589Y53994451D01*
X35593500Y53996524D01*
X35585671Y53997764D01*
X35577779Y53997018D01*
X35540129Y53993459D01*
X35528271Y53992900D01*
X15956312Y53992900D01*
X15944610Y53993452D01*
X15936931Y53995168D01*
X15868618Y53993021D01*
X15866728Y53992962D01*
X15862771Y53992900D01*
X15833925Y53992900D01*
X15829612Y53992355D01*
X15817779Y53991423D01*
X15788155Y53990493D01*
X15779976Y53990236D01*
X15779975Y53990236D01*
X15772052Y53989987D01*
X15751708Y53984077D01*
X15732351Y53980068D01*
X15711340Y53977414D01*
X15689611Y53968811D01*
X15668811Y53960576D01*
X15657584Y53956732D01*
X15613641Y53943965D01*
X15606825Y53939934D01*
X15606816Y53939930D01*
X15595407Y53933182D01*
X15577648Y53924482D01*
X15565339Y53919609D01*
X15565334Y53919606D01*
X15557963Y53916688D01*
X15551548Y53912027D01*
X15520952Y53889798D01*
X15511035Y53883283D01*
X15471652Y53859992D01*
X15456677Y53845017D01*
X15441644Y53832177D01*
X15424507Y53819726D01*
X15419457Y53813622D01*
X15419452Y53813617D01*
X15395339Y53784469D01*
X15387349Y53775689D01*
X14840897Y53229237D01*
X14778585Y53195211D01*
X14707770Y53200276D01*
X14650934Y53242823D01*
X14626051Y53310421D01*
X14623149Y53356551D01*
X14622900Y53364462D01*
X14622900Y53381075D01*
X14620816Y53397569D01*
X14620073Y53405434D01*
X14616930Y53455401D01*
X14616930Y53455402D01*
X14616432Y53463314D01*
X14613698Y53471726D01*
X14608523Y53494882D01*
X14608408Y53495793D01*
X14608407Y53495796D01*
X14607414Y53503660D01*
X14604495Y53511033D01*
X14586058Y53557601D01*
X14583377Y53565048D01*
X14567909Y53612655D01*
X14567908Y53612657D01*
X14565457Y53620201D01*
X14560715Y53627673D01*
X14549947Y53648807D01*
X14549608Y53649664D01*
X14549605Y53649670D01*
X14546688Y53657037D01*
X14512597Y53703960D01*
X14508148Y53710505D01*
X14481312Y53752792D01*
X14481310Y53752794D01*
X14477066Y53759482D01*
X14470612Y53765543D01*
X14454923Y53783339D01*
X14449726Y53790493D01*
X14405031Y53827468D01*
X14399114Y53832683D01*
X14356815Y53872405D01*
X14349057Y53876670D01*
X14329444Y53889999D01*
X14322622Y53895643D01*
X14319811Y53896966D01*
X14302527Y53910813D01*
X13038128Y55175212D01*
X13004102Y55237524D01*
X13001824Y55252011D01*
X13001201Y55258369D01*
X29522582Y55258369D01*
X29523098Y55252225D01*
X29526258Y55214598D01*
X29538219Y55072151D01*
X29589729Y54892517D01*
X29675148Y54726308D01*
X29678971Y54721484D01*
X29678974Y54721480D01*
X29697253Y54698418D01*
X29791224Y54579857D01*
X29933535Y54458741D01*
X29938913Y54455735D01*
X29938915Y54455734D01*
X29978212Y54433772D01*
X30096661Y54367573D01*
X30274389Y54309826D01*
X30459947Y54287699D01*
X30466082Y54288171D01*
X30466084Y54288171D01*
X30640129Y54301563D01*
X30640134Y54301564D01*
X30646270Y54302036D01*
X30652200Y54303692D01*
X30652202Y54303692D01*
X30820332Y54350635D01*
X30820331Y54350635D01*
X30826260Y54352290D01*
X30993060Y54436547D01*
X31017619Y54455734D01*
X31066689Y54494072D01*
X31140318Y54551597D01*
X31164712Y54579857D01*
X31258401Y54688398D01*
X31258401Y54688399D01*
X31262425Y54693060D01*
X31354730Y54855545D01*
X31413716Y55032865D01*
X31436675Y55214598D01*
X31436696Y55214762D01*
X31436697Y55214772D01*
X31437138Y55218265D01*
X31437511Y55245000D01*
X31436200Y55258369D01*
X39682582Y55258369D01*
X39683098Y55252225D01*
X39686258Y55214598D01*
X39698219Y55072151D01*
X39749729Y54892517D01*
X39835148Y54726308D01*
X39838971Y54721484D01*
X39838974Y54721480D01*
X39857253Y54698418D01*
X39951224Y54579857D01*
X40093535Y54458741D01*
X40098913Y54455735D01*
X40098915Y54455734D01*
X40138212Y54433772D01*
X40256661Y54367573D01*
X40434389Y54309826D01*
X40619947Y54287699D01*
X40626082Y54288171D01*
X40626084Y54288171D01*
X40800129Y54301563D01*
X40800134Y54301564D01*
X40806270Y54302036D01*
X40812200Y54303692D01*
X40812202Y54303692D01*
X40980332Y54350635D01*
X40980331Y54350635D01*
X40986260Y54352290D01*
X41153060Y54436547D01*
X41177619Y54455734D01*
X41226689Y54494072D01*
X41300318Y54551597D01*
X41324712Y54579857D01*
X41418401Y54688398D01*
X41418401Y54688399D01*
X41422425Y54693060D01*
X41514730Y54855545D01*
X41573716Y55032865D01*
X41596675Y55214598D01*
X41596696Y55214762D01*
X41596697Y55214772D01*
X41597138Y55218265D01*
X41597511Y55245000D01*
X41579275Y55430982D01*
X41525263Y55609879D01*
X41515841Y55627599D01*
X41440425Y55769436D01*
X41440423Y55769439D01*
X41437531Y55774878D01*
X41319422Y55919695D01*
X41262836Y55966507D01*
X41180182Y56034885D01*
X41180177Y56034888D01*
X41175433Y56038813D01*
X41170014Y56041743D01*
X41170011Y56041745D01*
X41016470Y56124764D01*
X41016465Y56124766D01*
X41011050Y56127694D01*
X40988973Y56134528D01*
X40838421Y56181132D01*
X40838418Y56181133D01*
X40832534Y56182954D01*
X40826409Y56183598D01*
X40826408Y56183598D01*
X40652813Y56201844D01*
X40652812Y56201844D01*
X40646685Y56202488D01*
X40568971Y56195415D01*
X40466719Y56186110D01*
X40466716Y56186109D01*
X40460580Y56185551D01*
X40454674Y56183813D01*
X40454670Y56183812D01*
X40323453Y56145192D01*
X40281310Y56132789D01*
X40115702Y56046211D01*
X39970065Y55929115D01*
X39849945Y55785962D01*
X39846975Y55780559D01*
X39846974Y55780558D01*
X39840860Y55769436D01*
X39759918Y55622204D01*
X39758057Y55616337D01*
X39758056Y55616335D01*
X39714273Y55478312D01*
X39703413Y55444078D01*
X39682582Y55258369D01*
X31436200Y55258369D01*
X31419275Y55430982D01*
X31365263Y55609879D01*
X31355841Y55627599D01*
X31280425Y55769436D01*
X31280423Y55769439D01*
X31277531Y55774878D01*
X31159422Y55919695D01*
X31102836Y55966507D01*
X31020182Y56034885D01*
X31020177Y56034888D01*
X31015433Y56038813D01*
X31010014Y56041743D01*
X31010011Y56041745D01*
X30856470Y56124764D01*
X30856465Y56124766D01*
X30851050Y56127694D01*
X30828973Y56134528D01*
X30678421Y56181132D01*
X30678418Y56181133D01*
X30672534Y56182954D01*
X30666409Y56183598D01*
X30666408Y56183598D01*
X30492813Y56201844D01*
X30492812Y56201844D01*
X30486685Y56202488D01*
X30408971Y56195415D01*
X30306719Y56186110D01*
X30306716Y56186109D01*
X30300580Y56185551D01*
X30294674Y56183813D01*
X30294670Y56183812D01*
X30163453Y56145192D01*
X30121310Y56132789D01*
X29955702Y56046211D01*
X29810065Y55929115D01*
X29689945Y55785962D01*
X29686975Y55780559D01*
X29686974Y55780558D01*
X29680860Y55769436D01*
X29599918Y55622204D01*
X29598057Y55616337D01*
X29598056Y55616335D01*
X29554273Y55478312D01*
X29543413Y55444078D01*
X29522582Y55258369D01*
X13001201Y55258369D01*
X12984876Y55424848D01*
X12984275Y55430982D01*
X12930263Y55609879D01*
X12920841Y55627599D01*
X12845425Y55769436D01*
X12845423Y55769439D01*
X12842531Y55774878D01*
X12724422Y55919695D01*
X12667836Y55966507D01*
X12585182Y56034885D01*
X12585177Y56034888D01*
X12580433Y56038813D01*
X12575014Y56041743D01*
X12575011Y56041745D01*
X12421470Y56124764D01*
X12421465Y56124766D01*
X12416050Y56127694D01*
X12393973Y56134528D01*
X12243421Y56181132D01*
X12243418Y56181133D01*
X12237534Y56182954D01*
X12231409Y56183598D01*
X12231408Y56183598D01*
X12057813Y56201844D01*
X12057812Y56201844D01*
X12051685Y56202488D01*
X11973971Y56195415D01*
X11871719Y56186110D01*
X11871716Y56186109D01*
X11865580Y56185551D01*
X11859674Y56183813D01*
X11859670Y56183812D01*
X11728453Y56145192D01*
X11686310Y56132789D01*
X11520702Y56046211D01*
X11375065Y55929115D01*
X11254945Y55785962D01*
X11251975Y55780559D01*
X11251974Y55780558D01*
X11245860Y55769436D01*
X11164918Y55622204D01*
X11163057Y55616337D01*
X11163056Y55616335D01*
X11119273Y55478312D01*
X11108413Y55444078D01*
X11098657Y55357100D01*
X11071186Y55291633D01*
X11012682Y55251411D01*
X10941720Y55249204D01*
X10880829Y55285711D01*
X10849342Y55349344D01*
X10847921Y55360163D01*
X10838528Y55467520D01*
X10836625Y55478312D01*
X10780236Y55688761D01*
X10776490Y55699053D01*
X10684414Y55896511D01*
X10678931Y55906006D01*
X10642491Y55958048D01*
X10632012Y55966424D01*
X10618566Y55959356D01*
X8829923Y54170713D01*
X8823493Y54158938D01*
X8832789Y54146923D01*
X8883994Y54111069D01*
X8893489Y54105586D01*
X9090947Y54013510D01*
X9101239Y54009764D01*
X9311688Y53953375D01*
X9322480Y53951472D01*
X9518273Y53934342D01*
X9584391Y53908478D01*
X9626030Y53850975D01*
X9629971Y53780088D01*
X9596386Y53719726D01*
X9120833Y53244173D01*
X9112163Y53236283D01*
X9105518Y53232066D01*
X9100093Y53226289D01*
X9057424Y53180851D01*
X9054669Y53178009D01*
X9034286Y53157626D01*
X9031615Y53154183D01*
X9023915Y53145168D01*
X8998020Y53117593D01*
X8998017Y53117589D01*
X8992595Y53111815D01*
X8988777Y53104871D01*
X8988776Y53104869D01*
X8982393Y53093258D01*
X8971539Y53076734D01*
X8958555Y53059995D01*
X8943045Y53024153D01*
X8940387Y53018011D01*
X8935165Y53007351D01*
X8913124Y52967259D01*
X8911152Y52959577D01*
X8907857Y52946744D01*
X8901455Y52928044D01*
X8893041Y52908601D01*
X8891801Y52900771D01*
X8885884Y52863415D01*
X8883477Y52851794D01*
X8874482Y52816758D01*
X8872100Y52807480D01*
X8872100Y52786299D01*
X8870549Y52766589D01*
X8867236Y52745671D01*
X8867982Y52737779D01*
X8871541Y52700129D01*
X8872100Y52688271D01*
X8872100Y52213900D01*
X8852098Y52145779D01*
X8798442Y52099286D01*
X8746100Y52087900D01*
X5906550Y52087900D01*
X5838429Y52107902D01*
X5808906Y52134265D01*
X5800072Y52145097D01*
X5783422Y52158871D01*
X5653278Y52266536D01*
X5653274Y52266538D01*
X5648528Y52270465D01*
X5475520Y52364010D01*
X5287637Y52422170D01*
X5281519Y52422813D01*
X5281514Y52422814D01*
X5098164Y52442084D01*
X5098162Y52442084D01*
X5092035Y52442728D01*
X5009199Y52435190D01*
X4902305Y52425462D01*
X4902302Y52425461D01*
X4896166Y52424903D01*
X4707489Y52369372D01*
X4533192Y52278252D01*
X4379912Y52155012D01*
X4375954Y52150295D01*
X4375952Y52150293D01*
X4333152Y52099286D01*
X4253489Y52004347D01*
X4158739Y51831996D01*
X4156878Y51826129D01*
X4156877Y51826127D01*
X4150599Y51806335D01*
X4099269Y51644524D01*
X4077345Y51449070D01*
X500000Y51449070D01*
X500000Y55239525D01*
X8232483Y55239525D01*
X8251472Y55022481D01*
X8253375Y55011688D01*
X8309764Y54801239D01*
X8313510Y54790947D01*
X8405586Y54593489D01*
X8411069Y54583994D01*
X8447509Y54531952D01*
X8457988Y54523576D01*
X8471434Y54530644D01*
X9172978Y55232188D01*
X9180592Y55246132D01*
X9180461Y55247965D01*
X9176210Y55254580D01*
X8470713Y55960077D01*
X8458938Y55966507D01*
X8446923Y55957211D01*
X8411069Y55906006D01*
X8405586Y55896511D01*
X8313510Y55699053D01*
X8309764Y55688761D01*
X8253375Y55478312D01*
X8251472Y55467519D01*
X8232483Y55250475D01*
X8232483Y55239525D01*
X500000Y55239525D01*
X500000Y56332012D01*
X8823576Y56332012D01*
X8830644Y56318566D01*
X9532188Y55617022D01*
X9546132Y55609408D01*
X9547965Y55609539D01*
X9554580Y55613790D01*
X10260077Y56319287D01*
X10266507Y56331062D01*
X10257211Y56343077D01*
X10206006Y56378931D01*
X10196511Y56384414D01*
X9999053Y56476490D01*
X9988761Y56480236D01*
X9778312Y56536625D01*
X9767519Y56538528D01*
X9550475Y56557517D01*
X9539525Y56557517D01*
X9322481Y56538528D01*
X9311688Y56536625D01*
X9101239Y56480236D01*
X9090947Y56476490D01*
X8893489Y56384414D01*
X8883994Y56378931D01*
X8831952Y56342491D01*
X8823576Y56332012D01*
X500000Y56332012D01*
X500000Y58160331D01*
X13882001Y58160331D01*
X13882371Y58153510D01*
X13887895Y58102648D01*
X13891521Y58087396D01*
X13936676Y57966946D01*
X13945214Y57951351D01*
X14021715Y57849276D01*
X14034276Y57836715D01*
X14136351Y57760214D01*
X14151946Y57751676D01*
X14272394Y57706522D01*
X14287649Y57702895D01*
X14338514Y57697369D01*
X14345328Y57697000D01*
X14967885Y57697000D01*
X14983124Y57701475D01*
X14984329Y57702865D01*
X14986000Y57710548D01*
X14986000Y57715116D01*
X15494000Y57715116D01*
X15498475Y57699877D01*
X15499865Y57698672D01*
X15507548Y57697001D01*
X16134669Y57697001D01*
X16141490Y57697371D01*
X16192352Y57702895D01*
X16207604Y57706521D01*
X16328054Y57751676D01*
X16343649Y57760214D01*
X16445724Y57836715D01*
X16458285Y57849276D01*
X16534786Y57951351D01*
X16543324Y57966946D01*
X16588478Y58087394D01*
X16592105Y58102649D01*
X16597631Y58153514D01*
X16598000Y58160328D01*
X16598000Y58643977D01*
X16618002Y58712098D01*
X16671658Y58758591D01*
X16741932Y58768695D01*
X16806512Y58739201D01*
X16841153Y58690358D01*
X16841316Y58689947D01*
X16843015Y58684021D01*
X16845830Y58678544D01*
X16845831Y58678541D01*
X16930101Y58514569D01*
X16932916Y58509092D01*
X16936739Y58504268D01*
X16936742Y58504264D01*
X16960651Y58474099D01*
X17055083Y58354956D01*
X17204862Y58227484D01*
X17376547Y58131533D01*
X17563600Y58070756D01*
X17758895Y58047468D01*
X17765030Y58047940D01*
X17765032Y58047940D01*
X17948852Y58062084D01*
X17948856Y58062085D01*
X17954994Y58062557D01*
X18144428Y58115448D01*
X18149932Y58118228D01*
X18149934Y58118229D01*
X18314480Y58201347D01*
X18314482Y58201348D01*
X18319981Y58204126D01*
X18474966Y58325214D01*
X18478992Y58329878D01*
X18478995Y58329881D01*
X18599451Y58469431D01*
X18599452Y58469433D01*
X18603480Y58474099D01*
X18700628Y58645110D01*
X18762710Y58831734D01*
X18787360Y59026862D01*
X18787753Y59055000D01*
X18786373Y59069070D01*
X19312345Y59069070D01*
X19328803Y58873081D01*
X19330502Y58867156D01*
X19350297Y58798124D01*
X19383015Y58684021D01*
X19385830Y58678544D01*
X19385831Y58678541D01*
X19470101Y58514569D01*
X19472916Y58509092D01*
X19476739Y58504268D01*
X19476742Y58504264D01*
X19500651Y58474099D01*
X19595083Y58354956D01*
X19744862Y58227484D01*
X19916547Y58131533D01*
X20103600Y58070756D01*
X20298895Y58047468D01*
X20305030Y58047940D01*
X20305032Y58047940D01*
X20488852Y58062084D01*
X20488856Y58062085D01*
X20494994Y58062557D01*
X20684428Y58115448D01*
X20689932Y58118228D01*
X20689934Y58118229D01*
X20854480Y58201347D01*
X20854482Y58201348D01*
X20859981Y58204126D01*
X21014966Y58325214D01*
X21018992Y58329878D01*
X21018995Y58329881D01*
X21139451Y58469431D01*
X21139452Y58469433D01*
X21143480Y58474099D01*
X21240628Y58645110D01*
X21302710Y58831734D01*
X21327360Y59026862D01*
X21327753Y59055000D01*
X21326373Y59069070D01*
X21852345Y59069070D01*
X21868803Y58873081D01*
X21870502Y58867156D01*
X21890297Y58798124D01*
X21923015Y58684021D01*
X21925830Y58678544D01*
X21925831Y58678541D01*
X22010101Y58514569D01*
X22012916Y58509092D01*
X22016739Y58504268D01*
X22016742Y58504264D01*
X22040651Y58474099D01*
X22135083Y58354956D01*
X22284862Y58227484D01*
X22456547Y58131533D01*
X22643600Y58070756D01*
X22838895Y58047468D01*
X22845030Y58047940D01*
X22845032Y58047940D01*
X23028852Y58062084D01*
X23028856Y58062085D01*
X23034994Y58062557D01*
X23224428Y58115448D01*
X23229932Y58118228D01*
X23229934Y58118229D01*
X23394480Y58201347D01*
X23394482Y58201348D01*
X23399981Y58204126D01*
X23554966Y58325214D01*
X23558992Y58329878D01*
X23558995Y58329881D01*
X23679451Y58469431D01*
X23679452Y58469433D01*
X23683480Y58474099D01*
X23780628Y58645110D01*
X23842710Y58831734D01*
X23867360Y59026862D01*
X23867753Y59055000D01*
X23866373Y59069070D01*
X24392345Y59069070D01*
X24408803Y58873081D01*
X24410502Y58867156D01*
X24430297Y58798124D01*
X24463015Y58684021D01*
X24465830Y58678544D01*
X24465831Y58678541D01*
X24550101Y58514569D01*
X24552916Y58509092D01*
X24556739Y58504268D01*
X24556742Y58504264D01*
X24580651Y58474099D01*
X24675083Y58354956D01*
X24824862Y58227484D01*
X24996547Y58131533D01*
X25183600Y58070756D01*
X25378895Y58047468D01*
X25385030Y58047940D01*
X25385032Y58047940D01*
X25568852Y58062084D01*
X25568856Y58062085D01*
X25574994Y58062557D01*
X25764428Y58115448D01*
X25769932Y58118228D01*
X25769934Y58118229D01*
X25934480Y58201347D01*
X25934482Y58201348D01*
X25939981Y58204126D01*
X26094966Y58325214D01*
X26098992Y58329878D01*
X26098995Y58329881D01*
X26219451Y58469431D01*
X26219452Y58469433D01*
X26223480Y58474099D01*
X26320628Y58645110D01*
X26382710Y58831734D01*
X26407360Y59026862D01*
X26407753Y59055000D01*
X26406373Y59069070D01*
X26932345Y59069070D01*
X26948803Y58873081D01*
X26950502Y58867156D01*
X26970297Y58798124D01*
X27003015Y58684021D01*
X27005830Y58678544D01*
X27005831Y58678541D01*
X27090101Y58514569D01*
X27092916Y58509092D01*
X27096739Y58504268D01*
X27096742Y58504264D01*
X27120651Y58474099D01*
X27215083Y58354956D01*
X27364862Y58227484D01*
X27536547Y58131533D01*
X27723600Y58070756D01*
X27918895Y58047468D01*
X27925030Y58047940D01*
X27925032Y58047940D01*
X28108852Y58062084D01*
X28108856Y58062085D01*
X28114994Y58062557D01*
X28304428Y58115448D01*
X28309932Y58118228D01*
X28309934Y58118229D01*
X28474480Y58201347D01*
X28474482Y58201348D01*
X28479981Y58204126D01*
X28634966Y58325214D01*
X28638992Y58329878D01*
X28638995Y58329881D01*
X28759451Y58469431D01*
X28759452Y58469433D01*
X28763480Y58474099D01*
X28860628Y58645110D01*
X28922710Y58831734D01*
X28947360Y59026862D01*
X28947753Y59055000D01*
X28928561Y59250740D01*
X28871714Y59439025D01*
X28792553Y59587905D01*
X28782273Y59607240D01*
X28782271Y59607243D01*
X28779379Y59612682D01*
X28775489Y59617452D01*
X28775486Y59617456D01*
X28658967Y59760322D01*
X28658964Y59760325D01*
X28655072Y59765097D01*
X28638422Y59778871D01*
X28508278Y59886536D01*
X28508274Y59886538D01*
X28503528Y59890465D01*
X28330520Y59984010D01*
X28142637Y60042170D01*
X28136519Y60042813D01*
X28136514Y60042814D01*
X27953164Y60062084D01*
X27953162Y60062084D01*
X27947035Y60062728D01*
X27864199Y60055190D01*
X27757305Y60045462D01*
X27757302Y60045461D01*
X27751166Y60044903D01*
X27562489Y59989372D01*
X27388192Y59898252D01*
X27234912Y59775012D01*
X27230954Y59770295D01*
X27230952Y59770293D01*
X27194684Y59727070D01*
X27108489Y59624347D01*
X27013739Y59451996D01*
X27011878Y59446129D01*
X27011877Y59446127D01*
X27009624Y59439025D01*
X26954269Y59264524D01*
X26932345Y59069070D01*
X26406373Y59069070D01*
X26388561Y59250740D01*
X26331714Y59439025D01*
X26252553Y59587905D01*
X26242273Y59607240D01*
X26242271Y59607243D01*
X26239379Y59612682D01*
X26235489Y59617452D01*
X26235486Y59617456D01*
X26118967Y59760322D01*
X26118964Y59760325D01*
X26115072Y59765097D01*
X26098422Y59778871D01*
X25968278Y59886536D01*
X25968274Y59886538D01*
X25963528Y59890465D01*
X25790520Y59984010D01*
X25602637Y60042170D01*
X25596519Y60042813D01*
X25596514Y60042814D01*
X25413164Y60062084D01*
X25413162Y60062084D01*
X25407035Y60062728D01*
X25324199Y60055190D01*
X25217305Y60045462D01*
X25217302Y60045461D01*
X25211166Y60044903D01*
X25022489Y59989372D01*
X24848192Y59898252D01*
X24694912Y59775012D01*
X24690954Y59770295D01*
X24690952Y59770293D01*
X24654684Y59727070D01*
X24568489Y59624347D01*
X24473739Y59451996D01*
X24471878Y59446129D01*
X24471877Y59446127D01*
X24469624Y59439025D01*
X24414269Y59264524D01*
X24392345Y59069070D01*
X23866373Y59069070D01*
X23848561Y59250740D01*
X23791714Y59439025D01*
X23712553Y59587905D01*
X23702273Y59607240D01*
X23702271Y59607243D01*
X23699379Y59612682D01*
X23695489Y59617452D01*
X23695486Y59617456D01*
X23578967Y59760322D01*
X23578964Y59760325D01*
X23575072Y59765097D01*
X23558422Y59778871D01*
X23428278Y59886536D01*
X23428274Y59886538D01*
X23423528Y59890465D01*
X23250520Y59984010D01*
X23062637Y60042170D01*
X23056519Y60042813D01*
X23056514Y60042814D01*
X22873164Y60062084D01*
X22873162Y60062084D01*
X22867035Y60062728D01*
X22784199Y60055190D01*
X22677305Y60045462D01*
X22677302Y60045461D01*
X22671166Y60044903D01*
X22482489Y59989372D01*
X22308192Y59898252D01*
X22154912Y59775012D01*
X22150954Y59770295D01*
X22150952Y59770293D01*
X22114684Y59727070D01*
X22028489Y59624347D01*
X21933739Y59451996D01*
X21931878Y59446129D01*
X21931877Y59446127D01*
X21929624Y59439025D01*
X21874269Y59264524D01*
X21852345Y59069070D01*
X21326373Y59069070D01*
X21308561Y59250740D01*
X21251714Y59439025D01*
X21172553Y59587905D01*
X21162273Y59607240D01*
X21162271Y59607243D01*
X21159379Y59612682D01*
X21155489Y59617452D01*
X21155486Y59617456D01*
X21038967Y59760322D01*
X21038964Y59760325D01*
X21035072Y59765097D01*
X21018422Y59778871D01*
X20888278Y59886536D01*
X20888274Y59886538D01*
X20883528Y59890465D01*
X20710520Y59984010D01*
X20522637Y60042170D01*
X20516519Y60042813D01*
X20516514Y60042814D01*
X20333164Y60062084D01*
X20333162Y60062084D01*
X20327035Y60062728D01*
X20244199Y60055190D01*
X20137305Y60045462D01*
X20137302Y60045461D01*
X20131166Y60044903D01*
X19942489Y59989372D01*
X19768192Y59898252D01*
X19614912Y59775012D01*
X19610954Y59770295D01*
X19610952Y59770293D01*
X19574684Y59727070D01*
X19488489Y59624347D01*
X19393739Y59451996D01*
X19391878Y59446129D01*
X19391877Y59446127D01*
X19389624Y59439025D01*
X19334269Y59264524D01*
X19312345Y59069070D01*
X18786373Y59069070D01*
X18768561Y59250740D01*
X18711714Y59439025D01*
X18632553Y59587905D01*
X18622273Y59607240D01*
X18622271Y59607243D01*
X18619379Y59612682D01*
X18615489Y59617452D01*
X18615486Y59617456D01*
X18498967Y59760322D01*
X18498964Y59760325D01*
X18495072Y59765097D01*
X18478422Y59778871D01*
X18348278Y59886536D01*
X18348274Y59886538D01*
X18343528Y59890465D01*
X18170520Y59984010D01*
X17982637Y60042170D01*
X17976519Y60042813D01*
X17976514Y60042814D01*
X17793164Y60062084D01*
X17793162Y60062084D01*
X17787035Y60062728D01*
X17704199Y60055190D01*
X17597305Y60045462D01*
X17597302Y60045461D01*
X17591166Y60044903D01*
X17402489Y59989372D01*
X17228192Y59898252D01*
X17074912Y59775012D01*
X17070954Y59770295D01*
X17070952Y59770293D01*
X17034684Y59727070D01*
X16948489Y59624347D01*
X16853739Y59451996D01*
X16851878Y59446129D01*
X16844101Y59421613D01*
X16804437Y59362730D01*
X16739234Y59334638D01*
X16669195Y59346256D01*
X16616555Y59393896D01*
X16597999Y59459713D01*
X16597999Y59949669D01*
X16597629Y59956490D01*
X16592105Y60007352D01*
X16588479Y60022604D01*
X16543324Y60143054D01*
X16534786Y60158649D01*
X16458285Y60260724D01*
X16445724Y60273285D01*
X16343649Y60349786D01*
X16328054Y60358324D01*
X16207606Y60403478D01*
X16192351Y60407105D01*
X16141486Y60412631D01*
X16134672Y60413000D01*
X15512115Y60413000D01*
X15496876Y60408525D01*
X15495671Y60407135D01*
X15494000Y60399452D01*
X15494000Y57715116D01*
X14986000Y57715116D01*
X14986000Y58782885D01*
X14981525Y58798124D01*
X14980135Y58799329D01*
X14972452Y58801000D01*
X13900116Y58801000D01*
X13884877Y58796525D01*
X13883672Y58795135D01*
X13882001Y58787452D01*
X13882001Y58160331D01*
X500000Y58160331D01*
X500000Y58947810D01*
X520002Y59015931D01*
X536905Y59036905D01*
X827115Y59327115D01*
X13882000Y59327115D01*
X13886475Y59311876D01*
X13887865Y59310671D01*
X13895548Y59309000D01*
X14967885Y59309000D01*
X14983124Y59313475D01*
X14984329Y59314865D01*
X14986000Y59322548D01*
X14986000Y60394884D01*
X14981525Y60410123D01*
X14980135Y60411328D01*
X14972452Y60412999D01*
X14345331Y60412999D01*
X14338510Y60412629D01*
X14287648Y60407105D01*
X14272396Y60403479D01*
X14151946Y60358324D01*
X14136351Y60349786D01*
X14034276Y60273285D01*
X14021715Y60260724D01*
X13945214Y60158649D01*
X13936676Y60143054D01*
X13891522Y60022606D01*
X13887895Y60007351D01*
X13882369Y59956486D01*
X13882000Y59949672D01*
X13882000Y59327115D01*
X827115Y59327115D01*
X1463095Y59963095D01*
X1525407Y59997121D01*
X1552190Y60000000D01*
X12000000Y60000000D01*
X12963095Y60963095D01*
X13025407Y60997121D01*
X13052190Y61000000D01*
X29947810Y61000000D01*
X30015931Y60979998D01*
G37*
G04 #@! TD.AperFunction*
G04 #@! TA.AperFunction,Conductor*
G36*
X30931585Y52667098D02*
G01*
X30978078Y52613442D01*
X30988182Y52543168D01*
X30958688Y52478588D01*
X30898962Y52440204D01*
X30888043Y52437521D01*
X30857517Y52431450D01*
X30857515Y52431449D01*
X30845342Y52429028D01*
X30794766Y52395234D01*
X30787873Y52384918D01*
X30767865Y52354975D01*
X30767864Y52354972D01*
X30760972Y52344658D01*
X30758552Y52332491D01*
X30758551Y52332489D01*
X30754925Y52314257D01*
X30752100Y52300057D01*
X30752101Y50569944D01*
X30754940Y50555669D01*
X30756873Y50545953D01*
X30760972Y50525342D01*
X30767866Y50515025D01*
X30767868Y50515021D01*
X30783937Y50490972D01*
X30794766Y50474766D01*
X30805082Y50467873D01*
X30835025Y50447865D01*
X30835028Y50447864D01*
X30845342Y50440972D01*
X30857509Y50438552D01*
X30857511Y50438551D01*
X30875743Y50434925D01*
X30889943Y50432100D01*
X31067813Y50432100D01*
X31135934Y50412098D01*
X31182427Y50358442D01*
X31192531Y50288168D01*
X31163037Y50223588D01*
X31156911Y50217008D01*
X30520668Y49580765D01*
X30515884Y49576225D01*
X30486614Y49549870D01*
X30478174Y49530914D01*
X30468742Y49513542D01*
X30464651Y49507243D01*
X30464650Y49507241D01*
X30457439Y49496136D01*
X30455368Y49483057D01*
X30453481Y49478142D01*
X30452387Y49472996D01*
X30447000Y49460897D01*
X30447000Y49440147D01*
X30445449Y49420436D01*
X30442203Y49399942D01*
X30445630Y49387153D01*
X30446323Y49373925D01*
X30445887Y49373902D01*
X30447000Y49365450D01*
X30447000Y49051286D01*
X30426998Y48983165D01*
X30410095Y48962191D01*
X30371656Y48923752D01*
X30309344Y48889726D01*
X30238529Y48894791D01*
X30181693Y48937338D01*
X30157162Y49000551D01*
X30149877Y49074848D01*
X30149876Y49074853D01*
X30149275Y49080982D01*
X30145797Y49092504D01*
X30113109Y49200769D01*
X30095263Y49259879D01*
X30078186Y49291996D01*
X30010425Y49419436D01*
X30010423Y49419439D01*
X30007531Y49424878D01*
X29889422Y49569695D01*
X29829044Y49619644D01*
X29750182Y49684885D01*
X29750177Y49684888D01*
X29745433Y49688813D01*
X29740014Y49691743D01*
X29740011Y49691745D01*
X29586470Y49774764D01*
X29586465Y49774766D01*
X29581050Y49777694D01*
X29558973Y49784528D01*
X29408421Y49831132D01*
X29408418Y49831133D01*
X29402534Y49832954D01*
X29396409Y49833598D01*
X29396408Y49833598D01*
X29222813Y49851844D01*
X29222812Y49851844D01*
X29216685Y49852488D01*
X29144988Y49845963D01*
X29036719Y49836110D01*
X29036716Y49836109D01*
X29030580Y49835551D01*
X29024674Y49833813D01*
X29024670Y49833812D01*
X28899683Y49797026D01*
X28851310Y49782789D01*
X28685702Y49696211D01*
X28540065Y49579115D01*
X28419945Y49435962D01*
X28416975Y49430559D01*
X28416974Y49430558D01*
X28411409Y49420436D01*
X28329918Y49272204D01*
X28328057Y49266337D01*
X28328056Y49266335D01*
X28276727Y49104524D01*
X28273413Y49094078D01*
X28262759Y48999096D01*
X28254308Y48923752D01*
X28252582Y48908369D01*
X28268219Y48722151D01*
X28319729Y48542517D01*
X28405148Y48376308D01*
X28408971Y48371484D01*
X28408974Y48371480D01*
X28431500Y48343060D01*
X28521224Y48229857D01*
X28525917Y48225863D01*
X28525918Y48225862D01*
X28591696Y48169881D01*
X28663535Y48108741D01*
X28668913Y48105735D01*
X28668915Y48105734D01*
X28702098Y48087189D01*
X28751804Y48036496D01*
X28766212Y47966977D01*
X28740749Y47900704D01*
X28683497Y47858718D01*
X28672744Y47855948D01*
X28665361Y47856335D01*
X28652997Y47851589D01*
X28645979Y47848896D01*
X28627035Y47843284D01*
X28606735Y47838969D01*
X28596021Y47831185D01*
X28591213Y47829044D01*
X28586799Y47826177D01*
X28574436Y47821432D01*
X28559765Y47806761D01*
X28544731Y47793920D01*
X28541563Y47791618D01*
X28527942Y47781722D01*
X28521322Y47770255D01*
X28512459Y47760412D01*
X28512135Y47760704D01*
X28506945Y47753941D01*
X28209228Y47456225D01*
X27911568Y47158565D01*
X27906784Y47154025D01*
X27877514Y47127670D01*
X27869074Y47108714D01*
X27859642Y47091342D01*
X27855551Y47085043D01*
X27855550Y47085041D01*
X27848339Y47073936D01*
X27846268Y47060857D01*
X27844381Y47055942D01*
X27843287Y47050796D01*
X27837900Y47038697D01*
X27837900Y47017947D01*
X27836349Y46998236D01*
X27833103Y46977742D01*
X27836530Y46964953D01*
X27837223Y46951725D01*
X27836787Y46951702D01*
X27837900Y46943250D01*
X27837900Y44978086D01*
X27817898Y44909965D01*
X27800995Y44888991D01*
X22536531Y39624528D01*
X17344578Y34432575D01*
X17339794Y34428034D01*
X17310514Y34401670D01*
X17302387Y34383416D01*
X17302074Y34382714D01*
X17292642Y34365342D01*
X17288551Y34359043D01*
X17288550Y34359041D01*
X17281339Y34347936D01*
X17279268Y34334857D01*
X17277381Y34329942D01*
X17276287Y34324796D01*
X17270900Y34312697D01*
X17270900Y34291947D01*
X17269349Y34272236D01*
X17268434Y34266456D01*
X17266103Y34251742D01*
X17269530Y34238953D01*
X17270223Y34225725D01*
X17269787Y34225702D01*
X17270900Y34217250D01*
X17270900Y33016623D01*
X17250898Y32948502D01*
X17197242Y32902009D01*
X17126968Y32891905D01*
X17076371Y32910890D01*
X17022583Y32945753D01*
X16897605Y32983129D01*
X16888629Y32983184D01*
X16888628Y32983184D01*
X16834557Y32983514D01*
X16767160Y32983926D01*
X16671242Y32956512D01*
X16656017Y32952161D01*
X16654225Y32951649D01*
X16583230Y32952161D01*
X16523782Y32990975D01*
X16494756Y33055767D01*
X16493600Y33072798D01*
X16493600Y35371275D01*
X16513602Y35439396D01*
X16553669Y35478648D01*
X16620386Y35519612D01*
X16629660Y35529857D01*
X16701898Y35609665D01*
X16701899Y35609666D01*
X16707926Y35616325D01*
X16718621Y35638398D01*
X16760888Y35725639D01*
X16760888Y35725640D01*
X16764803Y35733720D01*
X16779996Y35824021D01*
X16785640Y35857567D01*
X16785640Y35857570D01*
X16786446Y35862359D01*
X16786583Y35873600D01*
X16768090Y36002730D01*
X16763384Y36013081D01*
X16717815Y36113305D01*
X16717813Y36113308D01*
X16714098Y36121479D01*
X16628947Y36220302D01*
X16519483Y36291253D01*
X16394505Y36328629D01*
X16385529Y36328684D01*
X16385528Y36328684D01*
X16328128Y36329035D01*
X16264060Y36329426D01*
X16260456Y36328396D01*
X16192855Y36338574D01*
X16139509Y36385422D01*
X16119959Y36453674D01*
X16140412Y36521660D01*
X16158761Y36542253D01*
X16158586Y36542412D01*
X16240098Y36632465D01*
X16240099Y36632466D01*
X16246126Y36639125D01*
X16303003Y36756520D01*
X16324646Y36885159D01*
X16324783Y36896400D01*
X16312111Y36984885D01*
X16307563Y37016644D01*
X16307562Y37016647D01*
X16306290Y37025530D01*
X16283905Y37074764D01*
X16256015Y37136105D01*
X16256013Y37136108D01*
X16252298Y37144279D01*
X16167147Y37243102D01*
X16057683Y37314053D01*
X15932705Y37351429D01*
X15923729Y37351484D01*
X15923728Y37351484D01*
X15869657Y37351814D01*
X15802260Y37352226D01*
X15793630Y37349760D01*
X15793626Y37349759D01*
X15701324Y37323379D01*
X15630329Y37323891D01*
X15570882Y37362705D01*
X15541856Y37427498D01*
X15540700Y37444528D01*
X15540700Y49034198D01*
X15540873Y49040792D01*
X15542242Y49066914D01*
X15542935Y49080139D01*
X15537585Y49094078D01*
X15535496Y49099521D01*
X15529883Y49118469D01*
X15525569Y49138765D01*
X15517785Y49149479D01*
X15515644Y49154287D01*
X15512777Y49158701D01*
X15508032Y49171064D01*
X15493361Y49185735D01*
X15480520Y49200769D01*
X15476105Y49206846D01*
X15476104Y49206846D01*
X15468322Y49217558D01*
X15456855Y49224178D01*
X15447012Y49233041D01*
X15447304Y49233366D01*
X15440540Y49238556D01*
X14412091Y50267006D01*
X14378065Y50329318D01*
X14383130Y50400134D01*
X14425677Y50456969D01*
X14492197Y50481780D01*
X14501186Y50482101D01*
X14785056Y50482101D01*
X14801710Y50485413D01*
X14817483Y50488550D01*
X14817485Y50488551D01*
X14829658Y50490972D01*
X14845759Y50501730D01*
X14869918Y50517873D01*
X14880234Y50524766D01*
X14888754Y50537517D01*
X14907135Y50565025D01*
X14907136Y50565028D01*
X14914028Y50575342D01*
X14922900Y50619943D01*
X14922899Y51412369D01*
X14933469Y51448369D01*
X28252582Y51448369D01*
X28268219Y51262151D01*
X28319729Y51082517D01*
X28405148Y50916308D01*
X28408971Y50911484D01*
X28408974Y50911480D01*
X28431500Y50883060D01*
X28521224Y50769857D01*
X28525917Y50765863D01*
X28525918Y50765862D01*
X28566926Y50730962D01*
X28663535Y50648741D01*
X28668913Y50645735D01*
X28668915Y50645734D01*
X28730211Y50611477D01*
X28826661Y50557573D01*
X29004389Y50499826D01*
X29189947Y50477699D01*
X29196082Y50478171D01*
X29196084Y50478171D01*
X29370129Y50491563D01*
X29370134Y50491564D01*
X29376270Y50492036D01*
X29382200Y50493692D01*
X29382202Y50493692D01*
X29526035Y50533851D01*
X29556260Y50542290D01*
X29563512Y50545953D01*
X29685322Y50607484D01*
X29723060Y50626547D01*
X29747619Y50645734D01*
X29865468Y50737808D01*
X29870318Y50741597D01*
X29894712Y50769857D01*
X29988401Y50878398D01*
X29988401Y50878399D01*
X29992425Y50883060D01*
X30084730Y51045545D01*
X30143716Y51222865D01*
X30155494Y51316098D01*
X30166696Y51404762D01*
X30166697Y51404772D01*
X30167138Y51408265D01*
X30167511Y51435000D01*
X30149275Y51620982D01*
X30095263Y51799879D01*
X30078186Y51831996D01*
X30010425Y51959436D01*
X30010423Y51959439D01*
X30007531Y51964878D01*
X29889422Y52109695D01*
X29763460Y52213900D01*
X29750182Y52224885D01*
X29750177Y52224888D01*
X29745433Y52228813D01*
X29740014Y52231743D01*
X29740011Y52231745D01*
X29586470Y52314764D01*
X29586465Y52314766D01*
X29581050Y52317694D01*
X29533255Y52332489D01*
X29408421Y52371132D01*
X29408418Y52371133D01*
X29402534Y52372954D01*
X29396409Y52373598D01*
X29396408Y52373598D01*
X29222813Y52391844D01*
X29222812Y52391844D01*
X29216685Y52392488D01*
X29138971Y52385415D01*
X29036719Y52376110D01*
X29036716Y52376109D01*
X29030580Y52375551D01*
X29024674Y52373813D01*
X29024670Y52373812D01*
X28924262Y52344260D01*
X28851310Y52322789D01*
X28771578Y52281106D01*
X28751557Y52270639D01*
X28685702Y52236211D01*
X28540065Y52119115D01*
X28419945Y51975962D01*
X28416975Y51970559D01*
X28416974Y51970558D01*
X28410860Y51959436D01*
X28329918Y51812204D01*
X28328057Y51806337D01*
X28328056Y51806335D01*
X28278588Y51650393D01*
X28273413Y51634078D01*
X28252582Y51448369D01*
X14933469Y51448369D01*
X14942901Y51480490D01*
X14959804Y51501464D01*
X16108535Y52650195D01*
X16170847Y52684221D01*
X16197630Y52687100D01*
X30863464Y52687100D01*
X30931585Y52667098D01*
G37*
G04 #@! TD.AperFunction*
M02*
